<?xml version="1.0" encoding="utf-8"?>
<!-- Generator: Adobe Illustrator 22.0.0, SVG Export Plug-In . SVG Version: 6.00 Build 0)  -->
<svg version="1.1" id="Layer_1" xmlns="http://www.w3.org/2000/svg" xmlns:xlink="http://www.w3.org/1999/xlink" x="0px" y="0px"
	 viewBox="0 0 64 64" style="enable-background:new 0 0 64 64;" xml:space="preserve">
<style type="text/css">
	.st0{fill:#3A3735;}
	.st1{fill:none;stroke:#3A3735;stroke-width:2;stroke-linejoin:round;}
	.st2{fill:#03A9F4;}
</style>
<path class="st0" d="M35.4,31c0.5,0.3,4.6,2.3,4.8,2.4c1.1,0.6,0.3,0.9-0.7,1.3c-0.4,0.2-2.6,1-3.2,1.5c-0.1,0.1-0.5,0.9,0.5,1.3
	c0.9,0.4,17.8,8.1,18.1,8.3c0.3,0.1,1.8,0.7,1.4,1.6C56,48.3,36,55.3,35.1,56c-0.7,0.5,1.7,1.5,2,1.7c0.8,0.6-0.4,0.7-1.2,0.7
	s-15.6,0-15.9,0c-1.2,0-1.2-0.3-0.8-1.1c0.3-0.6,3.8-7,3.9-7.2c0.4-0.7,0.9,0,1.2,0.2c0.6,0.4,1.2,1.1,2.4,1
	c0.5-0.1,7.3-2.5,9.5-3.6c1.7-0.9,2-1.5-1.2-3.4c-1.2-0.8-11.2-5.1-12.4-6.8c-0.7-1,1.9-2.2,2.1-2.4c0.3-0.2,8.8-4.1,9-4.2
	C34.6,30.6,34.7,30.7,35.4,31z"/>
<title></title>
<g id="_9-Shipping">
	<polyline class="st1" points="47,10 55,10 63,18 63,28 59,28 	"/>
	<circle class="st1" cx="55" cy="28" r="4"/>
	<circle class="st1" cx="27" cy="28" r="4"/>
	<line class="st1" x1="51" y1="28" x2="31" y2="28"/>
	<line class="st1" x1="26" y1="28" x2="28" y2="28"/>
	<line class="st1" x1="54" y1="28" x2="56" y2="28"/>
	<line class="st1" x1="47" y1="24" x2="33" y2="24"/>
	<path class="st1" d="M47,15c0,0,1,3,3,3h13"/>
	<line class="st1" x1="19" y1="20" x2="47" y2="20"/>
	<path class="st1" d="M47,28V4h-9V2c0-0.6-0.4-1-1-1h-8c-0.6,0-1,0.4-1,1v2h-9v24h4"/>
	<line class="st1" x1="28" y1="4" x2="35" y2="4"/>
	<line class="st1" x1="16" y1="24" x2="8" y2="24"/>
	<line class="st1" x1="12" y1="19" x2="6" y2="19"/>
	<line class="st1" x1="16" y1="14" x2="12" y2="14"/>
	<line class="st1" x1="16" y1="19" x2="14" y2="19"/>
	<line class="st1" x1="10" y1="14" x2="8" y2="14"/>
</g>
<rect x="19.7" y="4.6" class="st2" width="26.8" height="14.4"/>
<g id="Layer_2_1_">
</g>
<path class="st2" d="M3.5,46.8c0-4.7,3.8-8.5,8.5-8.5s8.5,3.8,8.5,8.5C20.5,52.5,12,61,12,61S3.5,52.5,3.5,46.8 M8.5,46.8
	c0,2,1.6,3.5,3.5,3.5s3.5-1.6,3.5-3.5S14,43.2,12,43.2S8.5,44.8,8.5,46.8z"/>
</svg>
