<?xml version="1.0" encoding="utf-8"?>
<!-- Generator: Adobe Illustrator 22.0.0, SVG Export Plug-In . SVG Version: 6.00 Build 0)  -->
<svg version="1.1" id="Livello_1" xmlns="http://www.w3.org/2000/svg" xmlns:xlink="http://www.w3.org/1999/xlink" x="0px" y="0px"
	 viewBox="0 0 141.7 141.7" style="enable-background:new 0 0 141.7 141.7;" xml:space="preserve">
<style type="text/css">
	.st0{fill:#E0445D;}
</style>
<g id="Livello_110">
	<path class="st0" d="M95.3,50.6C95.3,64.6,84,76,69.9,76S44.5,64.7,44.5,50.7s11.4-25.3,25.4-25.3C84,25.3,95.3,36.7,95.3,50.6
		 M121.7,50.6C121.7,22.7,99,0,70.9,0S20,22.7,20,50.6c0,12.3,4.4,23.6,11.7,32.3l39.2,56.3l39.8-57.1c1.4-1.8,2.7-3.7,3.9-5.6
		L115,76h-0.1C119.3,68.5,121.7,59.9,121.7,50.6"/>
</g>
<g id="Livello_1_1_">
</g>
</svg>
