<?xml version="1.0" encoding="iso-8859-1"?>
<!-- Generator: Adobe Illustrator 19.0.0, SVG Export Plug-In . SVG Version: 6.00 Build 0)  -->
<svg version="1.1" id="Capa_1" xmlns="http://www.w3.org/2000/svg" xmlns:xlink="http://www.w3.org/1999/xlink" x="0px" y="0px"
	 viewBox="0 0 511.984 511.984" style="enable-background:new 0 0 511.984 511.984;" xml:space="preserve">
<g>
	<path style="fill:#4B9FD8;" d="M117.616,438.48c0.784-6.272,4.368-11.712,6.08-17.6c1.664-5.904,1.792-12.16,1.712-18.48
		c-0.192-6.352-0.592-12.72-2.624-19.76c-0.608-0.224-1.216-0.448-1.808-0.672c-4.912,4.496-7.824,9.808-10.128,15.456
		c-2.176,5.664-3.76,11.664-3.36,18.368c0.448,6.752,3.184,14.16,3.584,20.816c0.064,0.88-0.128,1.68-0.128,2.528
		c-12.64-16.704-23.44-34.416-32.384-52.864c0.24-3.728,0.816-7.248,2.144-10.368c2.176-5.44,6.8-9.504,9.744-14.4
		c2.88-4.944,4.32-10.56,5.568-16.336c1.12-5.824,2.016-11.728,1.456-18.672c-0.544-0.352-1.072-0.688-1.616-1.04
		c-5.616,2.976-9.472,7.152-12.864,11.744c-3.248,4.672-6.032,9.712-7.072,15.888c-0.992,6.208,0.016,13.536-1.088,19.6
		c-0.192,1.184-0.72,2.192-1.008,3.312c-8.128-18.432-14.448-37.504-18.944-56.96c1.024-4.192,2.4-8.128,4.72-11.216
		c3.168-4.416,8.416-7.008,12.176-10.784c3.728-3.824,6.176-8.672,8.448-13.712c2.16-5.136,4.128-10.416,4.832-17.056
		c-0.448-0.448-0.896-0.912-1.36-1.376c-5.888,1.408-10.352,4.352-14.432,7.808c-3.968,3.52-7.584,7.552-9.76,12.96
		c-2.144,5.472-2.624,12.464-4.896,17.744c-0.576,1.408-1.456,2.528-2.224,3.792c-3.696-19.216-5.616-38.8-5.728-58.416
		c1.984-4.624,4.336-8.848,7.728-11.616c3.84-3.328,9.248-4.368,13.488-6.976c4.224-2.624,7.408-6.608,10.448-10.816
		c2.976-4.32,5.744-8.864,7.6-15.056c-0.336-0.544-0.688-1.104-1.024-1.648c-5.776-0.128-10.48,1.6-14.944,3.84
		c-4.384,2.368-8.496,5.248-11.552,9.808c-3.024,4.64-4.784,11.072-7.92,15.424c-1.056,1.536-2.368,2.656-3.664,3.872
		c0.656-19.152,3.024-38.288,7.12-57.168c0.192-0.288,0.384-0.576,0.56-0.88c3.056-4.64,6.448-8.72,10.672-10.784
		c4.16-2.192,9.376-1.776,13.792-3.216c4.4-1.472,8.08-4.496,11.696-7.808c3.552-3.456,6.976-7.2,9.872-12.8
		c-0.176-0.592-0.4-1.216-0.592-1.84c-5.312-1.552-9.968-0.992-14.496,0.064c-4.48,1.216-8.832,2.992-12.528,6.608
		c-3.68,3.712-6.544,9.472-10.256,12.816c-1.616,1.536-3.408,2.576-5.232,3.52c4.976-18.752,11.68-37.184,20.144-55.04
		c0.16,0.208,0.336,0.416,0.496,0.64c0.72-0.736,1.456-1.472,2.176-2.208c3.744-3.744,7.664-6.864,11.936-7.792
		c4.208-1.088,8.88,0.576,13.168,0.272c4.304-0.368,8.288-2.432,12.256-4.88c3.968-2.576,7.872-5.488,11.712-10.384
		c-0.048-0.656-0.112-1.328-0.16-2c-4.464-2.752-8.8-3.296-13.152-3.312c-4.32,0.128-8.656,0.832-12.8,3.52
		c-4.128,2.768-7.952,7.696-12.048,10.064c-2,1.232-4.096,1.968-6.208,2.416c0.064-0.416,0.08-0.816,0.16-1.216
		c13.712-25.424,31.12-49.488,52.288-71.376c-20.048,19.376-37.12,40.752-51.168,63.536c0.032-0.72,0.32-1.488,0.32-2.16
		c0.336-4.896,0.56-9.744,0.112-14.352C85.2,60.864,82.752,52.16,76.064,44.832c-0.72,0.272-1.424,0.528-2.144,0.8
		c-7.088,12.448-8.928,23.344-8.976,33.28c0.288,4.848,1.424,9.296,2.88,13.552c1.2,4.384,3.392,8.272,6.08,11.872
		c0.384,0.512,0.768,1.024,1.152,1.536c-8.032,15.328-14.8,31.184-20.272,47.424c-0.032-0.16-0.016-0.352-0.064-0.512
		c-0.944-5.136-2.016-10.224-3.632-14.912c-3.776-9.072-8.352-17.696-16.688-24.112c-0.64,0.4-1.28,0.816-1.904,1.216
		c-3.824,14.304-2.896,26-0.352,36.32c1.52,4.992,3.792,9.392,6.368,13.52c2.336,4.336,5.52,7.92,9.152,11.136
		c0.112,0.096,0.208,0.176,0.304,0.272c-4.144,16.096-7.072,32.48-8.752,48.992c-2.224-4.848-4.464-9.664-7.168-14
		c-6.096-8.64-12.848-16.752-22.752-21.936c-0.528,0.528-1.056,1.072-1.584,1.6c-0.24,15.488,3.664,27.392,8.864,37.552
		c2.816,4.864,6.24,8.96,9.904,12.72c3.2,3.68,7.072,6.48,11.168,8.944C37.216,266.4,38,282.752,39.984,299.008
		c-3.296-4.208-6.592-8.448-10.208-12.128c-8.4-7.696-17.264-14.768-28.576-18.384c-0.4,0.64-0.8,1.28-1.2,1.92
		c3.632,15.92,10.592,27.392,18.496,36.784c4.112,4.432,8.672,7.984,13.376,11.104c3.776,2.8,7.984,4.608,12.256,6.256
		c3.216,15.872,7.6,31.584,13.184,46.992c-4.256-3.392-8.448-6.864-12.848-9.728c-10.608-6.224-21.488-11.776-33.968-13.44
		c-0.256,0.72-0.512,1.44-0.752,2.16c7.712,15.536,17.792,25.888,28.368,33.872c5.376,3.712,10.992,6.4,16.688,8.656
		c4.128,1.872,8.448,2.688,12.768,3.504c6.784,14.816,14.752,29.264,23.872,43.2c-5.04-2.416-10.064-4.944-15.088-6.864
		c-12.656-4.16-25.36-7.728-38.736-7.152c-0.08,0.768-0.16,1.552-0.24,2.32c11.952,14.288,25.12,22.768,38.256,28.72
		c6.592,2.672,13.184,4.272,19.728,5.36c4.304,0.928,8.528,0.8,12.752,0.832c7.072,9.008,14.704,17.76,22.864,26.192
		c4.304-4.304,8.592-8.608,12.896-12.896c-9.36-9.056-18.064-18.544-26.096-28.432C117.296,444.608,117.168,441.472,117.616,438.48z
		"/>
	<path style="fill:#4B9FD8;" d="M467.52,361.792c-4.4,2.864-8.608,6.336-12.848,9.728c5.584-15.408,9.968-31.12,13.184-46.992
		c4.272-1.632,8.48-3.44,12.256-6.256c4.704-3.12,9.264-6.672,13.376-11.104c7.904-9.392,14.88-20.864,18.496-36.784
		c-0.4-0.64-0.8-1.28-1.2-1.92c-11.296,3.616-20.176,10.688-28.576,18.384c-3.616,3.68-6.912,7.92-10.208,12.128
		c1.984-16.256,2.768-32.608,2.336-48.912c4.096-2.464,7.968-5.264,11.168-8.944c3.648-3.76,7.088-7.856,9.904-12.72
		c5.2-10.16,9.104-22.048,8.864-37.552c-0.528-0.528-1.056-1.072-1.584-1.6c-9.904,5.184-16.656,13.296-22.752,21.936
		c-2.704,4.336-4.944,9.152-7.168,14c-1.68-16.512-4.592-32.896-8.752-48.992c0.112-0.096,0.208-0.176,0.32-0.272
		c3.632-3.2,6.816-6.8,9.152-11.136c2.576-4.144,4.848-8.544,6.368-13.52c2.544-10.32,3.456-22.016-0.352-36.32
		c-0.64-0.416-1.264-0.816-1.904-1.216c-8.336,6.432-12.928,15.04-16.688,24.128c-1.616,4.688-2.688,9.776-3.648,14.912
		c-0.032,0.16-0.016,0.352-0.048,0.512c-5.472-16.24-12.24-32.096-20.288-47.424c0.384-0.512,0.768-1.024,1.152-1.536
		c2.688-3.6,4.896-7.472,6.08-11.872c1.472-4.256,2.592-8.704,2.88-13.552c-0.032-9.936-1.872-20.832-8.96-33.28
		c-0.72-0.272-1.44-0.528-2.16-0.8c-6.688,7.312-9.136,16.032-10.592,25.008c-0.448,4.608-0.224,9.456,0.112,14.352
		c0,0.656,0.288,1.44,0.336,2.128c-14.064-22.784-31.12-44.144-51.168-63.536c21.168,21.904,38.576,45.952,52.288,71.376
		c0.064,0.416,0.096,0.8,0.16,1.216c-2.128-0.448-4.208-1.184-6.224-2.416c-4.096-2.352-7.904-7.296-12.048-10.064
		c-4.144-2.688-8.464-3.392-12.8-3.52c-4.368,0.08-8.704,0.624-13.168,3.376c-0.048,0.672-0.112,1.344-0.16,2.016
		c3.84,4.896,7.744,7.808,11.712,10.384c3.968,2.432,7.952,4.512,12.256,4.88c4.288,0.304,8.944-1.36,13.184-0.288
		c4.272,0.944,8.176,4.064,11.936,7.792c0.736,0.736,1.456,1.456,2.176,2.208c0.16-0.208,0.32-0.432,0.496-0.64
		c8.464,17.856,15.168,36.288,20.144,55.04c-1.84-0.96-3.632-1.984-5.232-3.52c-3.712-3.344-6.592-9.104-10.272-12.816
		c-3.68-3.632-8.032-5.408-12.528-6.608c-4.528-1.072-9.184-1.616-14.48-0.064c-0.208,0.624-0.416,1.248-0.624,1.872
		c2.896,5.6,6.32,9.344,9.872,12.8c3.616,3.328,7.296,6.336,11.696,7.808c4.416,1.44,9.632,1.024,13.792,3.216
		c4.224,2.064,7.616,6.144,10.672,10.784c0.192,0.288,0.384,0.576,0.576,0.88c4.096,18.88,6.464,38.032,7.12,57.168
		c-1.296-1.232-2.608-2.336-3.664-3.872c-3.136-4.352-4.896-10.784-7.92-15.424c-3.056-4.576-7.168-7.44-11.552-9.808
		c-4.448-2.24-9.168-3.968-14.944-3.84c-0.336,0.544-0.688,1.104-1.024,1.648c1.856,6.192,4.64,10.72,7.6,15.056
		c3.056,4.192,6.24,8.176,10.448,10.816c4.256,2.592,9.664,3.648,13.488,6.976c3.376,2.768,5.744,6.976,7.728,11.616
		c-0.112,19.616-2.032,39.2-5.712,58.448c-0.768-1.264-1.632-2.368-2.224-3.792c-2.272-5.28-2.752-12.256-4.896-17.744
		c-2.192-5.408-5.792-9.44-9.76-12.96c-4.08-3.456-8.544-6.4-14.432-7.808c-0.448,0.464-0.896,0.912-1.36,1.376
		c0.704,6.64,2.672,11.92,4.832,17.056c2.272,5.04,4.72,9.888,8.448,13.712c3.76,3.76,9.008,6.352,12.176,10.784
		c2.32,3.072,3.696,7.008,4.72,11.216c-4.496,19.456-10.816,38.544-18.944,56.96c-0.288-1.12-0.816-2.128-1.008-3.312
		c-1.104-6.064-0.112-13.392-1.088-19.6c-1.04-6.16-3.824-11.216-7.072-15.888c-3.376-4.608-7.232-8.784-12.864-11.744
		c-0.544,0.352-1.072,0.688-1.616,1.04c-0.56,6.944,0.32,12.848,1.456,18.672c1.248,5.76,2.672,11.392,5.568,16.336
		c2.928,4.896,7.568,8.96,9.744,14.4c1.328,3.12,1.904,6.656,2.144,10.368c-8.944,18.432-19.744,36.16-32.384,52.864
		c0-0.848-0.192-1.664-0.128-2.528c0.4-6.672,3.136-14.08,3.584-20.816c0.4-6.704-1.2-12.688-3.36-18.368
		c-2.304-5.648-5.216-10.96-10.128-15.456c-0.608,0.224-1.216,0.448-1.808,0.672c-2.032,7.056-2.432,13.408-2.624,19.76
		c-0.08,6.32,0.048,12.576,1.712,18.48c1.728,5.872,5.296,11.328,6.08,17.6c0.448,2.976,0.32,6.112-0.112,9.344
		c-8.032,9.888-16.736,19.376-26.096,28.432c4.304,4.304,8.608,8.592,12.896,12.896c8.16-8.432,15.776-17.184,22.848-26.192
		c4.24-0.032,8.448,0.096,12.752-0.832c6.544-1.104,13.136-2.688,19.728-5.36c13.136-5.968,26.304-14.432,38.256-28.72
		c-0.08-0.768-0.16-1.552-0.24-2.32c-13.376-0.576-26.08,2.992-38.736,7.152c-5.024,1.92-10.048,4.464-15.088,6.864
		c9.12-13.936,17.072-28.384,23.872-43.2c4.32-0.816,8.64-1.632,12.768-3.504c5.68-2.24,11.312-4.944,16.688-8.656
		c10.576-7.984,20.656-18.336,28.368-33.872c-0.24-0.72-0.496-1.44-0.752-2.16C489.008,350.016,478.128,355.568,467.52,361.792z"/>
</g>
<path style="fill:#FFD684;" d="M161.36,325.936h189.248c31.904-26.96,52.256-67.2,52.256-112.16
	c0-80.992-65.888-146.88-146.88-146.88s-146.88,65.888-146.88,146.88C109.104,258.72,129.456,298.96,161.36,325.936z"/>
<path style="fill:#FFCC5B;" d="M195.616,325.936h120.752c39.872-21.552,67.04-63.728,67.04-112.16
	c0-70.256-57.152-127.408-127.408-127.408S128.592,143.52,128.592,213.776C128.576,262.192,155.728,304.384,195.616,325.936z"/>
<path style="fill:#F3BA51;" d="M237.52,228.72h82.656c6.384,0,11.696,5.296,11.696,11.696l-0.144,0.816v0.144
	c0.144,6.8-5.44,12.368-12.24,12.368h-57.232c-7.616,0-14.272,5.568-14.816,13.184c-0.272,8.016,5.984,14.672,14,14.672h60.64
	c6.8,0,11.696,5.584,11.696,12.368c0,0,0,0,0,0.144s0,0.144,0,0.144c0,6.656-4.896,12.368-11.696,12.368h-48.8
	c-7.472,0-14.144,5.568-14.544,13.056c-0.112,2.256,0.384,4.336,1.216,6.256h56.032c40.048-21.488,67.424-63.616,67.424-112.16
	c0-55.984-36.336-103.536-86.624-120.592h-33.44c-7.616,0-14.272,5.568-14.688,13.056c-0.416,8.016,5.984,14.688,13.872,14.688
	h49.216c8.016,0,14.416,6.672,14,14.688c-0.4,7.456-7.2,13.168-14.672,13.168h-46.496c-7.472,0.144-13.456,6.256-13.456,13.872
	s6.256,13.872,13.872,13.872h59.824c6.528,0,11.824,5.296,11.696,11.696v1.088c0.416,6.256-4.624,11.696-11.008,11.696h-87.152
	c-7.616,0-14.272,5.568-14.816,13.056C223.248,222.064,229.504,228.72,237.52,228.72z"/>
<path style="fill:#FFFFFF;" d="M336.064,174.016c4.752-3.44,2.304-10.96-3.552-10.96h-49.648c-2.624,0-4.944-1.68-5.76-4.176
	l-15.36-47.216c-1.808-5.584-9.712-5.584-11.52,0l-15.344,47.232c-0.816,2.496-3.136,4.176-5.76,4.176h-49.648
	c-5.872,0-8.304,7.504-3.552,10.96l40.176,29.184c2.128,1.552,3.008,4.272,2.192,6.768l-15.344,47.232
	c-1.808,5.584,4.576,10.208,9.312,6.768l40.176-29.184c2.128-1.536,4.992-1.536,7.12,0l40.176,29.184
	c4.752,3.44,11.136-1.184,9.312-6.768l-15.344-47.232c-0.816-2.496,0.08-5.232,2.192-6.768L336.064,174.016z"/>
<g>
	<path style="fill:#E95454;" d="M214.16,370.784c-33.632,11.328-71.424,11.328-105.056,0c6.528-8.864,13.216-18.16,20-27.872
		c-6.784-12.416-13.472-25.248-20-38.512c33.632,11.328,71.424,11.328,105.056,0C214.16,326.528,214.16,348.656,214.16,370.784z"/>
	<path style="fill:#E95454;" d="M297.808,370.784c33.632,11.328,71.424,11.328,105.056,0c-6.528-8.864-13.216-18.16-20-27.872
		c6.784-12.416,13.472-25.248,20-38.512c-33.632,11.328-71.424,11.328-105.056,0C297.808,326.528,297.808,348.656,297.808,370.784z"
		/>
</g>
<g>
	<polygon style="fill:#CD494C;" points="161.632,358.48 214.16,370.784 214.16,346.128 161.632,346.96 	"/>
	<polygon style="fill:#CD494C;" points="297.808,370.784 350.336,358.48 338.08,333.904 297.808,346.128 	"/>
</g>
<path style="fill:#ED6362;" d="M350.336,358.48c-60.416-20.352-128.288-20.352-188.688,0c0-22.128,0-44.256,0-66.368
	c60.416-20.352,128.288-20.352,188.688,0C350.336,314.24,350.336,336.368,350.336,358.48z"/>
<g>
</g>
<g>
</g>
<g>
</g>
<g>
</g>
<g>
</g>
<g>
</g>
<g>
</g>
<g>
</g>
<g>
</g>
<g>
</g>
<g>
</g>
<g>
</g>
<g>
</g>
<g>
</g>
<g>
</g>
</svg>
