<?xml version="1.0" encoding="utf-8"?>
<!-- Generator: Adobe Illustrator 22.0.0, SVG Export Plug-In . SVG Version: 6.00 Build 0)  -->
<svg version="1.1" id="Layer_1_1_" xmlns="http://www.w3.org/2000/svg" xmlns:xlink="http://www.w3.org/1999/xlink" x="0px" y="0px"
	 viewBox="0 0 64 64" style="enable-background:new 0 0 64 64;" xml:space="preserve">
<style type="text/css">
	.st0{fill:#03A9F4;}
	.st1{fill:#FFFFFF;}
	.st2{fill:#FCFCFC;}
	.st3{fill:#3F3A34;}
	.st4{fill:#3A3735;}
</style>
<g>
	<rect x="9" y="20" class="st0" width="46" height="31"/>
	<g>
		<rect x="35" y="31" class="st1" width="2" height="14"/>
	</g>
	<g>
		<rect x="27" y="31" class="st1" width="2" height="14"/>
	</g>
	<g>
		<path class="st1" d="M47,39h-4c-1.7,0-3-1.3-3-3v-6h2v6c0,0.6,0.4,1,1,1h4V39z"/>
	</g>
	<g>
		<path class="st1" d="M21,39h-4v-2h4c0.6,0,1-0.4,1-1v-6h2v6C24,37.7,22.7,39,21,39z"/>
	</g>
	<g>
		<rect x="35" y="47" class="st1" width="2" height="2"/>
	</g>
	<g>
		<rect x="27" y="47" class="st1" width="2" height="2"/>
	</g>
	<g>
		<rect x="49" y="37" class="st1" width="2" height="2"/>
	</g>
	<g>
		<rect x="13" y="37" class="st1" width="2" height="2"/>
	</g>
	<g>
		<path class="st2" d="M46,14c0-1.5-0.8-2.8-2-3.5l-0.3,0c0.2-0.5,0.3-1,0.3-1.5c0-2.2-1.8-4-4-4h-0.1c-0.4-1.7-2-3-3.9-3
			s-3.4,1.3-3.9,3h-0.3c-0.4-1.7-2-3-3.9-3s-3.4,1.3-3.9,3H24c-2.2,0-4,1.8-4,4c0,0.5,0.1,1.1,0.3,1.5l-0.3,0c-1.2,0.7-2,2-2,3.5
			c0,1.6,1,3,2.3,3.6C20.1,18,20,18.5,20,19c0,1.3,0.8,2.4,2,2.8l0.3-0.4c-0.2,0.5-0.3,1-0.3,1.6c0,2.8,2.2,5,5,5s5-2.2,5-5
			c0,2.8,2.2,5,5,5s5-2.2,5-5c0-0.4-0.1-0.8-0.2-1.2l0.2,0c1.2-0.4,2-1.5,2-2.8c0-0.5-0.1-1-0.3-1.4C45,17,46,15.6,46,14z"/>
	</g>
	<g>
		<path class="st3" d="M43,53v2h18v3c0,1.7-1.3,3-3,3H6c-1.7,0-3-1.3-3-3v-3h18v-2H1v5c0,2.8,2.2,5,5,5h52c2.8,0,5-2.2,5-5v-5H43z"
			/>
		<path class="st0" d="M23,56c0,1.7,1.3,3,3,3h12c1.7,0,3-1.3,3-3v-3H23V56z"/>
		<path class="st3" d="M5,19c0-1.7,1.3-3,3-3h7v-2H8c-2.8,0-5,2.2-5,5v32h2V19z"/>
		<path class="st3" d="M59,19v32h2V19c0-2.8-2.2-5-5-5h-7v2h7C57.7,16,59,17.3,59,19z"/>
		<path class="st3" d="M7,20v31h2V20h8v-2H9C7.9,18,7,18.9,7,20z"/>
		<path class="st3" d="M57,51V20c0-1.1-0.9-2-2-2h-8v2h8v31H57z"/>
		<path class="st4" d="M19.1,18.1C19,18.4,19,18.7,19,19c0,1.5,0.8,2.8,2,3.5c0,0.2,0,0.3,0,0.5c0,3.3,2.7,6,6,6
			c2.1,0,3.9-1.1,5-2.7c1.1,1.6,2.9,2.7,5,2.7c3.3,0,6-2.7,6-6c0-0.2,0-0.4,0-0.5c1.2-0.7,2-2,2-3.5c0-0.3,0-0.6-0.1-0.9
			c1.3-0.9,2.1-2.4,2.1-4.1c0-1.6-0.8-3.1-2.1-4.1C45,9.6,45,9.3,45,9c0-2.5-1.9-4.6-4.4-4.9C39.8,2.3,38.1,1,36,1
			c-1.6,0-3.1,0.8-4,2c-0.9-1.2-2.4-2-4-2c-2.1,0-3.8,1.3-4.6,3.1C20.9,4.4,19,6.5,19,9c0,0.3,0,0.6,0.1,0.9
			C17.8,10.9,17,12.4,17,14C17,15.6,17.8,17.1,19.1,18.1z M36,3c1.7,0,3,1.3,3,3s-1.3,3-3,3v2c2.7,0,4.9-2.1,5-4.8
			c1.2,0.4,2,1.5,2,2.8c0,1.7-1.3,3-3,3v2c1.7,0,3.2-0.9,4.1-2.1c0.6,0.6,0.9,1.3,0.9,2.1c0,1.2-0.7,2.2-1.8,2.7l-1,0.4l0.5,0.9
			c0.2,0.3,0.2,0.6,0.2,0.9c0,0.5-0.2,1-0.6,1.4c-1-2-3-3.4-5.4-3.4v2c2.2,0,4,1.8,4,4s-1.8,4-4,4s-4-1.8-4-4V6C33,4.3,34.3,3,36,3z
			 M19.9,11.9c0.9,1.3,2.4,2.1,4.1,2.1v-2c-1.7,0-3-1.3-3-3c0-1.3,0.8-2.4,2-2.8c0.1,2.7,2.3,4.8,5,4.8V9c-1.7,0-3-1.3-3-3
			s1.3-3,3-3s3,1.3,3,3v17c0,2.2-1.8,4-4,4s-4-1.8-4-4s1.8-4,4-4v-2c-2.4,0-4.4,1.4-5.4,3.4C21.2,20,21,19.5,21,19
			c0-0.3,0.1-0.6,0.2-0.9l0.5-0.9l-1-0.4C19.7,16.2,19,15.2,19,14C19,13.2,19.3,12.4,19.9,11.9z"/>
		<rect x="5" y="57" class="st3" width="2" height="2"/>
		<rect x="9" y="57" class="st3" width="2" height="2"/>
		<rect x="13" y="57" class="st3" width="2" height="2"/>
	</g>
</g>
</svg>
