<?xml version="1.0" encoding="utf-8"?>
<!-- Generator: Adobe Illustrator 22.0.0, SVG Export Plug-In . SVG Version: 6.00 Build 0)  -->
<svg version="1.1" id="Capa_1" xmlns="http://www.w3.org/2000/svg" xmlns:xlink="http://www.w3.org/1999/xlink" x="0px" y="0px"
	 viewBox="0 0 860.8 540.3" style="enable-background:new 0 0 860.8 540.3;" xml:space="preserve">
<style type="text/css">
	.st0{fill:#ED6362;}
	.st1{fill:#E95454;}
	.st2{fill:#F89E62;}
	.st3{fill:#FAAB74;}
	.st4{fill:#787878;}
	.st5{fill:#6F7070;}
	.st6{fill:#FFFFFF;}
	.st7{font-family:'ArialMT';}
	.st8{font-size:42px;}
	.st9{fill:#BDC3C7;}
	.st10{fill:#7F8C8D;}
	.st11{fill:#ECF0F1;}
	.st12{fill:#E67E22;}
	.st13{fill:#D35400;}
	.st14{fill:#FFDB70;}
	.st15{fill:#FDBC4B;}
	.st16{fill:#FFCC5B;}
	.st17{fill:#636464;}
	.st18{opacity:0.1;fill:#010101;enable-background:new    ;}
</style>
<g>
	<rect x="307.1" y="259.4" class="st0" width="170.7" height="280.8"/>
	<path class="st1" d="M477.7,259.4h-94.6c-7.7,0-14.5,6.5-14.9,15.2c-0.4,9.3,6.1,17.1,14,17.1h9.9c8.1,0,14.6,7.8,14.2,17.1
		c-0.4,8.7-7.3,15.4-14.9,15.4h-15.1c-7.6,0.2-13.6,7.3-13.6,16.1s6.3,16.1,14,16.1h28.6c6.6,0,12,6.2,11.9,13.6v1.3
		c0.4,7.3-4.7,13.6-11.2,13.6h-32.3c-7.7,0-14.5,6.5-15,15.2c-0.3,9.3,6.1,17.1,14.2,17.1h27.8c6.5,0,11.9,6.2,11.9,13.6l-0.1,1v0.2
		c0.1,7.9-5.5,14.4-12.4,14.4h-26c-7.7,0-14.5,6.5-15,15.4c-0.3,9.3,6.1,17.1,14.2,17.1h29.5c6.9,0,11.9,6.5,11.9,14.4
		c0,0,0,0,0,0.2s0,0.2,0,0.2c0,7.8-5,14.4-11.9,14.4h-17.5c-7.6,0-14.3,6.5-14.7,15.2c-0.4,9.4,6,17,14,17h169.2V259.4H477.7z"/>
</g>
<g>
	<rect x="553.7" y="404.6" class="st2" width="170.7" height="135.6"/>
	<path class="st3" d="M630.9,404.6c-7.6,0-14.3,5.6-14.7,13.1c-0.4,8,6,14.7,13.9,14.7h9.8c8,0,14.4,6.7,14,14.7
		c-0.4,7.5-7.2,13.2-14.7,13.2h-14.9c-7.5,0.1-13.5,6.3-13.5,13.9S617,488,624.7,488h28.3c6.5,0,11.8,5.3,11.7,11.7v1.1
		c0.4,6.3-4.6,11.7-11,11.7h-31.9c-7.6,0-14.3,5.6-14.8,13.1c-0.3,8,6,14.7,14,14.7h179.5V404.6H630.9z"/>
</g>
<g>
	<rect x="60.4" y="349.3" class="st4" width="246.7" height="191"/>
	<path class="st5" d="M141.1,349.3c-9.4,0-17.6,7.9-18.1,18.4c-0.5,11.3,7.4,20.7,17.1,20.7h12c9.9,0,17.8,9.4,17.2,20.7
		c-0.5,10.5-8.9,18.6-18.1,18.6h-18.4c-9.2,0.2-16.6,8.8-16.6,19.5c0,10.7,7.7,19.5,17.1,19.5h34.8c8,0,14.6,7.5,14.4,16.5v1.5
		c0.5,8.8-5.7,16.5-13.6,16.5h-39.3c-9.4,0-17.6,7.9-18.3,18.4c-0.3,11.3,7.4,20.7,17.3,20.7h178.4v-191H141.1z"/>
</g>
<text transform="matrix(1 0 0 1 125.7334 433.9386)"><tspan x="0" y="0" class="st6 st7 st8">João e </tspan><tspan x="18.7" y="50.4" class="st6 st7 st8">José</tspan></text>
<text transform="matrix(1 0 0 1 601.6077 462.6285)"><tspan x="0" y="0" class="st6 st7 st8">Pedro e </tspan><tspan x="4.7" y="50.4" class="st6 st7 st8">Mateus</tspan></text>
<text transform="matrix(1 0 0 1 360.3138 384.7393)"><tspan x="0" y="0" class="st6 st7 st8">Andre e </tspan><tspan x="36.2" y="50.4" class="st6 st7 st8">Ana</tspan></text>
<g>
	<polygon class="st1" points="166.6,276.7 144.5,318.5 164.6,316.6 174.3,334.3 196.5,292.6 	"/>
	<g>
		<path class="st0" d="M169.2,322.2c0.6-1.3,0-2.9-1.3-3.6l-1.3-0.7c-1.3-0.7-1.8-2.3-1.1-3.6c0.7-1.3,2.4-1.8,3.7-1.1l3.6,1.9
			c1.1,0.6,2.5,0.2,3.1-1l0.1-0.2c0.7-1.1,0.3-2.5-0.8-3l-10.8-5.7c-1.3-0.7-2-2.3-1.3-3.6c0.7-1.4,2.4-2,3.8-1.3l10,5.3
			c1.1,0.6,2.5,0.2,3.1-1l0.1-0.1l0,0c0.6-1.2,0.2-2.6-1-3.3l-5.6-3c-1.3-0.7-2-2.3-1.3-3.6c0.7-1.4,2.4-2,3.8-1.3l6.2,3.3
			c1.2,0.6,2.5,0.1,3.1-1.1c0,0,0,0,0,0c0,0,0,0,0,0c0.6-1.2,0.3-2.6-0.9-3.2l-6.7-3.5c-1.3-0.7-1.9-2.3-1.3-3.6
			c0.7-1.4,2.4-2,3.8-1.3l16.5,8.8l-22.2,41.8l-6.1-11.1C168.6,323,169,322.6,169.2,322.2z"/>
		<polygon class="st0" points="208.1,276.7 230.3,318.5 210.1,316.6 200.4,334.3 178.2,292.6 		"/>
	</g>
	<path class="st1" d="M205.6,322.2c-0.6-1.3,0-2.9,1.3-3.6l1.3-0.7c1.3-0.7,1.8-2.3,1.1-3.6c-0.7-1.3-2.4-1.8-3.7-1.1l-3.6,1.9
		c-1.1,0.6-2.5,0.2-3.1-1l-0.1-0.2c-0.7-1.1-0.3-2.5,0.8-3l10.8-5.7c1.3-0.7,2-2.3,1.3-3.6c-0.7-1.4-2.4-2-3.8-1.3l-10,5.3
		c-1.1,0.6-2.5,0.2-3.1-1l-0.1-0.1l0,0c-0.6-1.2-0.2-2.6,1-3.3l5.6-3c1.3-0.7,2-2.3,1.3-3.6c-0.7-1.4-2.4-2-3.8-1.3l-6.2,3.3
		c-1.2,0.6-2.5,0.1-3.1-1.1c0,0,0,0,0,0c0,0,0,0,0,0c-0.6-1.2-0.3-2.6,0.9-3.2l6.7-3.5c1.3-0.7,1.9-2.3,1.3-3.6
		c-0.7-1.4-2.4-2-3.8-1.3l-16.5,8.8l22.2,41.8l6.1-11.1C206.1,323,205.8,322.6,205.6,322.2z"/>
	<circle class="st9" cx="187.4" cy="269.9" r="37"/>
	<path class="st10" d="M192.4,265.6h-23.5c-1.8,0-3.3-1.5-3.3-3.3l0-0.2V262c0-1.9,1.5-3.5,3.5-3.5h16.3c2.2,0,4.1-1.6,4.2-3.8
		c0.1-2.3-1.7-4.2-4-4.2h-17.2c-1.9,0-3.3-1.6-3.3-3.5c0,0,0,0,0-0.1c0,0,0,0,0-0.1c0-1.9,1.4-3.5,3.3-3.5h18c2.1,0,4-1.6,4.2-3.7
		c0.1-2.3-1.7-4.2-4-4.2h-13.2c-13.5,5.5-23,18.8-23,34.3s9.5,28.7,23,34.2h16.8c2.1,0,4-1.6,4.2-3.7c0.1-2.3-1.7-4.2-4-4.2l-19.1,0
		c-2.2,0-4.1-1.9-3.9-4.2c0.1-2.1,2-3.7,4.2-3.7h7.4c2.1-0.1,3.8-1.8,3.8-3.9c0-2.2-1.8-4-4-4h-11.2c-1.8,0-3.3-1.5-3.3-3.3v-0.3
		c-0.1-1.8,1.3-3.3,3.1-3.3h24.8c2.2,0,4.1-1.6,4.2-3.7C196.5,267.5,194.7,265.6,192.4,265.6z"/>
	<path class="st11" d="M187.4,296.3c-14.6,0-26.4-11.9-26.4-26.4s11.9-26.4,26.4-26.4s26.4,11.9,26.4,26.4
		C213.8,284.4,201.9,296.3,187.4,296.3z"/>
	<g>
		<path class="st0" d="M174.6,280.3c-0.4,0.4-0.7,0.8-0.9,1.3c-0.2,0.5-0.3,1-0.3,1.5c0,0.6,0.3,1.2,0.3,1.8c0,0.1,0,0.1,0,0.2
			c-1.1-1.4-2-2.9-2.7-4.5c0-0.3,0.1-0.6,0.2-0.9c0.2-0.5,0.6-0.8,0.8-1.2c0.2-0.4,0.4-0.9,0.5-1.4c0.1-0.5,0.2-1,0.1-1.6
			c0,0-0.1-0.1-0.1-0.1c-0.5,0.3-0.8,0.6-1.1,1c-0.3,0.4-0.5,0.8-0.6,1.3c-0.1,0.5,0,1.1-0.1,1.7c0,0.1-0.1,0.2-0.1,0.3
			c-0.7-1.6-1.2-3.2-1.6-4.8c0.1-0.4,0.2-0.7,0.4-0.9c0.3-0.4,0.7-0.6,1-0.9c0.3-0.3,0.5-0.7,0.7-1.2c0.2-0.4,0.3-0.9,0.4-1.4
			c0,0-0.1-0.1-0.1-0.1c-0.5,0.1-0.9,0.4-1.2,0.7c-0.3,0.3-0.6,0.6-0.8,1.1c-0.2,0.5-0.2,1.1-0.4,1.5c0,0.1-0.1,0.2-0.2,0.3
			c-0.3-1.6-0.5-3.3-0.5-4.9c0.2-0.4,0.4-0.7,0.7-1c0.3-0.3,0.8-0.4,1.1-0.6c0.4-0.2,0.6-0.6,0.9-0.9c0.3-0.4,0.5-0.7,0.6-1.3
			c0,0-0.1-0.1-0.1-0.1c-0.5,0-0.9,0.1-1.3,0.3c-0.4,0.2-0.7,0.4-1,0.8c-0.3,0.4-0.4,0.9-0.7,1.3c-0.1,0.1-0.2,0.2-0.3,0.3
			c0.1-1.6,0.3-3.2,0.6-4.8c0,0,0,0,0-0.1c0.3-0.4,0.5-0.7,0.9-0.9c0.4-0.2,0.8-0.1,1.2-0.3c0.4-0.1,0.7-0.4,1-0.7
			c0.3-0.3,0.6-0.6,0.8-1.1c0-0.1,0-0.1-0.1-0.2c-0.4-0.1-0.8-0.1-1.2,0c-0.4,0.1-0.7,0.3-1.1,0.6c-0.3,0.3-0.6,0.8-0.9,1.1
			c-0.1,0.1-0.3,0.2-0.4,0.3c0.4-1.6,1-3.1,1.7-4.6c0,0,0,0,0,0.1c0.1-0.1,0.1-0.1,0.2-0.2c0.3-0.3,0.6-0.6,1-0.7
			c0.4-0.1,0.7,0.1,1.1,0c0.4,0,0.7-0.2,1-0.4c0.3-0.2,0.7-0.5,1-0.9c0-0.1,0-0.1,0-0.2c-0.4-0.2-0.7-0.3-1.1-0.3
			c-0.4,0-0.7,0.1-1.1,0.3c-0.3,0.2-0.7,0.7-1,0.8c-0.2,0.1-0.3,0.2-0.5,0.2c0,0,0-0.1,0-0.1c1.2-2.1,2.6-4.2,4.4-6
			c-1.7,1.6-3.1,3.4-4.3,5.4c0-0.1,0-0.1,0-0.2c0-0.4,0-0.8,0-1.2c-0.1-0.8-0.3-1.5-0.9-2.1c-0.1,0-0.1,0-0.2,0.1
			c-0.6,1.1-0.8,2-0.8,2.8c0,0.4,0.1,0.8,0.2,1.1c0.1,0.4,0.3,0.7,0.5,1c0,0,0.1,0.1,0.1,0.1c-0.7,1.3-1.3,2.6-1.7,4c0,0,0,0,0,0
			c-0.1-0.4-0.2-0.9-0.3-1.2c-0.3-0.8-0.7-1.5-1.4-2c-0.1,0-0.1,0.1-0.2,0.1c-0.3,1.2-0.2,2.2,0,3.1c0.1,0.4,0.3,0.8,0.5,1.1
			c0.2,0.4,0.5,0.7,0.8,0.9c0,0,0,0,0,0c-0.3,1.4-0.6,2.7-0.7,4.1c-0.2-0.4-0.4-0.8-0.6-1.2c-0.5-0.7-1.1-1.4-1.9-1.8
			c0,0-0.1,0.1-0.1,0.1c0,1.3,0.3,2.3,0.7,3.2c0.2,0.4,0.5,0.8,0.8,1.1c0.3,0.3,0.6,0.5,0.9,0.8c0,1.4,0,2.8,0.2,4.1
			c-0.3-0.4-0.6-0.7-0.9-1c-0.7-0.6-1.5-1.2-2.4-1.6c0,0.1-0.1,0.1-0.1,0.2c0.3,1.3,0.9,2.3,1.6,3.1c0.3,0.4,0.7,0.7,1.1,0.9
			c0.3,0.2,0.7,0.4,1,0.5c0.3,1.3,0.6,2.7,1.1,4c-0.4-0.3-0.7-0.6-1.1-0.8c-0.9-0.5-1.8-1-2.9-1.1c0,0.1,0,0.1-0.1,0.2
			c0.7,1.3,1.5,2.2,2.4,2.9c0.5,0.3,0.9,0.5,1.4,0.7c0.3,0.2,0.7,0.2,1.1,0.3c0.6,1.3,1.2,2.5,2,3.6c-0.4-0.2-0.8-0.4-1.3-0.6
			c-1.1-0.3-2.1-0.7-3.3-0.6c0,0.1,0,0.1,0,0.2c1,1.2,2.1,1.9,3.2,2.4c0.6,0.2,1.1,0.4,1.7,0.5c0.4,0.1,0.7,0.1,1.1,0.1
			c0.6,0.8,1.2,1.5,1.9,2.2c0.4-0.4,0.7-0.7,1.1-1.1c-0.8-0.8-1.5-1.6-2.2-2.4c0-0.3,0-0.5,0-0.8c0.1-0.5,0.4-1,0.5-1.5
			c0.1-0.5,0.1-1,0.1-1.6c0-0.5-0.1-1.1-0.2-1.7C174.7,280.4,174.7,280.4,174.6,280.3z"/>
		<path class="st0" d="M200.1,280.3c0.4,0.4,0.7,0.8,0.9,1.3c0.2,0.5,0.3,1,0.3,1.5c0,0.6-0.3,1.2-0.3,1.8c0,0.1,0,0.1,0,0.2
			c1.1-1.4,2-2.9,2.7-4.5c0-0.3-0.1-0.6-0.2-0.9c-0.2-0.5-0.6-0.8-0.8-1.2c-0.2-0.4-0.4-0.9-0.5-1.4c-0.1-0.5-0.2-1-0.1-1.6
			c0,0,0.1-0.1,0.1-0.1c0.5,0.3,0.8,0.6,1.1,1c0.3,0.4,0.5,0.8,0.6,1.3c0.1,0.5,0,1.1,0.1,1.7c0,0.1,0.1,0.2,0.1,0.3
			c0.7-1.6,1.2-3.2,1.6-4.8c-0.1-0.4-0.2-0.7-0.4-0.9c-0.3-0.4-0.7-0.6-1-0.9c-0.3-0.3-0.5-0.7-0.7-1.2c-0.2-0.4-0.3-0.9-0.4-1.4
			c0,0,0.1-0.1,0.1-0.1c0.5,0.1,0.9,0.4,1.2,0.7c0.3,0.3,0.6,0.6,0.8,1.1c0.2,0.5,0.2,1.1,0.4,1.5c0,0.1,0.1,0.2,0.2,0.3
			c0.3-1.6,0.5-3.3,0.5-4.9c-0.2-0.4-0.4-0.7-0.7-1c-0.3-0.3-0.8-0.4-1.1-0.6c-0.4-0.2-0.6-0.6-0.9-0.9c-0.3-0.4-0.5-0.7-0.6-1.3
			c0,0,0.1-0.1,0.1-0.1c0.5,0,0.9,0.1,1.3,0.3c0.4,0.2,0.7,0.4,1,0.8c0.3,0.4,0.4,0.9,0.7,1.3c0.1,0.1,0.2,0.2,0.3,0.3
			c-0.1-1.6-0.3-3.2-0.6-4.8c0,0,0,0,0-0.1c-0.3-0.4-0.5-0.7-0.9-0.9c-0.4-0.2-0.8-0.1-1.2-0.3c-0.4-0.1-0.7-0.4-1-0.7
			c-0.3-0.3-0.6-0.6-0.8-1.1c0-0.1,0-0.1,0.1-0.2c0.4-0.1,0.8-0.1,1.2,0c0.4,0.1,0.7,0.3,1.1,0.6c0.3,0.3,0.6,0.8,0.9,1.1
			c0.1,0.1,0.3,0.2,0.4,0.3c-0.4-1.6-1-3.1-1.7-4.6c0,0,0,0,0,0.1c-0.1-0.1-0.1-0.1-0.2-0.2c-0.3-0.3-0.6-0.6-1-0.7
			c-0.4-0.1-0.7,0.1-1.1,0c-0.4,0-0.7-0.2-1-0.4c-0.3-0.2-0.7-0.5-1-0.9c0-0.1,0-0.1,0-0.2c0.4-0.2,0.7-0.3,1.1-0.3
			c0.4,0,0.7,0.1,1.1,0.3c0.3,0.2,0.7,0.7,1,0.8c0.2,0.1,0.3,0.2,0.5,0.2c0,0,0-0.1,0-0.1c-1.2-2.1-2.6-4.2-4.4-6
			c1.7,1.6,3.1,3.4,4.3,5.4c0-0.1,0-0.1,0-0.2c0-0.4,0-0.8,0-1.2c0.1-0.8,0.3-1.5,0.9-2.1c0.1,0,0.1,0,0.2,0.1
			c0.6,1.1,0.8,2,0.8,2.8c0,0.4-0.1,0.8-0.2,1.1c-0.1,0.4-0.3,0.7-0.5,1c0,0-0.1,0.1-0.1,0.1c0.7,1.3,1.3,2.6,1.7,4c0,0,0,0,0,0
			c0.1-0.4,0.2-0.9,0.3-1.3c0.3-0.8,0.7-1.5,1.4-2c0.1,0,0.1,0.1,0.2,0.1c0.3,1.2,0.2,2.2,0,3.1c-0.1,0.4-0.3,0.8-0.5,1.1
			c-0.2,0.4-0.5,0.7-0.8,0.9c0,0,0,0,0,0c0.3,1.4,0.6,2.7,0.7,4.1c0.2-0.4,0.4-0.8,0.6-1.2c0.5-0.7,1.1-1.4,1.9-1.8
			c0,0,0.1,0.1,0.1,0.1c0,1.3-0.3,2.3-0.7,3.2c-0.2,0.4-0.5,0.8-0.8,1.1c-0.3,0.3-0.6,0.5-0.9,0.8c0,1.4,0,2.8-0.2,4.1
			c0.3-0.4,0.6-0.7,0.9-1c0.7-0.6,1.5-1.2,2.4-1.6c0,0.1,0.1,0.1,0.1,0.2c-0.3,1.3-0.9,2.3-1.6,3.1c-0.3,0.4-0.7,0.7-1.1,0.9
			c-0.3,0.2-0.7,0.4-1,0.5c-0.3,1.3-0.6,2.7-1.1,4c0.4-0.3,0.7-0.6,1.1-0.8c0.9-0.5,1.8-1,2.9-1.1c0,0.1,0,0.1,0.1,0.2
			c-0.7,1.3-1.5,2.2-2.4,2.9c-0.5,0.3-0.9,0.5-1.4,0.7c-0.3,0.2-0.7,0.2-1.1,0.3c-0.6,1.3-1.2,2.5-2,3.6c0.4-0.2,0.8-0.4,1.3-0.6
			c1.1-0.3,2.1-0.7,3.3-0.6c0,0.1,0,0.1,0,0.2c-1,1.2-2.1,1.9-3.2,2.4c-0.6,0.2-1.1,0.4-1.7,0.5c-0.4,0.1-0.7,0.1-1.1,0.1
			c-0.6,0.8-1.2,1.5-1.9,2.2c-0.4-0.4-0.7-0.7-1.1-1.1c0.8-0.8,1.5-1.6,2.2-2.4c0-0.3,0-0.5,0-0.8c-0.1-0.5-0.4-1-0.5-1.5
			c-0.1-0.5-0.1-1-0.1-1.6c0-0.5,0.1-1.1,0.2-1.7C200,280.4,200.1,280.4,200.1,280.3z"/>
	</g>
	<g>
		<path class="st1" d="M197.7,280.2v5.5h-20.9c0.2-2.1,0.9-4.1,2-5.9c1.1-1.9,3.4-4.4,6.7-7.5c2.7-2.5,4.3-4.2,4.9-5.1
			c0.8-1.2,1.2-2.4,1.2-3.6c0-1.3-0.4-2.4-1.1-3.1c-0.7-0.7-1.7-1.1-3-1.1c-1.2,0-2.2,0.4-3,1.1c-0.7,0.7-1.2,2-1.3,3.7l-5.9-0.6
			c0.4-3.3,1.5-5.6,3.3-7.1c1.9-1.4,4.2-2.1,7-2.1c3.1,0,5.5,0.8,7.2,2.5c1.8,1.7,2.6,3.7,2.6,6.2c0,1.4-0.3,2.7-0.8,4
			c-0.5,1.3-1.3,2.6-2.4,4c-0.7,0.9-2,2.2-3.9,4c-1.9,1.7-3.1,2.9-3.6,3.4c-0.5,0.6-0.9,1.1-1.2,1.7H197.7z"/>
	</g>
</g>
<polygon class="st1" points="662.6,341.3 642.6,379 660.8,377.4 669.6,393.4 689.6,355.6 "/>
<g>
	<path class="st0" d="M664.9,382.4c0.6-1.2,0-2.6-1.2-3.3l-1.2-0.6c-1.2-0.7-1.6-2.1-1-3.3c0.6-1.2,2.1-1.7,3.3-1l3.3,1.7
		c1,0.5,2.3,0.1,2.8-0.9l0.1-0.2c0.6-1,0.2-2.2-0.7-2.7l-9.7-5.2c-1.2-0.6-1.8-2.1-1.2-3.3c0.6-1.3,2.2-1.8,3.4-1.1l9,4.8
		c1,0.5,2.3,0.1,2.8-0.9l0.1-0.1l0,0c0.6-1.1,0.2-2.4-0.9-2.9l-5.1-2.7c-1.2-0.6-1.8-2.1-1.2-3.3c0.6-1.3,2.2-1.8,3.4-1.1l5.6,3
		c1,0.6,2.3,0.1,2.8-1c0,0,0,0,0,0c0,0,0,0,0,0c0.6-1,0.3-2.3-0.8-2.9l-6-3.2c-1.2-0.6-1.8-2.1-1.2-3.3c0.6-1.3,2.2-1.8,3.4-1.1
		l14.9,7.9l-20,37.7l-5.5-10C664.4,383.1,664.7,382.8,664.9,382.4z"/>
	<polygon class="st0" points="700.1,341.3 720.1,379 701.9,377.4 693.1,393.4 673.1,355.6 	"/>
</g>
<path class="st1" d="M697.8,382.4c-0.6-1.2,0-2.6,1.2-3.3l1.2-0.6c1.2-0.7,1.6-2.1,1-3.3c-0.6-1.2-2.1-1.7-3.3-1l-3.3,1.7
	c-1,0.5-2.3,0.1-2.8-0.9l-0.1-0.2c-0.6-1-0.2-2.2,0.7-2.7l9.7-5.2c1.2-0.6,1.8-2.1,1.2-3.3c-0.6-1.3-2.2-1.8-3.4-1.1l-9,4.8
	c-1,0.5-2.3,0.1-2.8-0.9l-0.1-0.1l0,0c-0.6-1.1-0.2-2.4,0.9-2.9l5.1-2.7c1.2-0.6,1.8-2.1,1.2-3.3c-0.6-1.3-2.2-1.8-3.4-1.1l-5.6,3
	c-1,0.6-2.3,0.1-2.8-1c0,0,0,0,0,0c0,0,0,0,0,0c-0.6-1-0.3-2.3,0.8-2.9l6-3.2c1.2-0.6,1.8-2.1,1.2-3.3c-0.6-1.3-2.2-1.8-3.4-1.1
	l-14.9,7.9l20,37.7l5.5-10C698.3,383.1,698,382.8,697.8,382.4z"/>
<circle class="st12" cx="681.4" cy="335.1" r="33.5"/>
<path class="st13" d="M685.9,331.3h-21.2c-1.6,0-3-1.4-3-3l0-0.2v0c0-1.7,1.4-3.2,3.1-3.2h14.7c1.9,0,3.7-1.4,3.8-3.4
	c0.1-2-1.5-3.8-3.6-3.8h-15.6c-1.7,0-3-1.4-3-3.2c0,0,0,0,0,0s0,0,0,0c0-1.7,1.3-3.2,3-3.2h16.3c1.9,0,3.6-1.4,3.8-3.4
	c0.1-2.1-1.5-3.8-3.6-3.8h-11.9c-12.2,5-20.7,17-20.7,31s8.6,25.9,20.7,30.9h15.1c1.9,0,3.6-1.4,3.8-3.4c0.1-2.1-1.5-3.8-3.6-3.8
	l-17.2,0c-2,0-3.7-1.7-3.6-3.8c0.1-1.9,1.8-3.4,3.8-3.4h6.7c1.9-0.1,3.5-1.6,3.5-3.6c0-2-1.6-3.6-3.6-3.6h-10.1c-1.6,0-3-1.4-3-3
	v-0.3c-0.1-1.6,1.2-3,2.8-3h22.4c1.9,0,3.7-1.4,3.8-3.4C689.6,333,687.9,331.3,685.9,331.3z"/>
<path class="st14" d="M681.4,359c-13.2,0-23.9-10.7-23.9-23.9s10.7-23.9,23.9-23.9c13.2,0,23.9,10.7,23.9,23.9S694.5,359,681.4,359z
	"/>
<g>
	<path class="st0" d="M669.8,344.6c-0.4,0.3-0.6,0.7-0.8,1.2c-0.2,0.4-0.3,0.9-0.3,1.4c0,0.5,0.2,1.1,0.3,1.6c0,0.1,0,0.1,0,0.2
		c-1-1.3-1.8-2.6-2.5-4c0-0.3,0.1-0.6,0.2-0.8c0.2-0.4,0.5-0.7,0.7-1.1c0.2-0.4,0.3-0.8,0.4-1.2c0.1-0.4,0.2-0.9,0.1-1.4
		c0,0-0.1-0.1-0.1-0.1c-0.4,0.2-0.7,0.5-1,0.9c-0.2,0.4-0.5,0.7-0.5,1.2c-0.1,0.5,0,1-0.1,1.5c0,0.1-0.1,0.2-0.1,0.3
		c-0.6-1.4-1.1-2.9-1.4-4.3c0.1-0.3,0.2-0.6,0.4-0.9c0.2-0.3,0.6-0.5,0.9-0.8c0.3-0.3,0.5-0.7,0.6-1c0.2-0.4,0.3-0.8,0.4-1.3
		c0,0-0.1-0.1-0.1-0.1c-0.4,0.1-0.8,0.3-1.1,0.6c-0.3,0.3-0.6,0.6-0.7,1c-0.2,0.4-0.2,0.9-0.4,1.4c0,0.1-0.1,0.2-0.2,0.3
		c-0.3-1.5-0.4-3-0.4-4.5c0.2-0.4,0.3-0.7,0.6-0.9c0.3-0.3,0.7-0.3,1-0.5c0.3-0.2,0.6-0.5,0.8-0.8c0.2-0.3,0.4-0.7,0.6-1.1
		c0,0-0.1-0.1-0.1-0.1c-0.4,0-0.8,0.1-1.1,0.3c-0.3,0.2-0.6,0.4-0.9,0.7c-0.2,0.4-0.4,0.8-0.6,1.2c-0.1,0.1-0.2,0.2-0.3,0.3
		c0.1-1.5,0.2-2.9,0.5-4.4c0,0,0,0,0-0.1c0.2-0.4,0.5-0.7,0.8-0.8c0.3-0.2,0.7-0.1,1.1-0.2c0.3-0.1,0.6-0.3,0.9-0.6
		c0.3-0.3,0.5-0.5,0.8-1c0,0,0-0.1,0-0.1c-0.4-0.1-0.8-0.1-1.1,0c-0.3,0.1-0.7,0.2-1,0.5c-0.3,0.3-0.5,0.7-0.8,1
		c-0.1,0.1-0.3,0.2-0.4,0.3c0.4-1.4,0.9-2.8,1.5-4.2c0,0,0,0,0,0c0.1-0.1,0.1-0.1,0.2-0.2c0.3-0.3,0.6-0.5,0.9-0.6
		c0.3-0.1,0.7,0,1,0c0.3,0,0.6-0.2,0.9-0.4c0.3-0.2,0.6-0.4,0.9-0.8c0-0.1,0-0.1,0-0.2c-0.3-0.2-0.7-0.3-1-0.3c-0.3,0-0.7,0.1-1,0.3
		c-0.3,0.2-0.6,0.6-0.9,0.8c-0.2,0.1-0.3,0.1-0.5,0.2c0,0,0-0.1,0-0.1c1-1.9,2.4-3.8,4-5.4c-1.5,1.5-2.8,3.1-3.9,4.8
		c0-0.1,0-0.1,0-0.2c0-0.4,0-0.7,0-1.1c-0.1-0.7-0.3-1.3-0.8-1.9c-0.1,0-0.1,0-0.2,0.1c-0.5,0.9-0.7,1.8-0.7,2.5
		c0,0.4,0.1,0.7,0.2,1c0.1,0.3,0.3,0.6,0.5,0.9c0,0,0.1,0.1,0.1,0.1c-0.6,1.2-1.1,2.4-1.5,3.6c0,0,0,0,0,0c-0.1-0.4-0.2-0.8-0.3-1.1
		c-0.3-0.7-0.6-1.3-1.3-1.8c0,0-0.1,0.1-0.1,0.1c-0.3,1.1-0.2,2,0,2.8c0.1,0.4,0.3,0.7,0.5,1c0.2,0.3,0.4,0.6,0.7,0.8c0,0,0,0,0,0
		c-0.3,1.2-0.5,2.5-0.7,3.7c-0.2-0.4-0.3-0.7-0.5-1.1c-0.5-0.7-1-1.3-1.7-1.7c0,0-0.1,0.1-0.1,0.1c0,1.2,0.3,2.1,0.7,2.9
		c0.2,0.4,0.5,0.7,0.8,1c0.2,0.3,0.5,0.5,0.9,0.7c0,1.2,0,2.5,0.2,3.7c-0.3-0.3-0.5-0.6-0.8-0.9c-0.6-0.6-1.3-1.1-2.2-1.4
		c0,0-0.1,0.1-0.1,0.1c0.3,1.2,0.8,2.1,1.4,2.8c0.3,0.3,0.7,0.6,1,0.8c0.3,0.2,0.6,0.4,0.9,0.5c0.2,1.2,0.6,2.4,1,3.6
		c-0.3-0.3-0.6-0.5-1-0.7c-0.8-0.5-1.6-0.9-2.6-1c0,0.1,0,0.1-0.1,0.2c0.6,1.2,1.4,2,2.2,2.6c0.4,0.3,0.8,0.5,1.3,0.7
		c0.3,0.1,0.6,0.2,1,0.3c0.5,1.1,1.1,2.2,1.8,3.3c-0.4-0.2-0.8-0.4-1.1-0.5c-1-0.3-1.9-0.6-3-0.5c0,0.1,0,0.1,0,0.2
		c0.9,1.1,1.9,1.7,2.9,2.2c0.5,0.2,1,0.3,1.5,0.4c0.3,0.1,0.6,0.1,1,0.1c0.5,0.7,1.1,1.4,1.7,2c0.3-0.3,0.7-0.7,1-1
		c-0.7-0.7-1.4-1.4-2-2.2c0-0.2,0-0.5,0-0.7c0.1-0.5,0.3-0.9,0.5-1.3c0.1-0.5,0.1-0.9,0.1-1.4c0-0.5,0-1-0.2-1.5
		C669.9,344.6,669.9,344.6,669.8,344.6z"/>
	<path class="st0" d="M692.9,344.6c0.4,0.3,0.6,0.7,0.8,1.2c0.2,0.4,0.3,0.9,0.3,1.4c0,0.5-0.2,1.1-0.3,1.6c0,0.1,0,0.1,0,0.2
		c1-1.3,1.8-2.6,2.5-4c0-0.3-0.1-0.6-0.2-0.8c-0.2-0.4-0.5-0.7-0.7-1.1c-0.2-0.4-0.3-0.8-0.4-1.2c-0.1-0.4-0.2-0.9-0.1-1.4
		c0,0,0.1-0.1,0.1-0.1c0.4,0.2,0.7,0.5,1,0.9c0.2,0.4,0.5,0.7,0.5,1.2c0.1,0.5,0,1,0.1,1.5c0,0.1,0.1,0.2,0.1,0.3
		c0.6-1.4,1.1-2.9,1.4-4.3c-0.1-0.3-0.2-0.6-0.4-0.9c-0.2-0.3-0.6-0.5-0.9-0.8c-0.3-0.3-0.5-0.7-0.6-1c-0.2-0.4-0.3-0.8-0.4-1.3
		c0,0,0.1-0.1,0.1-0.1c0.4,0.1,0.8,0.3,1.1,0.6c0.3,0.3,0.6,0.6,0.7,1c0.2,0.4,0.2,0.9,0.4,1.4c0,0.1,0.1,0.2,0.2,0.3
		c0.3-1.5,0.4-3,0.4-4.5c-0.2-0.4-0.3-0.7-0.6-0.9c-0.3-0.3-0.7-0.3-1-0.5c-0.3-0.2-0.6-0.5-0.8-0.8c-0.2-0.3-0.4-0.7-0.6-1.1
		c0,0,0.1-0.1,0.1-0.1c0.4,0,0.8,0.1,1.1,0.3c0.3,0.2,0.6,0.4,0.9,0.7c0.2,0.4,0.4,0.8,0.6,1.2c0.1,0.1,0.2,0.2,0.3,0.3
		c-0.1-1.5-0.2-2.9-0.5-4.4c0,0,0,0,0-0.1c-0.2-0.4-0.5-0.7-0.8-0.8c-0.3-0.2-0.7-0.1-1.1-0.2c-0.3-0.1-0.6-0.3-0.9-0.6
		c-0.3-0.3-0.5-0.5-0.8-1c0,0,0-0.1,0-0.1c0.4-0.1,0.8-0.1,1.1,0c0.3,0.1,0.7,0.2,1,0.5c0.3,0.3,0.5,0.7,0.8,1
		c0.1,0.1,0.3,0.2,0.4,0.3c-0.4-1.4-0.9-2.8-1.5-4.2c0,0,0,0,0,0c-0.1-0.1-0.1-0.1-0.2-0.2c-0.3-0.3-0.6-0.5-0.9-0.6
		c-0.3-0.1-0.7,0-1,0c-0.3,0-0.6-0.2-0.9-0.4c-0.3-0.2-0.6-0.4-0.9-0.8c0-0.1,0-0.1,0-0.2c0.3-0.2,0.7-0.3,1-0.3
		c0.3,0,0.7,0.1,1,0.3c0.3,0.2,0.6,0.6,0.9,0.8c0.2,0.1,0.3,0.1,0.5,0.2c0,0,0-0.1,0-0.1c-1-1.9-2.4-3.8-4-5.4
		c1.5,1.5,2.8,3.1,3.9,4.8c0-0.1,0-0.1,0-0.2c0-0.4,0-0.7,0-1.1c0.1-0.7,0.3-1.3,0.8-1.9c0.1,0,0.1,0,0.2,0.1
		c0.5,0.9,0.7,1.8,0.7,2.5c0,0.4-0.1,0.7-0.2,1c-0.1,0.3-0.3,0.6-0.5,0.9c0,0-0.1,0.1-0.1,0.1c0.6,1.2,1.1,2.4,1.5,3.6c0,0,0,0,0,0
		c0.1-0.4,0.2-0.8,0.3-1.1c0.3-0.7,0.6-1.3,1.3-1.8c0,0,0.1,0.1,0.1,0.1c0.3,1.1,0.2,2,0,2.8c-0.1,0.4-0.3,0.7-0.5,1
		c-0.2,0.3-0.4,0.6-0.7,0.8c0,0,0,0,0,0c0.3,1.2,0.5,2.5,0.7,3.7c0.2-0.4,0.3-0.7,0.5-1.1c0.5-0.7,1-1.3,1.7-1.7
		c0,0,0.1,0.1,0.1,0.1c0,1.2-0.3,2.1-0.7,2.9c-0.2,0.4-0.5,0.7-0.8,1c-0.2,0.3-0.5,0.5-0.9,0.7c0,1.2,0,2.5-0.2,3.7
		c0.3-0.3,0.5-0.6,0.8-0.9c0.6-0.6,1.3-1.1,2.2-1.4c0,0,0.1,0.1,0.1,0.1c-0.3,1.2-0.8,2.1-1.4,2.8c-0.3,0.3-0.7,0.6-1,0.8
		c-0.3,0.2-0.6,0.4-0.9,0.5c-0.2,1.2-0.6,2.4-1,3.6c0.3-0.3,0.6-0.5,1-0.7c0.8-0.5,1.6-0.9,2.6-1c0,0.1,0,0.1,0.1,0.2
		c-0.6,1.2-1.4,2-2.2,2.6c-0.4,0.3-0.8,0.5-1.3,0.7c-0.3,0.1-0.6,0.2-1,0.3c-0.5,1.1-1.1,2.2-1.8,3.3c0.4-0.2,0.8-0.4,1.1-0.5
		c1-0.3,1.9-0.6,3-0.5c0,0.1,0,0.1,0,0.2c-0.9,1.1-1.9,1.7-2.9,2.2c-0.5,0.2-1,0.3-1.5,0.4c-0.3,0.1-0.6,0.1-1,0.1
		c-0.5,0.7-1.1,1.4-1.7,2c-0.3-0.3-0.7-0.7-1-1c0.7-0.7,1.4-1.4,2-2.2c0-0.2,0-0.5,0-0.7c-0.1-0.5-0.3-0.9-0.5-1.3
		c-0.1-0.5-0.1-0.9-0.1-1.4c0-0.5,0-1,0.2-1.5C692.8,344.6,692.8,344.6,692.9,344.6z"/>
</g>
<g>
	<path class="st1" d="M673.1,341.7l5.2-0.6c0.2,1.3,0.6,2.3,1.3,3c0.7,0.7,1.6,1.1,2.6,1.1c1.1,0,2-0.4,2.8-1.3
		c0.8-0.8,1.1-2,1.1-3.4c0-1.4-0.4-2.4-1.1-3.2c-0.7-0.8-1.6-1.2-2.7-1.2c-0.7,0-1.5,0.1-2.5,0.4l0.6-4.4c1.5,0,2.6-0.3,3.3-0.9
		c0.8-0.7,1.1-1.6,1.1-2.7c0-0.9-0.3-1.7-0.8-2.3c-0.6-0.6-1.3-0.8-2.2-0.8c-0.9,0-1.7,0.3-2.4,1c-0.7,0.6-1,1.6-1.2,2.8l-5-0.8
		c0.3-1.7,0.9-3.1,1.6-4.1c0.7-1,1.7-1.8,2.9-2.4c1.2-0.6,2.6-0.9,4.2-0.9c2.6,0,4.8,0.8,6.4,2.5c1.3,1.4,2,2.9,2,4.7
		c0,2.5-1.3,4.4-4,5.9c1.6,0.3,2.9,1.1,3.9,2.3c1,1.2,1.4,2.7,1.4,4.4c0,2.5-0.9,4.6-2.7,6.3c-1.8,1.7-4,2.6-6.7,2.6
		c-2.5,0-4.7-0.7-6.3-2.2C674.3,346,673.3,344.1,673.1,341.7z"/>
</g>
<g>
	<path class="st15" d="M469.3,149.8h-70.9c-22.4,0-42-11.8-52.6-31.5c-10.6-19.7-9.5-42.6,2.9-61.2c1.4-2,3.7-3.3,6.1-3.3h158
		c2.4,0,4.7,1.2,6.1,3.3c12.4,18.6,13.5,41.5,2.9,61.2C511.4,138.1,491.7,149.8,469.3,149.8z M359,68.5c-7.4,13.4-7.6,29.2-0.2,42.9
		c8,14.9,22.8,23.7,39.7,23.7h70.9c16.9,0,31.7-8.9,39.7-23.7c7.4-13.7,7.2-29.5-0.2-42.9H359z"/>
	<path class="st16" d="M452.3,189.2c-12.3,0-24.6,0-36.9,0c3.5-8.2,3.5-17.5,0-25.6c12.3,0,24.6,0,36.9,0
		C448.8,171.8,448.8,181,452.3,189.2z"/>
	<path class="st15" d="M467.2,189.2h-66.7c-4,0-7.3,3.3-7.3,7.3v5.7h81.3v-5.7C474.5,192.5,471.2,189.2,467.2,189.2z"/>
	<path class="st5" d="M484.7,202.2H383c-4,0-7.3,3.3-7.3,7.3v37.3h116.4v-37.3C492.1,205.5,488.8,202.2,484.7,202.2z"/>
	<path class="st17" d="M496,246.9H371.7c-3.5,0-6.3,2.8-6.3,6.3l0,0c0,3.5,2.8,6.3,6.3,6.3H496c3.5,0,6.3-2.8,6.3-6.3l0,0
		C502.3,249.7,499.5,246.9,496,246.9z"/>
	<path class="st16" d="M458.2,156.1h-48.7c-24.4-43.1-39-73.3-42.2-116.4h133.1C497.2,82.8,482.6,113.1,458.2,156.1z"/>
	<g>
		<path class="st15" d="M501.5,25.6H366.2c-3.9,0-7.1,3.2-7.1,7.1l0,0c0,3.9,3.2,7.1,7.1,7.1h135.4c3.9,0,7.1-3.2,7.1-7.1l0,0
			C508.6,28.7,505.5,25.6,501.5,25.6z"/>
		<path class="st15" d="M458.1,156.1h-48.5c-4.1,0-7.5,3.3-7.5,7.5c0,4.1,3.3,7.5,7.5,7.5h48.5c4.1,0,7.5-3.3,7.5-7.5
			S462.2,156.1,458.1,156.1z"/>
	</g>
	<path class="st14" d="M439.3,147.4c0-4.8-3.9-8.7-8.7-8.7h-13.9c-4.1,0-7.4-3.3-7.3-7.3v-0.7c-0.3-3.9,2.9-7.3,6.9-7.3h29.1
		c4.8,0,9-3.5,9.3-8.2c0.2-5-3.8-9.2-8.8-9.2h-26.3c-4,0-7.3-3.3-7.3-7.3l0.1-0.5v-0.1c-0.1-4.3,3.4-7.8,7.7-7.8h35.9
		c4.8,0,9-3.5,9.3-8.3c0.2-5-3.8-9.2-8.8-9.2h-38c-4.3,0-7.3-3.5-7.3-7.8c0,0,0,0,0-0.1c0-0.1,0-0.1,0-0.1c0-4.2,3.1-7.8,7.3-7.8
		h22.1c4.7,0,8.9-3.5,9.1-8.2c0.3-5.1-3.8-9.2-8.7-9.2h-73.6c3.2,43.1,17.8,73.3,42.2,116.4c0,0,0.2,0,0.5,0c2.3,0,11.2,0,20.8,0
		C435.5,156,439.3,152.2,439.3,147.4z"/>
	<path class="st4" d="M420.3,242.5c0.1-2.7-2-4.9-4.7-4.9h-14c-2.1,0-3.9-1.8-3.9-3.9l0-0.3v0c0-2.3,1.8-4.1,4.1-4.1h19.2
		c2.6,0,4.8-1.9,5-4.4c0.1-2.7-2-4.9-4.7-4.9h-20.3c-2.3,0-3.9-1.9-3.9-4.1c0,0,0,0,0,0c0,0,0,0,0,0c0-2.2,1.6-4.1,3.9-4.1h11.8
		c2.5,0,4.7-1.9,4.9-4.4c0.1-2.7-2-4.9-4.6-4.9H383c-4,0-7.3,3.3-7.3,7.3v37.3h39.6C417.9,246.9,420.1,245,420.3,242.5z"/>
	<path class="st18" d="M500,43.3c0.1-1.2,0.3-2.3,0.4-3.5H367.3c0.1,1.2,0.3,2.3,0.4,3.5H500z"/>
</g>
</svg>
