<?xml version="1.0" encoding="utf-8"?>
<!-- Generator: Adobe Illustrator 22.0.0, SVG Export Plug-In . SVG Version: 6.00 Build 0)  -->
<svg version="1.0" id="Layer_1" xmlns="http://www.w3.org/2000/svg" xmlns:xlink="http://www.w3.org/1999/xlink" x="0px" y="0px"
	 viewBox="0 0 510.2 510.2" style="enable-background:new 0 0 510.2 510.2;" xml:space="preserve">
<style type="text/css">
	.st0{fill:#3A3735;}
	.st1{fill:#03A9F4;}
</style>
<g>
	<path class="st0" d="M38.9,235.4l1.2,21.5c0.2,3.6,1.8,6.8,4.2,9.1s5.7,3.7,9.3,3.7c7.2,0,13.2-5.6,13.6-12.8l1.1-18.9
		c-3,0.5-6.1,0.7-9.2,0.7C52.1,238.7,45.3,237.6,38.9,235.4z"/>
	<path class="st0" d="M34.5,158.4c7.5-3.3,15.9-5.1,24.6-5.1c4.8,0,9.4,0.5,14,1.6l0.7-13.1H96c4.5,0,8.2-3.1,8.2-7s-3.7-7-8.2-7
		H74.6l0.3-4.7c0-0.4,0-0.8,0-1.2c0-11.6-9.4-21.2-21.2-21.2c-12.2-0.1-21.9,10.2-21.2,22.4l0.3,4.7H12.1c-4.5,0-8.2,3.1-8.2,7
		s3.7,7,8.2,7h21.5L34.5,158.4z"/>
	<path class="st0" d="M442.7,238l1.1,18.9c0.4,7.2,6.4,12.8,13.6,12.8c3.6,0,6.9-1.4,9.3-3.7c2.4-2.3,4-5.5,4.2-9.1l1.2-21.5
		c-6.3,2.2-13.2,3.4-20.2,3.4C448.8,238.7,445.7,238.5,442.7,238z"/>
	<path class="st0" d="M500.2,127.8h-21.9l0.3-4.7c0.7-12.2-9-22.4-21.2-22.4c-11.8,0-21.2,9.6-21.2,21.2c0,0.4,0,0.8,0,1.2l0.3,4.7
		h-21c-4.8,0-8.7,3.1-8.7,7s3.9,7,8.7,7h21.8l0.7,13.1c4.5-1,9.2-1.6,14-1.6c8.7,0,17.1,1.8,24.6,5.1l1-16.7c0.1,0,0.3,0,0.4,0h22.4
		c3.9,0,7-3.1,7-7S504,127.8,500.2,127.8z"/>
	<path class="st1" d="M475.6,173.8c-6.5-4-14.7-6.5-23.7-6.5c-4.6,0-9.1,0.6-13.1,1.8c-1.9,0.5-3.7,1.2-5.4,1.9
		c-3.5,1.5-15.5,3-30.6,4.2c-20.6,1.8-40.4-8.2-51.5-25.6c-17.3-27.1-53.7-45.8-95.8-45.8s-78.5,18.7-95.8,45.8
		c-11.1,17.4-30.9,27.4-51.5,25.6c-15.1-1.3-27.1-2.7-30.6-4.2c-1.7-0.8-3.6-1.4-5.4-1.9c-4.1-1.2-8.5-1.8-13.1-1.8
		c-9,0-17.3,2.4-23.7,6.5c-8.5,5.2-13.9,13.3-13.9,22.2c0,9.9,6.5,18.6,16.5,23.7c6,3.1,13.3,4.9,21.1,4.9c3.5,0,6.8-0.3,10-1
		c3-0.7,5.9-1.6,8.6-2.7c4.7-2,25-4,47.3-5.5c16.6-1.1,32.8,5.3,44.3,17.4c15,15.8,37.3,27.4,63.2,31.7v14.6h46v-14.6
		c12.9-2.2,25-6.2,35.7-11.5c10.7-5.4,20-12.2,27.5-20.2c11.5-12.1,27.6-18.5,44.3-17.4c22.3,1.6,42.6,3.5,47.3,5.5
		c2.7,1.2,5.5,2.1,8.6,2.7c3.2,0.7,6.5,1,10,1c7.8,0,15.1-1.8,21.1-4.9c10-5.2,16.5-13.9,16.5-23.7
		C489.5,187.1,484.1,179,475.6,173.8z M255.5,218.8c-18.6,0-33.6-15-33.6-33.6s15-33.6,33.6-33.6s33.6,15,33.6,33.6
		C289.1,203.7,274.1,218.8,255.5,218.8z"/>
	<path class="st0" d="M434.1,405.6h-14v-51c8-2.9,13.7-10.5,13.7-19.5c0-11.4-9.3-20.7-20.7-20.7c-9,0-16.6,5.7-19.5,13.7h-39.2
		l3.6-15.6c2.3-9.9-5.3-19.4-15.4-19.4H168.4c-10.2,0-17.7,9.4-15.4,19.4l3.6,15.6h-37c-2.9-8-10.5-13.7-19.5-13.7
		c-11.4,0-20.7,9.3-20.7,20.7c0,9,5.7,16.6,13.7,19.5v51h-14c-3.9,0-7,3.1-7,7s3.1,7,7,7h42c3.9,0,7-3.1,7-7s-3.1-7-7-7h-14v-51
		c5.8-2.1,10.4-6.7,12.5-12.5h40.2l5.2,22.7c1.6,7.2,8,12.3,15.4,12.3h150.2c7.4,0,13.8-5.1,15.4-12.3l5.2-22.7h42.4
		c2.1,5.8,6.7,10.4,12.5,12.5v51h-14c-3.9,0-7,3.1-7,7s3.1,7,7,7h42c3.9,0,7-3.1,7-7S437.9,405.6,434.1,405.6z M206.8,342.1h-15.5
		c-3.9,0-7-3.1-7-7s3.1-7,7-7h15.5c3.9,0,7,3.1,7,7S210.6,342.1,206.8,342.1z M255.5,355.2c-11.1,0-20.1-9-20.1-20.1
		s9-20.1,20.1-20.1c11.1,0,20.1,9,20.1,20.1S266.6,355.2,255.5,355.2z M319.8,342.1h-15.5c-3.9,0-7-3.1-7-7s3.1-7,7-7h15.5
		c3.9,0,7,3.1,7,7S323.6,342.1,319.8,342.1z"/>
</g>
</svg>
