<?xml version="1.0" encoding="iso-8859-1"?>
<!-- Generator: Adobe Illustrator 19.0.0, SVG Export Plug-In . SVG Version: 6.00 Build 0)  -->
<svg version="1.1" id="Capa_1" xmlns="http://www.w3.org/2000/svg" xmlns:xlink="http://www.w3.org/1999/xlink" x="0px" y="0px"
	 viewBox="0 0 512 512" style="enable-background:new 0 0 512 512;" xml:space="preserve">
<path style="fill:#F3F3F3;" d="M256.112,501.728C-48.768,375.168,37.024,36.272,37.024,36.272C193.344,118.8,256.112,0,256.112,0
	S318.64,118.8,474.96,36.272C474.96,36.272,560.752,375.168,256.112,501.728z"/>
<path style="fill:#ED6362;" d="M256.112,462.432C56.144,370.848,54.448,174.704,64.672,87.712
	c25.984,9.12,51.12,13.728,75.12,13.728c54.48,0,92.432-23.008,116.288-45.056c23.824,22.048,61.728,45.056,116.16,45.056
	c23.984,0,49.12-4.608,75.104-13.728C457.568,174.656,455.92,370.848,256.112,462.432z"/>
<path style="fill:#E95454;" d="M234.544,89.008c-0.64,12.704,9.472,23.264,21.968,23.264h86.992
	c12.704,0,22.832,10.56,22.192,23.264c-0.64,11.856-11.424,20.896-23.264,20.896h-109.68c-11.856,0.208-21.328,9.92-21.328,21.968
	c0,12.064,9.904,21.968,21.968,21.968h130.8c10.336,0,18.736,8.416,18.528,18.528v1.728c0.64,9.904-7.328,18.528-17.456,18.528
	H191.168c-12.064,0-22.624,8.832-23.488,20.688c-0.432,12.704,9.472,23.264,22.192,23.264h166.992
	c10.128,0,18.528,8.4,18.528,18.528l-0.208,1.296v0.208c0.208,10.768-8.624,19.616-19.392,19.616H229.088
	c-12.064,0-22.624,8.832-23.488,20.896c-0.432,12.704,9.472,23.264,22.192,23.264h60.064c10.768,0,18.528,8.832,18.528,19.616
	c0,0,0,0,0,0.208s0,0.208,0,0.208c0,10.56-7.76,19.6-18.528,19.6h-41.328c-11.856,0-22.4,8.832-23.056,20.688
	c-0.64,12.928,9.472,23.264,21.968,23.264h34.336c176.144-95.744,177.36-279.424,167.552-362.784
	c-25.984,9.12-51.12,13.728-75.104,13.728c-44.528,0-77.824-15.44-101.568-33.12h-12.864C245.76,68.336,235.2,77.152,234.544,89.008
	z"/>
<path style="fill:#FDBC4B;" d="M31.712,512c34.736-16.352,70.608-28.72,107.056-37.136c-4.848-24.816-9.68-49.648-14.528-74.464
	c-40.96,9.456-81.28,23.36-120.32,41.744c16.8,5.92,33.04,12.592,48.704,19.936C44.864,478.592,37.904,495.264,31.712,512z"/>
<path style="fill:#EC9922;" d="M132.064,440.528c2.24,11.44,4.464,22.896,6.704,34.336c-17.04-8.032-34.816-15.216-53.28-21.424
	C100.88,448.432,116.416,444.144,132.064,440.528z"/>
<path style="fill:#FDBC4B;" d="M480.288,512c-34.736-16.352-70.608-28.72-107.056-37.136c4.848-24.816,9.68-49.648,14.528-74.464
	c40.96,9.456,81.28,23.36,120.32,41.744c-16.8,5.92-33.04,12.592-48.704,19.936C467.136,478.592,474.096,495.264,480.288,512z"/>
<path style="fill:#EC9922;" d="M379.936,440.528c-2.24,11.44-4.464,22.896-6.704,34.336c17.04-8.032,34.816-15.216,53.28-21.424
	C411.12,448.432,395.584,444.144,379.936,440.528z"/>
<path style="fill:#FFCC5B;" d="M426.528,453.424c-111.232-36.064-229.808-36.064-341.04,0
	c-8.624-31.488-17.264-62.976-25.888-94.464c128.128-41.536,264.688-41.536,392.816,0
	C443.776,390.448,435.152,421.936,426.528,453.424z"/>
<g>
	<path style="fill:#FFFFFF;" d="M153.664,353.632c4.08,7.568,8.048,15.152,11.936,22.8c9.184-1.408,18.384-2.592,27.6-3.568
		c-7.008,5.792-13.856,11.728-20.512,17.76c3.76,7.68,7.424,15.392,10.992,23.136c-7.568-4.096-15.296-8.032-23.168-11.808
		c-6.464,6.176-12.736,12.448-18.848,18.848c1.264-8.56,2.624-17.104,4.096-25.664c-8.048-3.568-16.224-6.976-24.544-10.208
		c9.104-2.096,18.224-3.984,27.376-5.648C150.192,370.72,151.872,362.176,153.664,353.632z"/>
	<path style="fill:#FFFFFF;" d="M256,345.104c2.96,8.144,5.808,16.32,8.576,24.496c9.248,0.128,18.496,0.48,27.744,1.04
		c-7.728,4.576-15.312,9.296-22.736,14.16c2.64,8.208,5.184,16.432,7.616,24.688c-6.896-5.296-13.968-10.48-21.184-15.504
		c-7.232,5.04-14.288,10.208-21.184,15.504c2.432-8.24,4.976-16.464,7.616-24.688c-7.424-4.864-15.008-9.584-22.736-14.16
		c9.248-0.56,18.48-0.912,27.744-1.04C250.192,361.424,253.04,353.248,256,345.104z"/>
	<path style="fill:#FFFFFF;" d="M358.336,353.632c1.792,8.544,3.488,17.088,5.072,25.648c9.152,1.664,18.288,3.552,27.376,5.648
		c-8.32,3.232-16.496,6.64-24.544,10.208c1.472,8.56,2.832,17.104,4.096,25.664c-6.112-6.384-12.384-12.672-18.848-18.848
		c-7.872,3.776-15.584,7.712-23.152,11.808c3.568-7.744,7.232-15.456,10.992-23.136c-6.672-6.048-13.504-11.968-20.512-17.76
		c9.216,0.976,18.416,2.16,27.6,3.568C350.288,368.784,354.256,361.184,358.336,353.632z"/>
</g>
<path style="fill:#FDBC4B;" d="M280.704,224.576h-49.408c-23.456,0-44.496-13.584-53.616-34.608l-12.096-27.92
	c-2.752-6.352-2.128-13.632,1.696-19.44c3.952-6.032,10.688-9.632,18.032-9.632h141.376c7.328,0,14.064,3.6,18.032,9.632
	c3.808,5.808,4.448,13.072,1.696,19.44l-12.096,27.92C325.216,210.992,304.16,224.576,280.704,224.576z M185.312,143.232
	c-3.856,0-7.392,1.872-9.456,5.008c-1.936,2.96-2.256,6.512-0.848,9.744l12.096,27.92c7.488,17.264,24.832,28.432,44.208,28.432
	h49.408c19.376,0,36.72-11.168,44.208-28.432l12.096-27.92c1.392-3.232,1.088-6.784-0.848-9.744c-2.064-3.136-5.6-5.008-9.456-5.008
	H185.312z"/>
<path style="fill:#FFDB70;" d="M278.976,230.96c-4.288,9.968-4.848,21.312-0.48,31.264h-44.96c4.288-9.968,3.808-21.312-0.48-31.264
	c-23.04-40.608-36.8-69.104-39.84-109.792h125.632C315.776,161.84,302.016,190.352,278.976,230.96z"/>
<path style="fill:#FDBC4B;" d="M287.44,262.192h-62.896c-3.824,0-6.912,3.104-6.912,6.912v5.36h76.736v-5.344
	C294.368,265.296,291.264,262.192,287.44,262.192z"/>
<path style="fill:#464646;" d="M310.912,281.392c0-3.824-3.104-6.912-6.912-6.912h-96c-3.824,0-6.912,3.104-6.912,6.912v30.112
	h109.824V281.392z"/>
<path style="fill:#FDBC4B;" d="M319.856,107.792H192.144c-3.696,0-6.704,2.992-6.704,6.704l0,0c0,3.696,2.992,6.704,6.704,6.704
	h127.712c3.696,0,6.704-2.992,6.704-6.704l0,0C326.56,110.784,323.552,107.792,319.856,107.792z"/>
<path style="fill:#FFCC5B;" d="M261.12,222.768c0-4.496-3.696-8.208-8.208-8.208h-13.104c-3.856,0-6.992-3.136-6.912-6.912
	c0-5.184,3.008-7.568,6.512-7.568h27.424c4.512,0,8.448-3.296,8.768-7.728c0.16-4.752-3.536-8.688-8.288-8.688h-24.768
	c-3.568,0-6.832-2.512-6.832-7.488c-0.08-4.016,3.216-7.328,7.232-7.328h9.648c4.512,0,8.448-3.296,8.768-7.808
	c0.16-4.752-3.536-8.688-8.288-8.688h-11.664c-4.016,0-6.912-3.296-6.912-7.328c0,0,0,0,0-0.08s0-0.08,0-0.08
	c0-3.936,2.896-7.312,6.912-7.312h20.832c4.416,0,8.368-3.296,8.608-7.728c0.24-4.832-3.536-8.688-8.208-8.688h-69.456
	c3.04,40.64,16.816,69.168,39.824,109.792c0,0,0.176,0,0.512,0c2.128,0,10.576,0,19.616,0
	C257.584,230.896,261.12,227.28,261.12,222.768z"/>
<path style="opacity:0.1;fill:#010101;enable-background:new    ;" d="M318.432,124.48c0.096-1.12,0.288-2.16,0.368-3.296H193.2
	c0.08,1.136,0.272,2.176,0.368,3.296H318.432z"/>
<g>
</g>
<g>
</g>
<g>
</g>
<g>
</g>
<g>
</g>
<g>
</g>
<g>
</g>
<g>
</g>
<g>
</g>
<g>
</g>
<g>
</g>
<g>
</g>
<g>
</g>
<g>
</g>
<g>
</g>
</svg>
