<?xml version="1.0" encoding="utf-8"?>
<!-- Generator: Adobe Illustrator 22.0.0, SVG Export Plug-In . SVG Version: 6.00 Build 0)  -->
<svg version="1.1" id="Layer_1" xmlns="http://www.w3.org/2000/svg" xmlns:xlink="http://www.w3.org/1999/xlink" x="0px" y="0px"
	 viewBox="0 0 84.3 84.8" style="enable-background:new 0 0 84.3 84.8;" xml:space="preserve">
<style type="text/css">
	.st0{display:none;}
	.st1{display:inline;}
	.st2{fill:#001F29;}
	.st3{fill:#2399D6;}
	.st4{fill:#00202A;}
	.st5{enable-background:new    ;}
	.st6{fill:#298DC3;}
	.st7{fill:#3B69AC;}
	.st8{fill:#070308;}
	.st9{fill:#3969AC;}
	.st10{font-family:'TransformersMovie';}
	.st11{font-size:21.6231px;}
	.st12{fill:#034B5B;}
	.st13{fill:#FFFFFF;}
</style>
<g id="Layer_5" class="st0">
</g>
<g id="light-2" class="st0">
	<g id="layer1-3" transform="translate(49.109684,-141.95153)" class="st1">
		<g id="flowRoot993">
		</g>
		<g id="g941-6-6-7" transform="translate(1153.7883,49.010859)">
			<g id="g876-0-2-4" transform="matrix(1.0651962,0,0,1.0651962,-294.92638,152.84156)">
				<path id="path870-8-6-5" class="st2" d="M-843-34.9c0.7,1.6,1.4,3.3,2.1,4.9c-8,16.1-1.1,33.1,2,38.7
					C-840.5,8.4-856.1-10.7-843-34.9z"/>
			</g>
			<g id="g880-3-1-2">
				<path id="path872-7-8-5" class="st3" d="M-1192.9,115.7c-1.9,0.2-3.7,0.4-5.6,0.6c-16.7,38.6,17.6,62.7,37,61.4
					c-1-1.6-2.1-3.2-3.1-4.7C-1181.2,171.9-1210.2,151.2-1192.9,115.7"/>
				<path id="path870-7-2-9-7" class="st4" d="M-1127.4,117.2c-1.9-0.2-3.8-0.4-5.7-0.6c-10.6-15.9-30-18.7-36.8-18.8
					C-1168.6,96.5-1142.7,92.3-1127.4,117.2z"/>
				<path id="path872-5-1-2-4" class="st3" d="M-1127.4,117.2c0.8-1.7,1.5-3.4,2.3-5.1c-25.1-33.8-63.1-16.1-71.7,1.4
					c1.9-0.1,3.8-0.2,5.7-0.3C-1181.9,99.2-1149.4,84.4-1127.4,117.2"/>
				<path id="path870-7-5-5-2-3" class="st4" d="M-1161.7,173c1.1-1.5,2.3-3.1,3.4-4.6c19.1-1.2,31.2-16.6,34.7-22.4
					C-1123.2,147.7-1132.4,172.2-1161.7,173z"/>
				<path id="path872-5-6-8-3-0" class="st3" d="M-1161.7,173c1.1,1.5,2.2,3,3.3,4.5c41.8-4.8,45.5-46.6,34.7-62.7
					c-0.8,1.7-1.7,3.4-2.5,5.1C-1118.9,134.8-1122.3,170.3-1161.7,173"/>
			</g>
			<g class="st5">
				<path class="st3" d="M-1185.1,140.1h6l1.1,2.9h-10.7v-13.5h3.7L-1185.1,140.1z"/>
				<path class="st3" d="M-1177.5,143l4.9-13.6h3.9l4.6,13.6h-7.6v-2.9h3l-2-6.1l-3.2,9H-1177.5z"/>
				<path class="st3" d="M-1163.4,140.2h6.9v-2.5h-5c-1.1,0-1.7-0.5-1.9-1.4c0-0.2,0-0.5,0-0.7c0-0.3,0-0.5,0-0.7l0,0v-3.7
					c0.1-0.6,0.3-1,0.6-1.2s0.7-0.4,1.3-0.4h8.8c-0.2,0.7-0.5,1.3-0.6,1.7s-0.3,0.9-0.4,1.2h-1.1h-4.7v2.4h5c0.5,0,1,0.1,1.3,0.4
					s0.5,0.6,0.6,1.2v0.1v0.1l0,0v5c-0.2,0.9-0.9,1.4-1.9,1.4h-2.8l0,0h-5L-1163.4,140.2z"/>
				<path class="st3" d="M-1152,129.6h10.7l-1.1,2.9h-6v2.5h6v2.8h-6v2.4h7l-1,2.9h-9.7L-1152,129.6L-1152,129.6z"/>
				<path class="st3" d="M-1137,143.1h-3.7v-6.5l0,0l0,0v-7h8.8c0.5,0,1,0.1,1.3,0.4c0.3,0.2,0.5,0.6,0.6,1.2c0,0.9,0,1.7,0,2.2
					s0,1,0,1.3s0,0.5,0,0.7s0,0.3,0,0.4c-0.1,0.5-0.3,0.8-0.5,1.1c-0.2,0.2-0.6,0.4-0.9,0.5v0.1h-1.4l2.8,5.9h-3.8l-2.7-5.9v-2.3
					h2.7v-2.5h-3.3L-1137,143.1z"/>
			</g>
		</g>
	</g>
</g>
<g id="dark-2" class="st0">
	<g id="layer1-3_2_" transform="translate(49.109684,-141.95153)" class="st1">
		<g id="flowRoot993_2_">
		</g>
		<g id="g941-6-6-7_2_" transform="translate(1153.7883,49.010859)">
			<g id="g876-0-2-4_2_" transform="matrix(1.0651962,0,0,1.0651962,-294.92638,152.84156)">
				<path id="path870-8-6-5_2_" class="st6" d="M-843-34.9c0.7,1.6,1.4,3.3,2.1,4.9c-8,16.1-1.1,33.1,2,38.7
					C-840.5,8.4-856.1-10.7-843-34.9z"/>
			</g>
			<g id="g880-3-1-2_2_">
				<path id="path872-7-8-5_2_" class="st2" d="M-1192.9,115.7c-1.9,0.2-3.7,0.4-5.6,0.6c-16.7,38.6,17.6,62.7,37,61.4
					c-1-1.6-2.1-3.2-3.1-4.7C-1181.2,171.9-1210.2,151.2-1192.9,115.7"/>
				<path id="path870-7-2-9-7_2_" class="st6" d="M-1127.4,117.2c-1.9-0.2-3.8-0.4-5.7-0.6c-10.6-15.9-30-18.7-36.8-18.8
					C-1168.6,96.5-1142.7,92.3-1127.4,117.2z"/>
				<path id="path872-5-1-2-4_2_" class="st2" d="M-1127.4,117.2c0.8-1.7,1.5-3.4,2.3-5.1c-25.1-33.8-63.1-16.1-71.7,1.4
					c1.9-0.1,3.8-0.2,5.7-0.3C-1181.9,99.2-1149.4,84.4-1127.4,117.2"/>
				<path id="path870-7-5-5-2-3_2_" class="st6" d="M-1161.7,173c1.1-1.5,2.3-3.1,3.4-4.6c19.1-1.2,31.2-16.6,34.7-22.4
					C-1123.2,147.7-1132.4,172.2-1161.7,173z"/>
				<path id="path872-5-6-8-3-0_2_" class="st2" d="M-1161.7,173c1.1,1.5,2.2,3,3.3,4.5c41.8-4.8,45.5-46.6,34.7-62.7
					c-0.8,1.7-1.7,3.4-2.5,5.1C-1118.9,134.8-1122.3,170.3-1161.7,173"/>
			</g>
			<g class="st5">
				<path class="st3" d="M-1185.1,140.1h6l1.1,2.9h-10.7v-13.5h3.7L-1185.1,140.1z"/>
				<path class="st3" d="M-1177.5,143l4.9-13.6h3.9l4.6,13.6h-7.6v-2.9h3l-2-6.1l-3.2,9H-1177.5z"/>
				<path class="st3" d="M-1163.4,140.2h6.9v-2.5h-5c-1.1,0-1.7-0.5-1.9-1.4c0-0.2,0-0.5,0-0.7c0-0.3,0-0.5,0-0.7l0,0v-3.7
					c0.1-0.6,0.3-1,0.6-1.2s0.7-0.4,1.3-0.4h8.8c-0.2,0.7-0.5,1.3-0.6,1.7s-0.3,0.9-0.4,1.2h-1.1h-4.7v2.4h5c0.5,0,1,0.1,1.3,0.4
					s0.5,0.6,0.6,1.2v0.1v0.1l0,0v5c-0.2,0.9-0.9,1.4-1.9,1.4h-2.8l0,0h-5L-1163.4,140.2z"/>
				<path class="st3" d="M-1152,129.6h10.7l-1.1,2.9h-6v2.5h6v2.8h-6v2.4h7l-1,2.9h-9.7L-1152,129.6L-1152,129.6z"/>
				<path class="st3" d="M-1137,143.1h-3.7v-6.5l0,0l0,0v-7h8.8c0.5,0,1,0.1,1.3,0.4c0.3,0.2,0.5,0.6,0.6,1.2c0,0.9,0,1.7,0,2.2
					s0,1,0,1.3s0,0.5,0,0.7s0,0.3,0,0.4c-0.1,0.5-0.3,0.8-0.5,1.1c-0.2,0.2-0.6,0.4-0.9,0.5v0.1h-1.4l2.8,5.9h-3.8l-2.7-5.9v-2.3
					h2.7v-2.5h-3.3L-1137,143.1z"/>
			</g>
		</g>
	</g>
</g>
<g id="dark" class="st0">
	<g id="layer1_1_" transform="translate(-795.98108,-250.34993)" class="st1">
		<g id="layer1-3_1_" transform="translate(49.109684,-141.95153)">
			<g id="flowRoot993_1_">
			</g>
			<g id="g941-6-6-7_1_" transform="translate(1153.7883,49.010859)">
				<g id="g876-0-2-4_1_" transform="matrix(1.0651962,0,0,1.0651962,-294.92638,152.84156)">
					<path id="path870-8-6-5_1_" class="st7" d="M-95.7,200.2c0.7,1.6,1.4,3.3,2.1,4.9c-8,16.1-1.1,33.1,2,38.7
						C-93.2,243.4-108.8,224.4-95.7,200.2z"/>
				</g>
				<g id="g880-3-1-2_1_">
					<path id="path872-7-8-5_1_" class="st8" d="M-396.9,366.1c-1.9,0.2-3.7,0.4-5.6,0.6c-16.7,38.6,17.6,62.7,37,61.4
						c-1-1.6-2.1-3.2-3.1-4.7C-385.2,422.3-414.2,401.6-396.9,366.1"/>
					<g id="g876-6-8-7-4_1_" transform="matrix(-0.5325981,0.92248697,-0.92248697,-0.5325981,-193.98627,545.33561)">
						<path id="path870-7-2-9-7_1_" class="st7" d="M-80,195.2c0.7,1.6,1.4,3.3,2.1,4.9c-8,16.1-1.1,33.1,2,38.7
							C-77.5,238.4-93.1,219.4-80,195.2z"/>
						<path id="path872-5-1-2-4_1_" class="st8" d="M-80,195.2c-1.7,0.2-3.5,0.4-5.2,0.5c-15.7,36.2,16.5,58.9,34.7,57.6
							c-1-1.5-2-3-2.9-4.4C-69,247.9-96.3,228.5-80,195.2"/>
					</g>
					<g id="g876-6-3-0-0-4_1_" transform="matrix(-0.5325981,-0.92248697,0.92248697,-0.5325981,-584.6132,436.36579)">
						<path id="path870-7-5-5-2-3_1_" class="st7" d="M-92.2,184c0.7,1.6,1.4,3.3,2.1,4.9c-8,16.1-1.1,33.1,2,38.7
							C-89.7,227.3-105.2,208.2-92.2,184z"/>
						<path id="path872-5-6-8-3-0_1_" class="st8" d="M-92.2,184c-1.7,0.2-3.5,0.4-5.2,0.5c-15.7,36.2,16.5,58.9,34.7,57.6
							c-1-1.5-2-3-2.9-4.4C-81.2,236.8-108.5,217.4-92.2,184"/>
					</g>
				</g>
				<text transform="matrix(1 0 0 1 -393.1205 393.3942)" class="st9 st10 st11">Laser</text>
			</g>
		</g>
	</g>
</g>
<g id="light-3">
	<g id="layer1-3_3_" transform="translate(49.109684,-141.95153)">
		<g id="flowRoot993_3_">
		</g>
		<g id="g941-6-6-7_3_" transform="translate(1153.7883,49.010859)">
			<g id="g876-0-2-4_3_" transform="matrix(1.0651962,0,0,1.0651962,-294.92638,152.84156)">
				<path id="path870-8-6-5_3_" class="st12" d="M-843-34.9c0.7,1.6,1.4,3.3,2.1,4.9c-8,16.1-1.1,33.1,2,38.7
					C-840.5,8.4-856.1-10.7-843-34.9z"/>
			</g>
			<g id="g880-3-1-2_3_">
				<path id="path872-7-8-5_3_" class="st13" d="M-1192.9,115.7c-1.9,0.2-3.7,0.4-5.6,0.6c-16.7,38.6,17.6,62.7,37,61.4
					c-1-1.6-2.1-3.2-3.1-4.7C-1181.2,171.9-1210.2,151.2-1192.9,115.7"/>
				<path id="path870-7-2-9-7_3_" class="st12" d="M-1127.4,117.2c-1.9-0.2-3.8-0.4-5.7-0.6c-10.6-15.9-30-18.7-36.8-18.8
					C-1168.6,96.5-1142.7,92.3-1127.4,117.2z"/>
				<path id="path872-5-1-2-4_3_" class="st13" d="M-1127.4,117.2c0.8-1.7,1.5-3.4,2.3-5.1c-25.1-33.8-63.1-16.1-71.7,1.4
					c1.9-0.1,3.8-0.2,5.7-0.3C-1181.9,99.2-1149.4,84.4-1127.4,117.2"/>
				<path id="path870-7-5-5-2-3_3_" class="st12" d="M-1161.7,173c1.1-1.5,2.3-3.1,3.4-4.6c19.1-1.2,31.2-16.6,34.7-22.4
					C-1123.2,147.7-1132.4,172.2-1161.7,173z"/>
				<path id="path872-5-6-8-3-0_3_" class="st13" d="M-1161.7,173c1.1,1.5,2.2,3,3.3,4.5c41.8-4.8,45.5-46.6,34.7-62.7
					c-0.8,1.7-1.7,3.4-2.5,5.1C-1118.9,134.8-1122.3,170.3-1161.7,173"/>
			</g>
			<g class="st5">
				<path class="st13" d="M-1185.1,140.1h6l1.1,2.9h-10.7v-13.5h3.7L-1185.1,140.1z"/>
				<path class="st13" d="M-1177.5,143l4.9-13.6h3.9l4.6,13.6h-7.6v-2.9h3l-2-6.1l-3.2,9H-1177.5z"/>
				<path class="st13" d="M-1163.4,140.2h6.9v-2.5h-5c-1.1,0-1.7-0.5-1.9-1.4c0-0.2,0-0.5,0-0.7c0-0.3,0-0.5,0-0.7l0,0v-3.7
					c0.1-0.6,0.3-1,0.6-1.2s0.7-0.4,1.3-0.4h8.8c-0.2,0.7-0.5,1.3-0.6,1.7s-0.3,0.9-0.4,1.2h-1.1h-4.7v2.4h5c0.5,0,1,0.1,1.3,0.4
					s0.5,0.6,0.6,1.2v0.1v0.1l0,0v5c-0.2,0.9-0.9,1.4-1.9,1.4h-2.8l0,0h-5L-1163.4,140.2z"/>
				<path class="st13" d="M-1152,129.6h10.7l-1.1,2.9h-6v2.5h6v2.8h-6v2.4h7l-1,2.9h-9.7L-1152,129.6L-1152,129.6z"/>
				<path class="st13" d="M-1137,143.1h-3.7v-6.5l0,0l0,0v-7h8.8c0.5,0,1,0.1,1.3,0.4c0.3,0.2,0.5,0.6,0.6,1.2c0,0.9,0,1.7,0,2.2
					s0,1,0,1.3s0,0.5,0,0.7s0,0.3,0,0.4c-0.1,0.5-0.3,0.8-0.5,1.1c-0.2,0.2-0.6,0.4-0.9,0.5v0.1h-1.4l2.8,5.9h-3.8l-2.7-5.9v-2.3
					h2.7v-2.5h-3.3L-1137,143.1z"/>
			</g>
		</g>
	</g>
</g>
<g id="light" class="st0">
	<g id="layer1-3_4_" transform="translate(49.109684,-141.95153)" class="st1">
		<g id="flowRoot993_4_">
		</g>
		<g id="g941-6-6-7_4_" transform="translate(1153.7883,49.010859)">
			<g id="g876-0-2-4_4_" transform="matrix(1.0651962,0,0,1.0651962,-294.92638,152.84156)">
				<path id="path870-8-6-5_4_" class="st6" d="M-843-34.9c0.7,1.6,1.4,3.3,2.1,4.9c-8,16.1-1.1,33.1,2,38.7
					C-840.5,8.4-856.1-10.7-843-34.9z"/>
			</g>
			<g id="g880-3-1-2_4_">
				<path id="path872-7-8-5_4_" class="st13" d="M-1192.9,115.7c-1.9,0.2-3.7,0.4-5.6,0.6c-16.7,38.6,17.6,62.7,37,61.4
					c-1-1.6-2.1-3.2-3.1-4.7C-1181.2,171.9-1210.2,151.2-1192.9,115.7"/>
				<path id="path870-7-2-9-7_4_" class="st6" d="M-1127.4,117.2c-1.9-0.2-3.8-0.4-5.7-0.6c-10.6-15.9-30-18.7-36.8-18.8
					C-1168.6,96.5-1142.7,92.3-1127.4,117.2z"/>
				<path id="path872-5-1-2-4_4_" class="st13" d="M-1127.4,117.2c0.8-1.7,1.5-3.4,2.3-5.1c-25.1-33.8-63.1-16.1-71.7,1.4
					c1.9-0.1,3.8-0.2,5.7-0.3C-1181.9,99.2-1149.4,84.4-1127.4,117.2"/>
				<path id="path870-7-5-5-2-3_4_" class="st6" d="M-1161.7,173c1.1-1.5,2.3-3.1,3.4-4.6c19.1-1.2,31.2-16.6,34.7-22.4
					C-1123.2,147.7-1132.4,172.2-1161.7,173z"/>
				<path id="path872-5-6-8-3-0_4_" class="st13" d="M-1161.7,173c1.1,1.5,2.2,3,3.3,4.5c41.8-4.8,45.5-46.6,34.7-62.7
					c-0.8,1.7-1.7,3.4-2.5,5.1C-1118.9,134.8-1122.3,170.3-1161.7,173"/>
			</g>
			<g class="st5">
				<path class="st13" d="M-1185.1,140.1h6l1.1,2.9h-10.7v-13.5h3.7L-1185.1,140.1z"/>
				<path class="st13" d="M-1177.5,143l4.9-13.6h3.9l4.6,13.6h-7.6v-2.9h3l-2-6.1l-3.2,9H-1177.5z"/>
				<path class="st13" d="M-1163.4,140.2h6.9v-2.5h-5c-1.1,0-1.7-0.5-1.9-1.4c0-0.2,0-0.5,0-0.7c0-0.3,0-0.5,0-0.7l0,0v-3.7
					c0.1-0.6,0.3-1,0.6-1.2s0.7-0.4,1.3-0.4h8.8c-0.2,0.7-0.5,1.3-0.6,1.7s-0.3,0.9-0.4,1.2h-1.1h-4.7v2.4h5c0.5,0,1,0.1,1.3,0.4
					s0.5,0.6,0.6,1.2v0.1v0.1l0,0v5c-0.2,0.9-0.9,1.4-1.9,1.4h-2.8l0,0h-5L-1163.4,140.2z"/>
				<path class="st13" d="M-1152,129.6h10.7l-1.1,2.9h-6v2.5h6v2.8h-6v2.4h7l-1,2.9h-9.7L-1152,129.6L-1152,129.6z"/>
				<path class="st13" d="M-1137,143.1h-3.7v-6.5l0,0l0,0v-7h8.8c0.5,0,1,0.1,1.3,0.4c0.3,0.2,0.5,0.6,0.6,1.2c0,0.9,0,1.7,0,2.2
					s0,1,0,1.3s0,0.5,0,0.7s0,0.3,0,0.4c-0.1,0.5-0.3,0.8-0.5,1.1c-0.2,0.2-0.6,0.4-0.9,0.5v0.1h-1.4l2.8,5.9h-3.8l-2.7-5.9v-2.3
					h2.7v-2.5h-3.3L-1137,143.1z"/>
			</g>
		</g>
	</g>
</g>
</svg>
