<svg version="1" xmlns="http://www.w3.org/2000/svg" width="906.667" height="906.667" viewBox="0 0 680.000000 680.000000"><path d="M323.9.4c-.2.2-3.6.6-7.5.9-6.7.6-25.5 3.2-29.8 4.2-1.2.3-3.2.7-4.6.9-13.6 2.4-38.6 9-47.5 12.6-1.1.4-6 2.3-11 4-4.9 1.8-11 4.2-13.5 5.3-11.8 5.2-26.5 12.1-29 13.6-.8.5-4.9 2.8-9 5.2-12.9 7.2-13.8 7.7-24.7 15-10.7 7.1-18.5 12.7-21.3 15.2-.8.7-4.9 4.1-9 7.4-18.4 14.9-43.6 42.5-53.3 58.3-1.1 1.9-2.3 3.7-2.6 4-.9.7-2.6 3.7-6.5 11.1l-3.5 6.7 8.2-.4c4.5-.2 13.6-.7 20.2-1 6.6-.4 13.1-.7 14.4-.8 1.8 0 3.7-1.8 7.6-7.1 2.9-3.8 6.9-9 8.9-11.5 8-9.7 31.6-32.6 36.4-35.4 1.4-.8 5.1-3.8 7.6-6.2 2.5-2.4 23.8-16.5 32.6-21.7 30.5-17.8 64.9-31.2 98.3-38.4 5.9-1.2 19.8-.7 29.2 1.1 1.1.2 4 .7 6.5 1.2 2.5.4 4.7.8 5 .9.3.1 2.5.5 5 .9 2.5.5 5.4 1 6.5 1.3 1.1.2 3.1.6 4.5.9 4.7.9 25.5 6.4 28 7.4 1.4.5 3.4 1.1 4.5 1.3 1.1.2 2.7.7 3.5 1 .8.3 6.9 2.4 13.5 4.7 22.5 7.6 49.6 20.1 67.4 30.9 4.6 2.8 8.8 5.1 9.3 5.1.4 0 .8.4.8.8 0 .5 1.1 1.4 2.4 2 2 .9 16.8 11 21.6 14.8 16.4 12.9 36.5 31.9 47.3 44.9 7.7 9.2 7.7 9.2 11.7 15 1.9 2.7 3.8 5.1 4.2 5.3.4.2 1.7 2.1 2.9 4.2 2.3 4.1 1.1 3.8 20.4 5.6 5.9.5 15.1 1.5 19 2 7.1 1 9.5.7 9.5-1 0-.7.7-1.9 1.5-2.6.8-.7 1.5-1.8 1.5-2.5 0-.8 1.6-4.8 3.5-8.9 8.7-18.8 10.2-22.2 10.7-23.6.4-1.2-9.2-15.4-12.1-18-.4-.3-2.1-2.3-3.9-4.5-9.8-11.7-15.9-18.3-29.2-31.5-8-8-16.9-16.5-19.9-19s-6.8-5.7-8.5-7.1c-6-5-20.5-15.9-21.1-15.9-.4 0-1.3-.6-2-1.3-3-2.7-4.4-3.7-5-3.7-.3 0-3.3-1.8-6.5-4s-6.3-4-6.9-4c-.5 0-1.1-.3-1.3-.8-.6-1.4-28.6-15.9-37.8-19.6-2.5-1-6.1-2.4-8-3.3-6-2.6-16.3-6.5-16.7-6.4-.2 0-.8-.2-1.5-.4-1.8-.6-18.9-5.6-20.8-6.1-9.1-2.1-20.3-4.4-23.5-4.8-2.2-.3-4.9-.7-6-1-1.1-.2-4.9-.7-8.5-1.1-3.6-.4-7.4-1-8.5-1.2-2.2-.6-53.1-1.4-53.6-.9zM631.3 187c-2.9 6-5.3 11.3-5.3 11.8 0 .6-.3 1.2-.7 1.4-.5.1-2.5 3.8-4.5 8l-3.7 7.7 3.1 7.3c3.8 9 7.8 19.6 8.3 22.3.3 1.2 1.3 4.6 2.4 7.8 1.1 3.1 1.8 5.7 1.6 5.7-.2 0 .2 2.1 1 4.7.7 2.7 1.6 6.6 2 8.8.4 2.2.9 5.1 1.1 6.5.3 1.4.7 3.2.9 4 .2.8.7 4.2 1 7.5.4 3.3.9 7.3 1.1 9 2.4 16.2 2.3 56.6-.2 75-.3 2.2-.7 5.3-.9 7-.7 6.3-1.8 12.3-3.6 21-1.1 4.9-2.1 9.9-2.3 11-.2 1.1-.9 4-1.6 6.5-.7 2.5-1.5 5.2-1.6 6-.2.8-2 6.4-4 12.5-3.2 9.4-8.2 18.4-12.4 22.5-.3.3-2.5 3-5 6-14.7 18-40.5 44.3-53.6 54.6-2 1.6-4.8 4-6.3 5.4-1.4 1.4-3.5 3.2-4.7 4-1.2.8-6.3 4.7-11.5 8.5-20.9 15.7-40.2 27-68.4 40.1-2.2 1-4.2 1.9-4.5 2-.3 0-2.3.8-4.5 1.8-9 3.9-33.2 11.6-44.3 14.1-7.2 1.6-23.5 4.7-27.2 5.1-2.5.3-5.6.7-7 .9-1.4.3-5.6.7-9.5 1.1-3.8.3-7 .6-7.1.7-.4.6-15.7 21.5-16.7 22.7-8.9 11.3-11 15.1-8.8 16.4.5.3 4.2 5.2 8.2 10.9 4.1 5.6 7.8 10.7 8.4 11.3.5.6 2.6 3.4 4.5 6.3 3.4 5 3.6 5.2 7.5 4.6 2.2-.2 6.5-.8 9.5-1.1 3-.3 5.8-.7 6.1-.9.3-.2 2.8-.7 5.5-1.1 2.7-.3 5.8-.8 6.9-1 1.1-.3 3.6-.7 5.5-1 1.9-.3 6-1.2 9-1.9 3.1-.8 7.3-1.7 9.5-2.1 2.2-.3 4.9-1.1 6-1.7 1.1-.6 2.1-1 2.3-.9.1.1.3.2.5.1.1 0 1.1-.2 2.2-.4s5.8-1.5 10.5-2.9c4.7-1.5 9.2-2.8 10-3 4.9-1.3 29-10.6 39-15.1 23.6-10.7 41.7-21.4 62.6-37 17.9-13.2 31.9-26.1 46.3-42.3 7.5-8.5 23-28 23.9-30.2.3-.8.8-1.7 1.2-2 .3-.3 2.1-3 4-6s3.7-5.7 4-6c.4-.3.9-1.2 1.3-2 .3-.8 2-3.8 3.6-6.5 13-21.8 27.9-58.6 34.7-85.5 1.1-4.6 2.3-9.8 2.8-12 .3-1.4.8-3.6 1.1-5 .3-1.4.8-3.9 1-5.5.3-1.7.8-3.7 1-4.5.2-.8.7-3.5 1-6 .3-2.5.8-5.6 1-7 .3-1.4.7-4.3 1-6.5.2-2.2.8-6.7 1.2-10 1-7.7 1-67.3 0-74.5-.4-3-1-7.8-1.3-10.5-.2-2.8-.7-5.9-1-6.9-.4-1.1-.8-3.6-1-5.5-.4-4.1-3.9-20.1-6-27.7-.8-2.8-1.6-6-1.9-7-.2-1.1-1.1-3.9-2-6.4-.9-2.5-1.9-5.6-2.1-7-.3-1.3-.9-2.9-1.3-3.5-.5-.5-1.4-2.8-2.1-5-.7-2.2-3.4-8.7-6.1-14.4-2.7-5.7-4.9-10.7-4.9-11.2s-.4-.9-1-.9c-.5 0-1-.5-1-1.1 0-.6-1.3-3-2.8-5.3-1.5-2.2-3.1-4.9-3.5-5.9-.3-.9-1-1.7-1.4-1.7-.4.1-3.2 5-6 11zM79.8 182.5c-.3.4-2.4.6-16.3 2-2.7.3-6.8.7-9 1-2.2.2-6.7.7-10 1.1-3.3.3-6.4.8-6.8 1.1-.7.4-2.6 4.1-3.2 6.3-.1.3-.9 2.2-1.8 4.4-.9 2.1-1.7 4.1-1.7 4.3 0 .3-.6 1.9-1.4 3.6-1.3 2.8-11.9 33.2-11.6 33.2.1 0-.1.7-.4 1.5-.4 1.2-3.2 11.9-6 23-2.3 9.1-6.2 30.4-7.2 39.5-.3 2.7-.8 7.7-1.2 11-1.5 13.6-.7 64.7 1.2 75.5.2 1.4.7 4.3 1 6.5 2.9 20.3 9.8 46 18.1 67 3.9 10.2 13.2 29.9 17.3 37 5.7 10 8.1 13.9 12.9 21.3 5.6 8.6 13.1 19.1 15.4 21.5.8.8 2.1 2.5 2.9 3.7 1.6 2.3 2 2.8 9.6 11.7 5 5.8 25.9 27 33 33.4 6.5 6 25 20.6 31.7 25 3.4 2.4 6.4 4.5 6.7 4.8.7.9 17 11 25.5 15.8 14.2 8.2 48.6 24.3 51.8 24.3.5 0 2.3.6 4 1.4 4.8 2.1 25.5 8.2 31.2 9.3 1.1.2 2.7.6 3.5.9.8.4 2.4.8 3.5 1 3.2.4 7.4 1.2 9.3 1.8.9.2 4.2.7 7.3 1.1 3.1.3 6.7.8 8 1.1 3.4.8 34.9 1.5 35.9.9.5-.3-1.6-4.1-4.6-8.4-3-4.4-5.4-8.4-5.4-9 0-.6-.4-1.1-.8-1.1s-2.1-2.3-3.7-5c-1.6-2.8-3.3-5-3.7-5-.4 0-.8-.5-.8-1 0-.6-1.2-2.7-2.7-4.8-2.3-3-3.5-3.7-6.3-3.8-4.6-.2-13.3-1.2-15.1-1.8-.8-.3-3.2-.7-5.4-1-2.2-.3-5.5-1-7.3-1.5-1.8-.5-3.5-1-3.7-1-1.2.1-7.1-1.4-8-1.9-.5-.4-2-.8-3.3-1-1.2-.1-8-2.3-15-4.8s-13.7-4.8-14.9-5.1c-1.3-.3-2.3-.9-2.3-1.4 0-.5-.7-.9-1.6-.9-1.5 0-24.5-11.1-32.4-15.7-30-17.4-52.5-34.6-74.6-57.3-14.9-15.3-16.1-17.1-21.7-31-7.1-17.5-16.4-45.9-18.2-54.9-.2-1.3-.7-3.1-1-4.1-.3-1-.8-2.8-1-3.9-.3-1.2-.7-3.1-1-4.3-1.3-5.1-5.5-27.6-5.9-31.3-.3-2.2-.7-5.4-1-7-3.9-24-3.9-70-.1-94 .3-1.7.8-4.8 1.1-7 .3-2.2.9-5.6 1.4-7.5.5-1.9 1.2-5.5 1.5-7.9.3-2.3 1.1-5.4 1.6-6.8.5-1.4 1.2-4.2 1.5-6.1 1.3-8.3 15.9-48.5 18.9-52.2 1.7-2.1 2.7-6.8 1.8-8.3-.4-.7-.8-1.4-.9-1.7-.1-.7-2-5.1-4.2-10.3-1.1-2.3-3.2-7.1-4.7-10.7-5.4-12.7-7-15.9-8.2-16.4-.6-.3-1.3-.3-1.5-.1zM244.9 293c-.6.4-1 1-1 1.4 0 .3-.2 1.1-.4 1.8s-1.6 4.7-3 8.8c-1.4 4.1-3 8.4-3.5 9.5-1 2.1-8 21.3-8.4 23-.6 2.8-3 9.1-3.6 10-.5.5-.8 1.4-.8 1.8 0 .4-.4 2-1 3.5-.5 1.5-2.4 6.7-4.2 11.7-1.7 4.9-3.5 9.9-4 11-.5 1.1-1.6 4.2-2.5 7-1 2.7-2.1 5.9-2.6 7-2 4.4-3.9 10.8-3.4 11.3.3.3 6.6.6 14.1.7l13.5.1 1.5-3.6c.9-1.9 2.2-5.5 3-8 2-5.8 6.3-17.9 7.4-20.5.8-2 7.4-20.7 11.2-32 1.1-3.3 2.4-6.3 2.7-6.8.4-.4 1.8 2.8 3.1 7 1.3 4.3 2.8 8.9 3.3 10.3 1.2 3 1.8 5 1.9 6.7.1.7.6 1.3 1.1 1.3.6 0 .8.2.5.6-.3.3.5 3.7 1.9 7.7s2.6 7.9 2.8 8.7c.2.8.6 2.3 1 3.2.8 2 .8 2-14.1 1.9l-9.1-.1.1 11.7.1 11.8h29.3c16.1 0 29.7-.2 30.1-.5.7-.4-1.4-8.6-3.6-14-.3-.8-.7-2-.9-2.5-.1-.6-2.3-7.1-4.9-14.5-2.5-7.4-6.2-18.2-8.1-24-1.9-5.8-3.8-11.2-4.1-12-.3-.8-.7-1.7-.7-2-.3-1.3-10.9-32.8-11.6-34.5-.5-1.1-1-2.7-1.3-3.5-.3-1.2-2.9-1.5-15.5-1.6-8.3 0-15.7.3-16.3.6z"/><path d="M115.9 294.7c0 1 0 25.4-.1 54.3l-.1 52.4 43.1.1h43l-1-2.5c-.5-1.4-2.1-5.4-3.4-9-1.4-3.6-3-7.7-3.7-9.2l-1.1-2.7-23.8.2-23.8.2V371c-.1-12.6.1-46.7.4-61.5.1-7.7.1-14.6-.2-15.3-.3-.9-4.2-1.2-14.8-1.2-13 0-14.4.2-14.5 1.7zM352.8 293.5c-.2.2-5.5.5-11.8.6-13.3.2-16.9 1.4-20 6.4-2.1 3.3-2.2 4.6-2.2 26-.1 33.2-.8 32.5 32.9 32.2l22.3-.2V379h-27.5c-27.9 0-29.6.2-26.7 3.5.5.6 2.4 5.2 4.2 10.2 2.2 6.1 4 9.3 5 9.4 1.8.1 56.8.1 62.6 0 4.9-.1 10.3-3.4 12.3-7.6 1.1-2.3 1.4-8.1 1.4-25.1 0-21.2-.1-22.2-2.3-26.2-3.5-6.3-5.4-6.7-30.5-6.7h-22l-.2-9.7-.1-9.7 23.1.1 23.2.1 3.9-11.2c2.1-6.2 3.6-11.4 3.4-11.6-.2-.3-6.9-.4-14.9-.4-7.9 0-15.3 0-16.4-.1-9.9-.1-14.8 0-15.2.4-.3.3-1.3.1-2.3-.4-1-.5-1.9-.7-2.2-.5zM429.4 293.8l-20 .2.1 53.3c.1 29.2.2 53.6.3 54.2.2.8 46.2 1.2 73.7.6l4-.1 3.4-10.3c1.8-5.6 3.5-10.8 3.8-11.5.4-.9-5.6-1.2-27.6-1.2H439v-9.5c0-6.9.3-9.5 1.3-9.6.6 0 11.4-.1 24-.1l22.7-.1v-22.4l-22.7-.1c-12.6 0-23.4-.1-24-.1-1-.1-1.3-2.8-1.3-10v-9.9l24 .2 24 .1 2.5-6.5c3.9-10.4 4.6-12.5 4.7-13 0-.3.4-1 .9-1.7 1.6-1.9-.3-2.2-12.7-2.2-6.6 0-12.8 0-13.9-.1-10.4-.1-14.8 0-15.2.4-.3.3-1.3.2-2.2-.2-.9-.4-10.6-.6-21.7-.4zM523.1 294l-22.4.5.1 51.5c0 28.3.1 52.6.1 54l.1 2.5 12-.2c6.6 0 13.2-.2 14.8-.2l2.7-.1-.2-20.3c-.2-11.1-.4-29.8-.5-41.5l-.3-21.2 6-.1c15.8-.1 19.7 0 20.1.4.4.4.7 10.4.5 16.9l-.1 2.7-10.5-.2c-6.3-.1-10.6.2-10.8.8-.2.5-.3 5-.2 10 .1 8.4.4 9.6 4.4 18 5.6 11.7 10.1 21.4 13.6 29.5 1.6 3.6 3.1 6.7 3.3 7 .2.3 7.1.6 15.3.6 14.5.2 14.9.1 14.3-1.8-.3-1.1-3.4-7.9-6.9-15.1C567.9 365.4 565 359 565 358c0-.5 1.9-.9 4.3-.8 7.2.4 14.3-4.2 16.4-10.7.5-1.7.9-11.8.8-22.5-.1-21-.6-23.5-5.5-27.2-2.7-2-7.6-3.1-12.5-2.8-1.6.1-3.7.2-4.5.1-5-.3-14.3-.1-14.7.3-.3.3-1.3.2-2.2-.2-.9-.4-11.7-.5-24-.2z"/></svg>