<?xml version="1.0" ?><svg viewBox="0 0 64 64" xmlns="http://www.w3.org/2000/svg"><g id="outline"><path d="M54.233,33a7.971,7.971,0,0,0-5.588,2.286l-6.5-3.034.815-2.989a1,1,0,0,0,.021-.428L42,22.917V19.839l6.568-3.983A7.988,7.988,0,1,0,46,10c0,.027,0,.053,0,.079l-4.122,1.473a.951.951,0,0,0-.05-.107l-4-6a.96.96,0,0,0-.1-.118c-.013-.015-.024-.031-.038-.045a.983.983,0,0,0-.276-.185c-.023-.011-.045-.018-.068-.027A1,1,0,0,0,37,5H27a1,1,0,0,0-.348.07c-.023.009-.045.016-.068.027a.983.983,0,0,0-.276.185c-.014.014-.025.03-.038.045a.96.96,0,0,0-.1.118l-4,6a.951.951,0,0,0-.05.107L18,10.079c0-.026,0-.052,0-.079a8.031,8.031,0,1,0-2.568,5.856L22,19.839v3.078l-.986,5.918a1,1,0,0,0,.021.428l.815,2.989-6.5,3.034a8,8,0,1,0,2.388,6.176l6.075-1.994.217.795A1,1,0,0,0,25,41h1v4a3,3,0,0,0,3,3h6a3,3,0,0,0,3-3V41h1a1,1,0,0,0,.965-.737l.217-.795,6.075,1.994A7.995,7.995,0,1,0,54.233,33Zm0,2a5.962,5.962,0,0,1,2.267.448l-1.737,2.6c-.08-.014-.164-.016-.245-.024l-3.887-1.816A5.959,5.959,0,0,1,54.233,35Zm-5.914,5.033a5.958,5.958,0,0,1,.877-2.282l2.778,1.3a2.977,2.977,0,0,0-.74,1.942ZM54.233,42a1,1,0,1,1,1-1A1,1,0,0,1,54.233,42Zm-3.2-31.594a2.969,2.969,0,0,0,.512,1.3L48.976,13.27a5.964,5.964,0,0,1-.8-1.843Zm1.969-.3A1,1,0,1,1,54.1,11,1,1,0,0,1,53.005,10.1Zm-2.637,4.663,3.022-1.832A2.99,2.99,0,0,0,54,13a2.9,2.9,0,0,0,.307-.016,2.978,2.978,0,0,0,.424-.087l1.717,2.576a5.953,5.953,0,0,1-6.079-.708ZM60,10a5.981,5.981,0,0,1-1.891,4.361L56.4,11.789A2.977,2.977,0,0,0,55,7.18V4.09A6.006,6.006,0,0,1,60,10ZM53,4.09V7.181a2.989,2.989,0,0,0-1.268.867c-.023.007-.046,0-.068.01l-3.628,1.3A6.007,6.007,0,0,1,53,4.09ZM47.268,14.306,42,17.5V13.634L46.289,12.1A7.962,7.962,0,0,0,47.268,14.306ZM40,22H38V9.3l2,3ZM36,7V22H28V7Zm0,32H28V24h8ZM26,9.3V22H24V12.3ZM12.456,11.714a2.974,2.974,0,0,0,.5-1.309l2.862,1.022a5.964,5.964,0,0,1-.8,1.843ZM9,10a1,1,0,1,1,1,1A1,1,0,0,1,9,10Zm6.964-.646-3.628-1.3c-.025-.009-.052,0-.078-.011A2.992,2.992,0,0,0,11,7.184V4.09A6.007,6.007,0,0,1,15.964,9.354ZM4,10A6.006,6.006,0,0,1,9,4.09V7.184a2.97,2.97,0,0,0-1.394,4.6L5.891,14.361A5.981,5.981,0,0,1,4,10Zm6,6a5.955,5.955,0,0,1-2.447-.527L9.269,12.9A2.937,2.937,0,0,0,10,13a3.04,3.04,0,0,0,.615-.064l3.017,1.829A5.965,5.965,0,0,1,10,16Zm6.732-1.694a7.962,7.962,0,0,0,.979-2.2L22,13.634V17.5ZM9.767,40a1,1,0,1,1-1,1A1,1,0,0,1,9.767,40Zm3,.99a2.977,2.977,0,0,0-.74-1.942l2.778-1.3a5.958,5.958,0,0,1,.877,2.282Zm.6-4.777L9.482,38.029c-.081.008-.165.01-.245.024L7.5,35.448a5.957,5.957,0,0,1,5.869.765ZM3.767,41A5.979,5.979,0,0,1,5.8,36.507l1.7,2.548A2.971,2.971,0,0,0,9,43.888v3.057A6,6,0,0,1,3.767,41ZM11,46.871V43.728a2.833,2.833,0,0,0,.276-.151c.012,0,.024,0,.036,0l4.342-1.425A6.015,6.015,0,0,1,11,46.871ZM17.606,39.4a7.944,7.944,0,0,0-.982-2.5l5.76-2.691.908,3.326Zm5.416-10.454L23.847,24H26V39h-.236ZM36,45a1,1,0,0,1-1,1H29a1,1,0,0,1-1-1V41h2.278A1.978,1.978,0,0,0,30,42a2,2,0,0,0,4,0,1.978,1.978,0,0,0-.278-1H36Zm2.236-6H38V24h2.153l.825,4.948Zm3.38-4.79,5.76,2.691a7.944,7.944,0,0,0-.982,2.5l-5.686-1.866Zm6.73,7.937,4.342,1.425c.012,0,.024,0,.036,0a2.833,2.833,0,0,0,.276.151v3.143A6.015,6.015,0,0,1,48.346,42.147ZM55,46.945V43.888a2.97,2.97,0,0,0,1.5-4.833l1.7-2.548A5.987,5.987,0,0,1,55,46.945Z"/><path d="M22.749,56.043a1,1,0,0,0-1.5,1.326A14.285,14.285,0,0,0,32,62a14.285,14.285,0,0,0,10.749-4.631,1,1,0,0,0-1.5-1.326A12.283,12.283,0,0,1,32,60,12.283,12.283,0,0,1,22.749,56.043Z"/><path d="M26.083,53.242a1,1,0,1,0-1.595,1.207A9.391,9.391,0,0,0,32,58a10.239,10.239,0,0,0,1.1-.06c.233-.025.459-.071.687-.111.125-.023.253-.036.376-.063.272-.059.536-.138.8-.219.074-.023.152-.038.226-.063.263-.088.517-.194.769-.3.071-.03.144-.054.213-.086.231-.107.451-.229.671-.353.086-.048.176-.091.26-.142.191-.115.371-.245.552-.374.1-.074.213-.143.314-.222.151-.118.291-.247.434-.374.118-.105.24-.207.352-.319s.226-.245.337-.37c.095-.106.2-.205.287-.316.01-.013.012-.029.022-.042.037-.046.08-.087.115-.134a1,1,0,1,0-1.595-1.207c-.1.132-.214.252-.325.376-.088.1-.172.2-.267.293s-.178.161-.268.241c-.114.1-.225.2-.346.3-.077.059-.159.11-.238.166-.145.1-.289.206-.443.3-.061.036-.127.067-.189.1-.178.1-.357.2-.544.282-.049.022-.1.039-.151.06-.2.088-.41.172-.623.242-.054.018-.111.029-.165.046-.212.064-.426.126-.645.173-.095.021-.193.031-.289.047-.184.033-.366.068-.553.088A8.1,8.1,0,0,1,32,56,7.385,7.385,0,0,1,26.083,53.242Z"/><path d="M32,54a4.387,4.387,0,0,0,4.23-2.814,1,1,0,0,0-1.891-.652,2.6,2.6,0,0,1-4.678,0,1,1,0,0,0-1.891.652A4.387,4.387,0,0,0,32,54Z"/></g></svg>