<?xml version="1.0" encoding="iso-8859-1"?>
<!-- Generator: Adobe Illustrator 19.0.0, SVG Export Plug-In . SVG Version: 6.00 Build 0)  -->
<svg version="1.1" id="Capa_1" xmlns="http://www.w3.org/2000/svg" xmlns:xlink="http://www.w3.org/1999/xlink" x="0px" y="0px"
	 viewBox="0 0 512 512" style="enable-background:new 0 0 512 512;" xml:space="preserve">
<g>
	<g>
		<g>
			<rect x="270.672" width="32" height="32"/>
			<polygon points="448,0 334.672,0 334.672,32 416,32 416,96 156.368,96 298.592,256 156.368,416 416,416 416,480 96,480 
				96,406.08 229.408,256 96,105.92 96,32 174.672,32 174.672,0 64,0 64,118.08 186.592,256 64,393.92 64,512 448,512 448,384 
				227.632,384 341.408,256 227.632,128 448,128 			"/>
			<rect x="206.672" width="32" height="32"/>
		</g>
	</g>
</g>
<g>
</g>
<g>
</g>
<g>
</g>
<g>
</g>
<g>
</g>
<g>
</g>
<g>
</g>
<g>
</g>
<g>
</g>
<g>
</g>
<g>
</g>
<g>
</g>
<g>
</g>
<g>
</g>
<g>
</g>
</svg>
