<?xml version="1.0" encoding="utf-8"?>
<!-- Generator: Adobe Illustrator 22.0.0, SVG Export Plug-In . SVG Version: 6.00 Build 0)  -->
<svg version="1.1" id="Layer_1" xmlns="http://www.w3.org/2000/svg" xmlns:xlink="http://www.w3.org/1999/xlink" x="0px" y="0px"
	 viewBox="0 0 907.7 233.6" style="enable-background:new 0 0 907.7 233.6;" xml:space="preserve">
<style type="text/css">
	.st0{fill:#06242D;stroke:#06242D;stroke-miterlimit:10;}
	.st1{fill:#00D1FF;stroke:#00D1FF;stroke-miterlimit:10;}
</style>
<g id="Lfkt7g.tif">
	<g>
		<path d="M170,55.5c-0.6-0.3-1.2-0.6-1.7-1C149.1,39.4,127.4,34,103.5,38c-37.7,6.4-65.7,39.8-66.2,78.5
			c-0.4,37.9,27.1,71.7,64.1,79.4c5.6,1.2,8.9-0.1,11.9-4.8c9.6-14.5,15.3-30.6,20.7-46.9c0.4-1.2,0.5-2.4,0.9-3.9
			c-15,6.9-26.3,5.8-35.6-3.2c-8.4-8.1-11.1-20.5-5.9-31.3c7.1-14.8,19.6-18.7,34.8-15.3C134.9,68.3,145.3,59.7,170,55.5z
			 M167.6,126.9c16.6,0,29.9-13.3,29.9-29.7c0-16.2-13.4-29.4-29.7-29.4c-16.8,0-30,13-30,29.5C137.6,113.7,150.9,126.9,167.6,126.9
			z M121.9,196.6c38.5-0.2,72.2-34,74.7-68c-14.6,11.5-30.2,13.5-47.2,5.6C142.4,155.9,136.4,177.7,121.9,196.6z"/>
		<path class="st0" d="M170,55.5c-24.7,4.3-35,12.8-41.8,35c-15.2-3.4-27.7,0.5-34.8,15.3c-5.2,10.8-2.5,23.1,5.9,31.3
			c9.3,9,20.5,10.1,35.6,3.2c-0.3,1.5-0.5,2.8-0.9,3.9c-5.4,16.3-11.1,32.4-20.7,46.9c-3.1,4.7-6.3,6-11.9,4.8
			c-37-7.7-64.5-41.5-64.1-79.4c0.5-38.7,28.5-72.1,66.2-78.5c23.9-4.1,45.6,1.4,64.7,16.5C168.7,54.9,169.4,55.2,170,55.5z"/>
		<path class="st1" d="M167.6,126.9c-16.7,0-30-13.2-29.9-29.7c0.1-16.6,13.3-29.5,30-29.5c16.3,0,29.7,13.3,29.7,29.4
			C197.5,113.6,184.2,126.9,167.6,126.9z"/>
		<path class="st1" d="M121.9,196.6c14.5-18.8,20.5-40.7,27.4-62.4c17,7.8,32.6,5.9,47.2-5.6C194.1,162.6,160.4,196.3,121.9,196.6z"
			/>
	</g>
</g>
<g>
	<path d="M267.6,108c-2.1,1.1-6.4,2.1-11.9,2.1c-12.7,0-22.3-8-22.3-22.8c0-14.1,9.6-23.7,23.6-23.7c5.6,0,9.2,1.2,10.7,2l-1.4,4.8
		c-2.2-1.1-5.4-1.9-9.1-1.9c-10.6,0-17.6,6.8-17.6,18.6c0,11.1,6.4,18.2,17.4,18.2c3.6,0,7.2-0.7,9.5-1.9L267.6,108z"/>
	<path d="M277.3,94.4c0.1,8,5.2,11.3,11.1,11.3c4.2,0,6.8-0.7,9-1.7l1,4.2c-2.1,0.9-5.6,2-10.8,2c-10,0-15.9-6.6-15.9-16.3
		s5.8-17.5,15.2-17.5c10.6,0,13.4,9.3,13.4,15.3c0,1.2-0.1,2.1-0.2,2.7H277.3z M294.6,90.1c0.1-3.8-1.5-9.6-8.2-9.6
		c-6,0-8.6,5.5-9,9.6H294.6z"/>
	<path d="M307.6,85.9c0-3.4-0.1-6.1-0.3-8.8h5.2l0.3,5.4h0.1c1.6-3.1,5.4-6.1,10.7-6.1c4.5,0,11.5,2.7,11.5,13.8v19.4h-5.9V90.8
		c0-5.2-1.9-9.6-7.5-9.6c-3.9,0-6.9,2.7-7.9,6c-0.3,0.7-0.4,1.7-0.4,2.7v19.5h-5.9V85.9z"/>
	<path d="M351.6,67.8v9.3h8.4v4.5h-8.4v17.5c0,4,1.1,6.3,4.4,6.3c1.5,0,2.7-0.2,3.4-0.4l0.3,4.4c-1.1,0.5-2.9,0.8-5.2,0.8
		c-2.7,0-5-0.9-6.4-2.5c-1.7-1.7-2.3-4.6-2.3-8.4V81.6h-5v-4.5h5v-7.8L351.6,67.8z"/>
	<path d="M366.7,87.2c0-3.8-0.1-7.1-0.3-10.1h5.2l0.2,6.4h0.3c1.5-4.4,5-7.1,9-7.1c0.7,0,1.1,0.1,1.7,0.2v5.6
		c-0.6-0.1-1.2-0.2-2-0.2c-4.2,0-7.1,3.1-7.9,7.6c-0.1,0.8-0.3,1.7-0.3,2.7v17.3h-5.8V87.2z"/>
	<path d="M417.3,93c0,12-8.3,17.2-16.1,17.2c-8.8,0-15.5-6.4-15.5-16.7c0-10.9,7.1-17.2,16.1-17.2C411,76.3,417.3,83.1,417.3,93z
		 M391.5,93.4c0,7.1,4.1,12.5,9.8,12.5c5.6,0,9.8-5.3,9.8-12.6c0-5.5-2.7-12.5-9.7-12.5C394.5,80.8,391.5,87.2,391.5,93.4z"/>
	<path d="M466.9,61.9v39.2c0,2.9,0.1,6.2,0.3,8.4h-5.3l-0.3-5.6h-0.1c-1.8,3.6-5.8,6.4-11.1,6.4c-7.8,0-13.9-6.6-13.9-16.5
		c-0.1-10.8,6.6-17.4,14.5-17.4c5,0,8.3,2.3,9.8,5h0.1V61.9H466.9z M461,90.3c0-0.7-0.1-1.7-0.3-2.5c-0.9-3.8-4.1-6.8-8.5-6.8
		c-6.1,0-9.7,5.4-9.7,12.5c0,6.6,3.2,12,9.6,12c4,0,7.6-2.6,8.6-7c0.2-0.8,0.3-1.6,0.3-2.5V90.3z"/>
	<path d="M480,94.4c0.1,8,5.2,11.3,11.1,11.3c4.2,0,6.8-0.7,9-1.7l1,4.2c-2.1,0.9-5.6,2-10.8,2c-10,0-15.9-6.6-15.9-16.3
		s5.8-17.5,15.2-17.5c10.6,0,13.4,9.3,13.4,15.3c0,1.2-0.1,2.1-0.2,2.7H480z M497.3,90.1c0.1-3.8-1.5-9.6-8.2-9.6
		c-6,0-8.6,5.5-9,9.6H497.3z"/>
	<path d="M530.5,64.3v45.2h-5.8V64.3H530.5z"/>
	<path d="M541.1,85.9c0-3.4-0.1-6.1-0.3-8.8h5.2l0.3,5.4h0.1c1.6-3.1,5.4-6.1,10.7-6.1c4.5,0,11.5,2.7,11.5,13.8v19.4h-5.9V90.8
		c0-5.2-1.9-9.6-7.5-9.6c-3.9,0-6.9,2.7-7.9,6C547.2,88,547,89,547,90v19.5h-5.9V85.9z"/>
	<path d="M578.9,109.5V81.6h-4.6v-4.5h4.6v-1.5c0-4.6,1-8.7,3.8-11.3c2.2-2.1,5.2-3,7.9-3c2.1,0,3.9,0.5,5,0.9l-0.8,4.6
		c-0.9-0.4-2.1-0.7-3.8-0.7c-5,0-6.3,4.4-6.3,9.4v1.7h7.8v4.5h-7.8v27.9H578.9z"/>
	<path d="M626.4,93c0,12-8.3,17.2-16.1,17.2c-8.8,0-15.5-6.4-15.5-16.7c0-10.9,7.1-17.2,16.1-17.2C620.1,76.3,626.4,83.1,626.4,93z
		 M600.6,93.4c0,7.1,4.1,12.5,9.8,12.5c5.6,0,9.8-5.3,9.8-12.6c0-5.5-2.7-12.5-9.7-12.5C603.7,80.8,600.6,87.2,600.6,93.4z"/>
	<path d="M633.8,87.2c0-3.8-0.1-7.1-0.3-10.1h5.2l0.2,6.4h0.3c1.5-4.4,5-7.1,9-7.1c0.7,0,1.1,0.1,1.7,0.2v5.6
		c-0.6-0.1-1.2-0.2-2-0.2c-4.2,0-7.1,3.1-7.9,7.6c-0.1,0.8-0.3,1.7-0.3,2.7v17.3h-5.8V87.2z"/>
	<path d="M656,85.9c0-3.4-0.1-6.1-0.3-8.8h5.2l0.3,5.2h0.2c1.8-3.1,4.8-6,10.2-6c4.4,0,7.8,2.7,9.2,6.5h0.1c1-1.8,2.3-3.2,3.6-4.2
		c1.9-1.5,4.1-2.3,7.2-2.3c4.3,0,10.7,2.8,10.7,14.1v19.1h-5.8V91.1c0-6.2-2.3-10-7-10c-3.3,0-6,2.5-7,5.4c-0.3,0.8-0.5,1.9-0.5,2.9
		v20h-5.8V90.1c0-5.2-2.3-8.9-6.8-8.9c-3.7,0-6.4,2.9-7.3,5.9c-0.3,0.9-0.5,1.9-0.5,2.9v19.6H656V85.9z"/>
	<path d="M729.8,109.5l-0.5-4.1h-0.2c-1.8,2.5-5.3,4.8-9.9,4.8c-6.6,0-9.9-4.6-9.9-9.3c0-7.8,7-12.1,19.5-12.1v-0.7
		c0-2.7-0.7-7.5-7.4-7.5c-3,0-6.2,0.9-8.4,2.4l-1.3-3.9c2.7-1.7,6.6-2.9,10.7-2.9c9.9,0,12.3,6.8,12.3,13.3v12.1
		c0,2.8,0.1,5.6,0.5,7.8H729.8z M728.9,93c-6.4-0.1-13.7,1-13.7,7.3c0,3.8,2.5,5.6,5.6,5.6c4.2,0,6.9-2.7,7.8-5.4
		c0.2-0.6,0.3-1.3,0.3-1.9V93z M731.9,63.1l-8.2,9.6h-4.2l5.9-9.6H731.9z"/>
	<path d="M751,67.8v9.3h8.4v4.5H751v17.5c0,4,1.1,6.3,4.4,6.3c1.5,0,2.7-0.2,3.4-0.4l0.3,4.4c-1.1,0.5-2.9,0.8-5.2,0.8
		c-2.7,0-5-0.9-6.4-2.5c-1.7-1.7-2.3-4.6-2.3-8.4V81.6h-5v-4.5h5v-7.8L751,67.8z"/>
	<path d="M772.6,68c0.1,2-1.4,3.6-3.8,3.6c-2.1,0-3.6-1.6-3.6-3.6c0-2.1,1.5-3.7,3.7-3.7C771.2,64.3,772.6,65.9,772.6,68z
		 M766.1,109.5V77.1h5.9v32.4H766.1z"/>
	<path d="M804.8,108.3c-1.5,0.8-5,1.9-9.3,1.9c-9.8,0-16.1-6.6-16.1-16.5c0-10,6.8-17.2,17.4-17.2c3.5,0,6.6,0.9,8.2,1.7l-1.3,4.6
		c-1.4-0.8-3.6-1.5-6.8-1.5c-7.4,0-11.5,5.5-11.5,12.3c0,7.5,4.8,12.1,11.3,12.1c3.3,0,5.6-0.9,7.2-1.6L804.8,108.3z"/>
	<path d="M829.7,109.5l-0.5-4.1H829c-1.8,2.5-5.3,4.8-9.9,4.8c-6.6,0-9.9-4.6-9.9-9.3c0-7.8,7-12.1,19.5-12.1v-0.7
		c0-2.7-0.7-7.5-7.4-7.5c-3,0-6.2,0.9-8.4,2.4l-1.3-3.9c2.7-1.7,6.6-2.9,10.7-2.9c9.9,0,12.3,6.8,12.3,13.3v12.1
		c0,2.8,0.1,5.6,0.5,7.8H829.7z M828.8,93c-6.4-0.1-13.7,1-13.7,7.3c0,3.8,2.5,5.6,5.6,5.6c4.2,0,6.9-2.7,7.8-5.4
		c0.2-0.6,0.3-1.3,0.3-1.9V93z"/>
</g>
<g>
	<path d="M462.3,134.2v20.7c0,7.9,3.5,11.2,8.2,11.2c5.2,0,8.5-3.4,8.5-11.2v-20.7h4.6v20.4c0,10.8-5.7,15.2-13.3,15.2
		c-7.2,0-12.6-4.1-12.6-15v-20.6H462.3z"/>
	<path d="M491.4,134.2h18.9v3.8H496v11.6h13.3v3.7H496v15.9h-4.5V134.2z"/>
	<path d="M516.8,134.6c2.2-0.4,5-0.7,8.7-0.7c4.5,0,7.7,1,9.8,2.9c1.9,1.7,3.1,4.2,3.1,7.3c0,3.2-0.9,5.7-2.7,7.5
		c-2.4,2.5-6.3,3.8-10.7,3.8c-1.4,0-2.6-0.1-3.6-0.3v14h-4.5V134.6z M521.3,151.5c1,0.3,2.2,0.4,3.7,0.4c5.5,0,8.8-2.7,8.8-7.5
		c0-4.6-3.3-6.9-8.3-6.9c-2,0-3.5,0.2-4.3,0.4V151.5z"/>
	<path d="M544.4,134.6c2-0.4,5.1-0.7,8.3-0.7c4.5,0,7.4,0.8,9.6,2.5c1.8,1.4,2.9,3.4,2.9,6.2c0,3.4-2.2,6.3-5.9,7.7v0.1
		c3.3,0.8,7.2,3.6,7.2,8.8c0,3-1.2,5.3-3,7c-2.4,2.2-6.4,3.3-12.1,3.3c-3.1,0-5.5-0.2-7-0.4V134.6z M549,149h4.1
		c4.8,0,7.6-2.5,7.6-5.9c0-4.1-3.1-5.7-7.7-5.7c-2.1,0-3.3,0.2-4,0.3V149z M549,165.8c0.9,0.2,2.2,0.2,3.8,0.2c4.7,0,9-1.7,9-6.8
		c0-4.8-4.1-6.8-9-6.8H549V165.8z"/>
</g>
</svg>
