<?xml version="1.0" encoding="utf-8"?>
<!-- Generator: Adobe Illustrator 22.0.0, SVG Export Plug-In . SVG Version: 6.00 Build 0)  -->
<svg version="1.1" id="Layer_1" xmlns="http://www.w3.org/2000/svg" xmlns:xlink="http://www.w3.org/1999/xlink" x="0px" y="0px"
	 viewBox="0 0 237.7 233.6" style="enable-background:new 0 0 237.7 233.6;" xml:space="preserve">
<style type="text/css">
	.st0{fill:#06242D;}
	.st1{fill:#00D1FF;}
</style>
<g id="Lfkt7g.tif">
	<g>
		<path d="M170,55.5c-0.6-0.3-1.2-0.6-1.7-1C149.1,39.4,127.4,34,103.5,38c-37.7,6.4-65.7,39.8-66.2,78.5
			c-0.4,37.9,27.1,71.7,64.1,79.4c5.6,1.2,8.9-0.1,11.9-4.8c9.6-14.5,15.3-30.6,20.7-46.9c0.4-1.2,0.5-2.4,0.9-3.9
			c-15,6.9-26.3,5.8-35.6-3.2c-8.4-8.1-11.1-20.5-5.9-31.3c7.1-14.8,19.6-18.7,34.8-15.3C134.9,68.3,145.3,59.7,170,55.5z
			 M167.6,126.9c16.6,0,29.9-13.3,29.9-29.7c0-16.2-13.4-29.4-29.7-29.4c-16.8,0-30,13-30,29.5C137.6,113.7,150.9,126.9,167.6,126.9
			z M121.9,196.6c38.5-0.2,72.2-34,74.7-68c-14.6,11.5-30.2,13.5-47.2,5.6C142.4,155.9,136.4,177.7,121.9,196.6z"/>
		<path class="st0" d="M170,55.5c-24.7,4.3-35,12.8-41.8,35c-15.2-3.4-27.7,0.5-34.8,15.3c-5.2,10.8-2.5,23.1,5.9,31.3
			c9.3,9,20.5,10.1,35.6,3.2c-0.3,1.5-0.5,2.8-0.9,3.9c-5.4,16.3-11.1,32.4-20.7,46.9c-3.1,4.7-6.3,6-11.9,4.8
			c-37-7.7-64.5-41.5-64.1-79.4c0.5-38.7,28.5-72.1,66.2-78.5c23.9-4.1,45.6,1.4,64.7,16.5C168.7,54.9,169.4,55.2,170,55.5z"/>
		<path class="st1" d="M167.6,126.9c-16.7,0-30-13.2-29.9-29.7c0.1-16.6,13.3-29.5,30-29.5c16.3,0,29.7,13.3,29.7,29.4
			C197.5,113.6,184.2,126.9,167.6,126.9z"/>
		<path class="st1" d="M121.9,196.6c14.5-18.8,20.5-40.7,27.4-62.4c17,7.8,32.6,5.9,47.2-5.6C194.1,162.6,160.4,196.3,121.9,196.6z"
			/>
	</g>
</g>
</svg>
