<?xml version="1.0" encoding="utf-8"?>
<!-- Generator: Adobe Illustrator 22.0.0, SVG Export Plug-In . SVG Version: 6.00 Build 0)  -->
<svg version="1.1" id="Layer_1" xmlns="http://www.w3.org/2000/svg" xmlns:xlink="http://www.w3.org/1999/xlink" x="0px" y="0px"
	 viewBox="0 0 517.9 321.7" style="enable-background:new 0 0 517.9 321.7;" xml:space="preserve">
<style type="text/css">
	.st0{display:none;}
	.st1{display:inline;}
	.st2{fill:#298DC3;}
	.st3{fill:#001F29;}
	.st4{fill:#2399D6;}
	.st5{font-family:'TransformersMovie';}
	.st6{font-size:21.6231px;}
	.st7{fill:#FFFFFF;}
	.st8{fill:#FEFEFD;}
	.st9{fill:#3F3A33;}
	.st10{fill:#2699D6;}
	.st11{fill:#3A3735;}
	.st12{fill:#393634;}
	.st13{fill:none;stroke:#3A3735;stroke-width:2;stroke-linejoin:round;}
	.st14{fill:none;stroke:#040006;stroke-miterlimit:10;}
	.st15{fill:#00202A;}
	.st16{enable-background:new    ;}
	.st17{fill:#3B69AC;}
	.st18{fill:#070308;}
	.st19{fill:#3969AC;}
</style>
<g id="Logo_v3" class="st0">
	<g id="layer1-3_2_" transform="translate(49.109684,-141.95153)" class="st1">
		<g id="flowRoot993_2_">
		</g>
		<g id="g941-6-6-7_2_" transform="translate(1153.7883,49.010859)">
			<g id="g876-0-2-4_2_" transform="matrix(1.0651962,0,0,1.0651962,-294.92638,152.84156)">
				<path id="path870-8-6-5_2_" class="st2" d="M-753.1,108.1c0.7,1.6,1.4,3.3,2.1,4.9c-8,16.1-1.1,33.1,2,38.7
					C-750.6,151.4-766.2,132.3-753.1,108.1z"/>
			</g>
			<g id="g880-3-1-2_2_">
				<path id="path872-7-8-5_2_" class="st3" d="M-1097.2,268c-1.9,0.2-3.7,0.4-5.6,0.6c-16.7,38.6,17.6,62.7,37,61.4
					c-1-1.6-2.1-3.2-3.1-4.7C-1085.5,324.3-1114.5,303.5-1097.2,268"/>
				<path id="path870-7-2-9-7_2_" class="st2" d="M-1031.7,269.6c-1.9-0.2-3.8-0.4-5.7-0.6c-10.6-15.9-30-18.7-36.8-18.8
					C-1072.9,248.8-1047.1,244.6-1031.7,269.6z"/>
				<path id="path872-5-1-2-4_2_" class="st3" d="M-1031.7,269.6c0.8-1.7,1.5-3.4,2.3-5.1c-25.1-33.8-63.1-16.1-71.7,1.4
					c1.9-0.1,3.8-0.2,5.7-0.3C-1086.2,251.6-1053.7,236.8-1031.7,269.6"/>
				<path id="path870-7-5-5-2-3_2_" class="st2" d="M-1066,325.3c1.1-1.5,2.3-3.1,3.4-4.6c19.1-1.2,31.2-16.6,34.7-22.4
					C-1027.5,300-1036.8,324.5-1066,325.3z"/>
				<path id="path872-5-6-8-3-0_2_" class="st3" d="M-1066,325.3c1.1,1.5,2.2,3,3.3,4.5c41.8-4.8,45.5-46.6,34.7-62.7
					c-0.8,1.7-1.7,3.4-2.5,5.1C-1023.2,287.1-1026.6,322.6-1066,325.3"/>
			</g>
			<text transform="matrix(1 0 0 1 -1093.406 295.3689)" class="st4 st5 st6">Laser</text>
		</g>
	</g>
</g>
<g id="Layer_4">
</g>
<g id="Layer_5">
</g>
<g id="Layer_6">
	<g>
		<g>
			<rect x="70.1" y="34.4" class="st4" width="46" height="31"/>
			<g>
				<rect x="96.1" y="45.4" class="st7" width="2" height="14"/>
			</g>
			<g>
				<rect x="88.1" y="45.4" class="st7" width="2" height="14"/>
			</g>
			<g>
				<path class="st7" d="M108.1,53.4h-4c-1.7,0-3-1.3-3-3v-6h2v6c0,0.6,0.4,1,1,1h4V53.4z"/>
			</g>
			<g>
				<path class="st7" d="M82.1,53.4h-4v-2h4c0.6,0,1-0.4,1-1v-6h2v6C85.1,52,83.7,53.4,82.1,53.4z"/>
			</g>
			<g>
				<rect x="96.1" y="61.4" class="st7" width="2" height="2"/>
			</g>
			<g>
				<rect x="88.1" y="61.4" class="st7" width="2" height="2"/>
			</g>
			<g>
				<rect x="110.1" y="51.4" class="st7" width="2" height="2"/>
			</g>
			<g>
				<rect x="74.1" y="51.4" class="st7" width="2" height="2"/>
			</g>
			<g>
				<path class="st8" d="M107.1,28.4c0-1.5-0.8-2.8-2-3.5h-0.3c0.2-0.5,0.3-1,0.3-1.5c0-2.2-1.8-4-4-4H101c-0.4-1.7-2-3-3.9-3
					s-3.4,1.3-3.9,3h-0.3c-0.4-1.7-2-3-3.9-3s-3.4,1.3-3.9,3H85c-2.2,0-4,1.8-4,4c0,0.5,0.1,1,0.3,1.5H81c-1.2,0.7-2,2-2,3.5
					c0,1.6,1,3,2.3,3.6c-0.2,0.4-0.3,0.9-0.3,1.4c0,1.3,0.8,2.4,2,2.8l0.3-0.4c-0.2,0.5-0.3,1-0.3,1.6c0,2.8,2.2,5,5,5s5-2.2,5-5
					c0,2.8,2.2,5,5,5s5-2.2,5-5c0-0.4-0.1-0.8-0.2-1.2h0.2c1.2-0.4,2-1.5,2-2.8c0-0.5-0.1-1-0.3-1.4C106.1,31.4,107.1,30,107.1,28.4
					z"/>
			</g>
			<g>
				<path class="st9" d="M104.1,67.4v2h18v3c0,1.7-1.3,3-3,3h-52c-1.7,0-3-1.3-3-3v-3h18v-2h-20v5c0,2.8,2.2,5,5,5h52
					c2.8,0,5-2.2,5-5v-5H104.1z"/>
				<path class="st10" d="M84.1,70.4c0,1.7,1.3,3,3,3h12c1.7,0,3-1.3,3-3v-3h-18V70.4z"/>
				<path class="st9" d="M66.1,33.4c0-1.7,1.3-3,3-3h7v-2h-7c-2.8,0-5,2.2-5,5v32h2V33.4z"/>
				<path class="st9" d="M120.1,33.4v32h2v-32c0-2.8-2.2-5-5-5h-7v2h7C118.7,30.4,120.1,31.7,120.1,33.4z"/>
				<path class="st9" d="M68.1,34.4v31h2v-31h8v-2h-8C69,32.4,68.1,33.2,68.1,34.4z"/>
				<path class="st9" d="M118.1,65.4v-31c0-1.1-0.9-2-2-2h-8v2h8v31H118.1z"/>
				<path class="st11" d="M80.2,32.4c-0.1,0.3-0.1,0.6-0.1,0.9c0,1.5,0.8,2.8,2,3.5c0,0.2,0,0.3,0,0.5c0,3.3,2.7,6,6,6
					c2.1,0,3.9-1.1,5-2.7c1.1,1.6,2.9,2.7,5,2.7c3.3,0,6-2.7,6-6c0-0.2,0-0.4,0-0.5c1.2-0.7,2-2,2-3.5c0-0.3,0-0.6-0.1-0.9
					c1.3-0.9,2.1-2.4,2.1-4.1c0-1.6-0.8-3.1-2.1-4.1c0.1-0.3,0.1-0.6,0.1-0.9c0-2.5-1.9-4.6-4.4-4.9c-0.8-1.8-2.5-3.1-4.6-3.1
					c-1.6,0-3.1,0.8-4,2c-0.9-1.2-2.4-2-4-2c-2.1,0-3.8,1.3-4.6,3.1c-2.5,0.3-4.4,2.4-4.4,4.9c0,0.3,0,0.6,0.1,0.9
					c-1.3,0.9-2.1,2.4-2.1,4.1C78.1,30,78.9,31.5,80.2,32.4z M97.1,17.4c1.7,0,3,1.3,3,3s-1.3,3-3,3v2c2.7,0,4.9-2.1,5-4.8
					c1.2,0.4,2,1.5,2,2.8c0,1.7-1.3,3-3,3v2c1.7,0,3.2-0.9,4.1-2.1c0.6,0.6,0.9,1.3,0.9,2.1c0,1.2-0.7,2.2-1.8,2.7l-1,0.4l0.5,0.9
					c0.2,0.3,0.2,0.6,0.2,0.9c0,0.5-0.2,1-0.6,1.4c-1-2-3-3.4-5.4-3.4v2c2.2,0,4,1.8,4,4s-1.8,4-4,4s-4-1.8-4-4v-17
					C94.1,18.7,95.4,17.4,97.1,17.4z M81,26.2c0.9,1.3,2.4,2.1,4.1,2.1v-2c-1.7,0-3-1.3-3-3c0-1.3,0.8-2.4,2-2.8
					c0.1,2.7,2.3,4.8,5,4.8v-2c-1.7,0-3-1.3-3-3s1.3-3,3-3s3,1.3,3,3v17c0,2.2-1.8,4-4,4s-4-1.8-4-4s1.8-4,4-4v-2
					c-2.4,0-4.4,1.4-5.4,3.4c-0.4-0.4-0.6-0.9-0.6-1.4c0-0.3,0.1-0.6,0.2-0.9l0.5-0.9l-1-0.4c-1.1-0.5-1.8-1.6-1.8-2.7
					C80.1,27.5,80.4,26.8,81,26.2z"/>
				<rect x="66.1" y="71.4" class="st9" width="2" height="2"/>
				<rect x="70.1" y="71.4" class="st9" width="2" height="2"/>
				<rect x="74.1" y="71.4" class="st9" width="2" height="2"/>
			</g>
		</g>
		<g>
			<path class="st12" d="M70.3,91.7c0,0.8-0.1,1.6-0.4,2.2s-0.7,1.1-1.2,1.4s-1.1,0.5-1.8,0.5c-0.7,0-1.3-0.2-1.8-0.5
				s-0.9-0.8-1.2-1.4s-0.4-1.3-0.4-2.1v-0.6c0-0.8,0.1-1.5,0.4-2.2c0.3-0.7,0.7-1.1,1.2-1.4s1.1-0.5,1.8-0.5c0.7,0,1.3,0.2,1.8,0.5
				s0.9,0.8,1.2,1.4s0.4,1.4,0.4,2.2V91.7z M69.2,91.2c0-1-0.2-1.8-0.6-2.3s-1-0.8-1.7-0.8s-1.3,0.3-1.7,0.8s-0.6,1.3-0.6,2.3v0.6
				c0,1,0.2,1.8,0.6,2.3s1,0.8,1.7,0.8s1.3-0.3,1.7-0.8s0.6-1.3,0.6-2.3V91.2z"/>
			<path class="st12" d="M73.3,87.8v1.5h1.2v0.8h-1.2V94c0,0.3,0.1,0.4,0.2,0.6c0.1,0.1,0.3,0.2,0.5,0.2c0.1,0,0.3,0,0.5-0.1v0.9
				c-0.3,0.1-0.6,0.1-0.8,0.1c-0.5,0-0.8-0.1-1.1-0.4s-0.4-0.7-0.4-1.2v-3.9H71v-0.8h1.2v-1.5L73.3,87.8L73.3,87.8z"/>
			<path class="st12" d="M75.7,87.7c0-0.2,0.1-0.3,0.2-0.4s0.3-0.2,0.5-0.2s0.4,0.1,0.5,0.2s0.2,0.3,0.2,0.4S77,88,76.9,88.1
				s-0.3,0.2-0.5,0.2s-0.4-0.1-0.5-0.2S75.7,87.9,75.7,87.7z M76.9,95.7h-1.1v-6.3h1.1V95.7z"/>
			<path class="st12" d="M79.7,89.4v0.7c0.5-0.5,1.1-0.8,1.9-0.8c0.9,0,1.5,0.3,1.8,1c0.2-0.3,0.5-0.6,0.8-0.7s0.7-0.3,1.2-0.3
				c1.4,0,2.1,0.7,2.1,2.2v4.2h-1.1v-4.2c0-0.5-0.1-0.8-0.3-1s-0.6-0.3-1-0.3s-0.7,0.1-1,0.4s-0.4,0.6-0.5,1v4.2h-1.1v-4.2
				c0-0.9-0.5-1.4-1.4-1.4c-0.7,0-1.2,0.3-1.5,0.9v4.6h-1.1v-6.3L79.7,89.4L79.7,89.4z"/>
			<path class="st12" d="M89.2,87.7c0-0.2,0.1-0.3,0.2-0.4s0.3-0.2,0.5-0.2s0.4,0.1,0.5,0.2s0.2,0.3,0.2,0.4s-0.1,0.3-0.2,0.4
				s-0.3,0.2-0.5,0.2s-0.4-0.1-0.5-0.2S89.2,87.9,89.2,87.7z M90.3,95.7h-1.1v-6.3h1.1V95.7z"/>
			<path class="st12" d="M93.1,94.8h3.7v0.9h-5v-0.8l3.5-4.6h-3.4v-0.9h4.8v0.8L93.1,94.8z"/>
			<path class="st12" d="M101.9,95.7c-0.1-0.1-0.1-0.3-0.2-0.7c-0.5,0.5-1.1,0.8-1.8,0.8c-0.6,0-1.1-0.2-1.5-0.5s-0.6-0.8-0.6-1.3
				c0-0.7,0.3-1.2,0.8-1.5s1.2-0.5,2.1-0.5h1.1v-0.5c0-0.4-0.1-0.7-0.3-0.9s-0.6-0.3-1-0.3s-0.7,0.1-1,0.3s-0.4,0.4-0.4,0.7H98
				c0-0.3,0.1-0.6,0.3-0.9s0.5-0.5,0.9-0.7s0.8-0.3,1.3-0.3c0.7,0,1.3,0.2,1.7,0.5s0.6,0.9,0.6,1.5v2.9c0,0.6,0.1,1,0.2,1.4v0.1
				L101.9,95.7L101.9,95.7z M100.1,94.9c0.3,0,0.7-0.1,1-0.3s0.5-0.4,0.7-0.7v-1.3H101c-1.3,0-2,0.4-2,1.2c0,0.3,0.1,0.6,0.3,0.8
				S99.8,94.9,100.1,94.9z"/>
			<path class="st12" d="M107.1,94.9c0.4,0,0.7-0.1,1-0.4s0.4-0.5,0.5-0.9h1c0,0.4-0.1,0.7-0.4,1s-0.5,0.6-0.9,0.8s-0.8,0.3-1.2,0.3
				c-0.9,0-1.5-0.3-2.1-0.9s-0.8-1.4-0.8-2.4v-0.2c0-0.6,0.1-1.2,0.3-1.6s0.6-0.9,1-1.1s0.9-0.4,1.5-0.4c0.7,0,1.3,0.2,1.8,0.6
				s0.7,1,0.8,1.7h-1c0-0.4-0.2-0.7-0.5-1s-0.6-0.4-1-0.4c-0.6,0-1,0.2-1.3,0.6s-0.5,1-0.5,1.7v0.2c0,0.7,0.2,1.3,0.5,1.7
				S106.5,94.9,107.1,94.9z M107.3,95.8l-0.1,0.3c0.6,0.1,0.9,0.4,0.9,1c0,0.4-0.2,0.7-0.5,0.9s-0.7,0.3-1.3,0.3v-0.6
				c0.3,0,0.5-0.1,0.7-0.2s0.3-0.2,0.3-0.4c0-0.2-0.1-0.3-0.2-0.4s-0.4-0.1-0.8-0.2l0.2-0.8L107.3,95.8L107.3,95.8z"/>
			<path class="st12" d="M114.7,95.7c-0.1-0.1-0.1-0.3-0.2-0.7c-0.5,0.5-1.1,0.8-1.8,0.8c-0.6,0-1.1-0.2-1.5-0.5s-0.6-0.8-0.6-1.3
				c0-0.7,0.3-1.2,0.8-1.5s1.2-0.5,2.1-0.5h1.1v-0.5c0-0.4-0.1-0.7-0.3-0.9s-0.6-0.3-1-0.3s-0.7,0.1-1,0.3s-0.4,0.4-0.4,0.7h-1.1
				c0-0.3,0.1-0.6,0.3-0.9s0.5-0.5,0.9-0.7s0.8-0.3,1.3-0.3c0.7,0,1.3,0.2,1.7,0.5s0.6,0.9,0.6,1.5v2.9c0,0.6,0.1,1,0.2,1.4v0.1
				L114.7,95.7L114.7,95.7z M115.5,86.9c0,0.4-0.1,0.8-0.4,1s-0.5,0.4-0.9,0.4c-0.2,0-0.3,0-0.4-0.1s-0.3-0.1-0.5-0.2
				s-0.3-0.2-0.4-0.2s-0.2,0-0.3,0c-0.2,0-0.3,0.1-0.4,0.2s-0.2,0.3-0.2,0.5h-0.7c0-0.4,0.1-0.8,0.4-1s0.5-0.4,0.9-0.4
				c0.1,0,0.3,0,0.4,0.1s0.3,0.1,0.4,0.2s0.3,0.2,0.4,0.2s0.2,0.1,0.3,0.1c0.2,0,0.3-0.1,0.4-0.2s0.2-0.3,0.2-0.5L115.5,86.9z
				 M112.9,94.9c0.3,0,0.7-0.1,1-0.3s0.5-0.4,0.7-0.7v-1.3h-0.8c-1.3,0-2,0.4-2,1.2c0,0.3,0.1,0.6,0.3,0.8S112.6,94.9,112.9,94.9z"
				/>
			<path class="st12" d="M117.1,92.5c0-0.6,0.1-1.2,0.4-1.7s0.6-0.9,1-1.1s0.9-0.4,1.5-0.4c0.9,0,1.6,0.3,2.1,0.9s0.8,1.4,0.8,2.4
				v0.1c0,0.6-0.1,1.2-0.4,1.7s-0.6,0.9-1,1.1s-0.9,0.4-1.5,0.4c-0.9,0-1.6-0.3-2.1-0.9S117.1,93.5,117.1,92.5L117.1,92.5z
				 M118.2,92.6c0,0.7,0.2,1.3,0.5,1.7s0.8,0.6,1.3,0.6c0.6,0,1-0.2,1.3-0.6s0.5-1,0.5-1.8c0-0.7-0.2-1.3-0.5-1.7s-0.8-0.6-1.3-0.6
				s-1,0.2-1.3,0.6S118.2,91.8,118.2,92.6z"/>
		</g>
	</g>
	<g>
		<g>
			<path class="st11" d="M366.9,40.8l0.2,3.4c0,0.6,0.3,1.1,0.7,1.5c0.4,0.4,0.9,0.6,1.5,0.6c1.1,0,2.1-0.9,2.2-2l0.2-3
				c-0.5,0.1-1,0.1-1.5,0.1C369,41.3,367.9,41.1,366.9,40.8z"/>
			<path class="st11" d="M366.2,28.5c1.2-0.5,2.5-0.8,3.9-0.8c0.8,0,1.5,0.1,2.2,0.3l0.1-2.1h3.5c0.7,0,1.3-0.5,1.3-1.1
				s-0.6-1.1-1.3-1.1h-3.4V23c0-0.1,0-0.1,0-0.2c0-1.8-1.5-3.4-3.4-3.4s-3.5,1.6-3.4,3.6v0.7h-3.3c-0.7,0-1.3,0.5-1.3,1.1
				s0.6,1.1,1.3,1.1h3.4L366.2,28.5z"/>
			<path class="st11" d="M431.2,41.2l0.2,3c0.1,1.1,1,2,2.2,2c0.6,0,1.1-0.2,1.5-0.6c0.4-0.4,0.6-0.9,0.7-1.5l0.2-3.4
				c-1,0.4-2.1,0.5-3.2,0.5C432.2,41.3,431.7,41.2,431.2,41.2z"/>
			<path class="st11" d="M440.4,23.6h-3.5v-0.7c0.1-1.9-1.4-3.6-3.4-3.6c-1.9,0-3.4,1.5-3.4,3.4c0,0.1,0,0.1,0,0.2v0.7h-3.3
				c-0.8,0-1.4,0.5-1.4,1.1s0.6,1.1,1.4,1.1h3.5l0.1,2.1c0.7-0.2,1.5-0.3,2.2-0.3c1.4,0,2.7,0.3,3.9,0.8l0.2-2.7c0,0,0,0,0.1,0h3.6
				c0.6,0,1.1-0.5,1.1-1.1C441.6,24.1,441,23.6,440.4,23.6z"/>
			<path class="st10" d="M436.5,30.9c-1-0.6-2.3-1-3.8-1c-0.7,0-1.5,0.1-2.1,0.3c-0.3,0.1-0.6,0.2-0.9,0.3c-0.6,0.2-2.5,0.5-4.9,0.7
				c-3.3,0.3-6.4-1.3-8.2-4.1c-2.8-4.3-8.6-7.3-15.3-7.3c-6.7,0-12.5,3-15.3,7.3c-1.8,2.8-4.9,4.4-8.2,4.1c-2.4-0.2-4.3-0.4-4.9-0.7
				c-0.3-0.1-0.6-0.2-0.9-0.3c-0.7-0.2-1.4-0.3-2.1-0.3c-1.4,0-2.8,0.4-3.8,1c-1.4,0.8-2.2,2.1-2.2,3.5c0,1.6,1,3,2.6,3.8
				c1,0.5,2.1,0.8,3.4,0.8c0.6,0,1.1,0,1.6-0.2c0.5-0.1,0.9-0.3,1.4-0.4c0.7-0.3,4-0.6,7.5-0.9c2.6-0.2,5.2,0.8,7.1,2.8
				c2.4,2.5,5.9,4.4,10.1,5.1v2.3h7.3v-2.3c2.1-0.4,4-1,5.7-1.8c1.7-0.9,3.2-1.9,4.4-3.2c1.8-1.9,4.4-2.9,7.1-2.8
				c3.6,0.3,6.8,0.6,7.5,0.9c0.4,0.2,0.9,0.3,1.4,0.4c0.5,0.1,1,0.2,1.6,0.2c1.2,0,2.4-0.3,3.4-0.8c1.6-0.8,2.6-2.2,2.6-3.8
				C438.7,33.1,437.8,31.8,436.5,30.9z M401.4,38.1c-3,0-5.4-2.4-5.4-5.4s2.4-5.4,5.4-5.4s5.4,2.4,5.4,5.4
				C406.8,35.7,404.4,38.1,401.4,38.1z"/>
			<path class="st11" d="M429.9,67.9h-2.2v-8.1c1.3-0.5,2.2-1.7,2.2-3.1c0-1.8-1.5-3.3-3.3-3.3c-1.4,0-2.6,0.9-3.1,2.2h-6.2l0.6-2.5
				c0.4-1.6-0.8-3.1-2.5-3.1h-27.8c-1.6,0-2.8,1.5-2.5,3.1l0.6,2.5h-5.9c-0.5-1.3-1.7-2.2-3.1-2.2c-1.8,0-3.3,1.5-3.3,3.3
				c0,1.4,0.9,2.6,2.2,3.1v8.1h-2.2c-0.6,0-1.1,0.5-1.1,1.1s0.5,1.1,1.1,1.1h6.7c0.6,0,1.1-0.5,1.1-1.1s-0.5-1.1-1.1-1.1h-2.2v-8.1
				c0.9-0.3,1.7-1.1,2-2h6.4l0.8,3.6c0.3,1.1,1.3,2,2.5,2h23.9c1.2,0,2.2-0.8,2.5-2l0.8-3.6h6.8c0.3,0.9,1.1,1.7,2,2v8.1h-2.2
				c-0.6,0-1.1,0.5-1.1,1.1s0.5,1.1,1.1,1.1h6.7c0.6,0,1.1-0.5,1.1-1.1C431,68.4,430.5,67.9,429.9,67.9z M393.6,57.8h-2.5
				c-0.6,0-1.1-0.5-1.1-1.1s0.5-1.1,1.1-1.1h2.5c0.6,0,1.1,0.5,1.1,1.1C394.8,57.3,394.3,57.8,393.6,57.8z M401.4,59.8
				c-1.8,0-3.2-1.4-3.2-3.2s1.4-3.2,3.2-3.2s3.2,1.4,3.2,3.2C404.6,58.4,403.2,59.8,401.4,59.8z M411.7,57.8h-2.5
				c-0.6,0-1.1-0.5-1.1-1.1s0.5-1.1,1.1-1.1h2.5c0.6,0,1.1,0.5,1.1,1.1C412.8,57.3,412.3,57.8,411.7,57.8z"/>
		</g>
		<g>
			<path class="st12" d="M381.8,84.2h-2v3.5h-1.1v-8.5h2.8c1,0,1.7,0.2,2.2,0.7s0.8,1.1,0.8,1.9c0,0.5-0.1,1-0.4,1.4
				s-0.7,0.7-1.2,0.9l2,3.6v0.1h-1.2L381.8,84.2z M379.8,83.2h1.7c0.6,0,1-0.1,1.3-0.4s0.5-0.7,0.5-1.2s-0.2-0.9-0.5-1.2
				S382,80,381.4,80h-1.7v3.2H379.8z"/>
			<path class="st12" d="M385.6,84.4c0-0.6,0.1-1.2,0.4-1.7s0.6-0.9,1-1.1s0.9-0.4,1.5-0.4c0.9,0,1.6,0.3,2.1,0.9s0.8,1.4,0.8,2.4
				v0.1c0,0.6-0.1,1.2-0.4,1.7s-0.6,0.9-1,1.1s-0.9,0.4-1.5,0.4c-0.9,0-1.6-0.3-2.1-0.9S385.6,85.5,385.6,84.4L385.6,84.4z
				 M386.7,84.5c0,0.7,0.2,1.3,0.5,1.7s0.8,0.6,1.3,0.6c0.6,0,1-0.2,1.3-0.6s0.5-1,0.5-1.8c0-0.7-0.2-1.3-0.5-1.7s-0.8-0.6-1.3-0.6
				s-1,0.2-1.3,0.6S386.7,83.7,386.7,84.5z"/>
			<path class="st12" d="M398.1,84.5c0,1-0.2,1.7-0.7,2.3s-1,0.9-1.8,0.9s-1.4-0.3-1.9-0.8l-0.1,0.7h-1v-9h1.1V82
				c0.4-0.5,1-0.8,1.8-0.8s1.4,0.3,1.8,0.9S398.1,83.4,398.1,84.5L398.1,84.5z M397,84.4c0-0.7-0.1-1.3-0.4-1.7s-0.7-0.6-1.2-0.6
				c-0.7,0-1.2,0.3-1.5,1v2.7c0.3,0.7,0.8,1,1.6,1c0.5,0,0.9-0.2,1.2-0.6S397,85.2,397,84.4z"/>
			<path class="st12" d="M399.2,84.4c0-0.6,0.1-1.2,0.4-1.7s0.6-0.9,1-1.1s0.9-0.4,1.5-0.4c0.9,0,1.6,0.3,2.1,0.9s0.8,1.4,0.8,2.4
				v0.1c0,0.6-0.1,1.2-0.4,1.7s-0.6,0.9-1,1.1s-0.9,0.4-1.5,0.4c-0.9,0-1.6-0.3-2.1-0.9S399.2,85.5,399.2,84.4L399.2,84.4z
				 M400.3,84.5c0,0.7,0.2,1.3,0.5,1.7s0.8,0.6,1.3,0.6c0.6,0,1-0.2,1.3-0.6s0.5-1,0.5-1.8c0-0.7-0.2-1.3-0.5-1.7s-0.8-0.6-1.3-0.6
				s-1,0.2-1.3,0.6S400.3,83.7,400.3,84.5z M402.5,78.6h1.3l-1.6,1.7h-0.9L402.5,78.6z"/>
			<path class="st12" d="M407.8,79.7v1.5h1.2V82h-1.2v3.9c0,0.3,0.1,0.4,0.2,0.6c0.1,0.1,0.3,0.2,0.5,0.2c0.1,0,0.3,0,0.5-0.1v0.9
				c-0.3,0.1-0.6,0.1-0.8,0.1c-0.5,0-0.8-0.1-1.1-0.4s-0.4-0.7-0.4-1.2v-3.9h-1.2v-0.8h1.2v-1.5L407.8,79.7L407.8,79.7z"/>
			<path class="st12" d="M410.2,79.6c0-0.2,0.1-0.3,0.2-0.4s0.3-0.2,0.5-0.2s0.4,0.1,0.5,0.2s0.2,0.3,0.2,0.4s-0.1,0.3-0.2,0.4
				s-0.3,0.2-0.5,0.2s-0.4-0.1-0.5-0.2S410.2,79.8,410.2,79.6z M411.4,87.6h-1.1v-6.3h1.1V87.6z"/>
			<path class="st12" d="M415.7,86.9c0.4,0,0.7-0.1,1-0.4s0.4-0.5,0.5-0.9h1c0,0.4-0.1,0.7-0.4,1s-0.5,0.6-0.9,0.8s-0.8,0.3-1.2,0.3
				c-0.9,0-1.5-0.3-2.1-0.9s-0.8-1.4-0.8-2.4v-0.2c0-0.6,0.1-1.2,0.3-1.6s0.6-0.9,1-1.1s0.9-0.4,1.5-0.4c0.7,0,1.3,0.2,1.8,0.6
				s0.7,1,0.8,1.7h-1c0-0.4-0.2-0.7-0.5-1s-0.6-0.4-1-0.4c-0.6,0-1,0.2-1.3,0.6s-0.5,1-0.5,1.7v0.2c0,0.7,0.2,1.3,0.5,1.7
				S415.1,86.9,415.7,86.9z"/>
			<path class="st12" d="M423.3,87.6c-0.1-0.1-0.1-0.3-0.2-0.7c-0.5,0.5-1.1,0.8-1.8,0.8c-0.6,0-1.1-0.2-1.5-0.5s-0.6-0.8-0.6-1.3
				c0-0.7,0.3-1.2,0.8-1.5s1.2-0.5,2.1-0.5h1.1v-0.5c0-0.4-0.1-0.7-0.3-0.9s-0.6-0.3-1-0.3s-0.7,0.1-1,0.3s-0.4,0.4-0.4,0.7h-1.1
				c0-0.3,0.1-0.6,0.3-0.9s0.5-0.5,0.9-0.7s0.8-0.3,1.3-0.3c0.7,0,1.3,0.2,1.7,0.5s0.6,0.9,0.6,1.5v2.9c0,0.6,0.1,1,0.2,1.4v0.1
				L423.3,87.6L423.3,87.6z M421.5,86.8c0.3,0,0.7-0.1,1-0.3s0.5-0.4,0.7-0.7v-1.3h-0.8c-1.3,0-2,0.4-2,1.2c0,0.3,0.1,0.6,0.3,0.8
				S421.2,86.8,421.5,86.8z"/>
		</g>
	</g>
	<g>
		<g>
			<g>
				<path class="st10" d="M480.8,246.6h-27.5c-1.4,0-2.5-1.1-2.5-2.5v-25c0-1.4,1.1-2.5,2.5-2.5h27.5c1.4,0,2.5,1.1,2.5,2.5v25
					C483.3,245.5,482.2,246.6,480.8,246.6z"/>
			</g>
			<g>
				<path class="st7" d="M478.1,218.6h-22c-1.7,0-3,1.3-3,3v20c0,1.7,1.3,3,3,3h22c1.7,0,3-1.3,3-3v-20
					C481.1,220,479.7,218.6,478.1,218.6z M479.1,221.6v5h-3v-2h-4v-4h2v2h2v-2h2C478.6,220.6,479.1,221.1,479.1,221.6z M476.1,232.6
					h3v2h-3V232.6z M476.1,230.6v-2h3v2H476.1z M466.1,238.6v4h-2v-4H466.1z M468.1,238.6h2v4h-2V238.6z M460.1,236.6v-10h14v10
					H460.1z M468.1,224.6v-4h2v4H468.1z M466.1,224.6h-2v-4h2V224.6z M456.1,220.6h2v2h2v-2h2v4h-4v2h-3v-5
					C455.1,221.1,455.5,220.6,456.1,220.6z M458.1,234.6h-3v-2h3V234.6z M458.1,230.6h-3v-2h3V230.6z M455.1,241.6v-5h3v2h4v4h-2v-2
					h-2v2h-2C455.5,242.6,455.1,242.2,455.1,241.6z M478.1,242.6h-2v-2h-2v2h-2v-4h4v-2h3v5C479.1,242.2,478.6,242.6,478.1,242.6z"
					/>
				<path class="st7" d="M462.1,234.6h10v-6h-10V234.6z M464.1,230.6h6v2h-6V230.6z"/>
			</g>
			<g>
				<rect x="468.1" y="247.6" class="st11" width="2" height="12"/>
			</g>
			<g>
				<rect x="468.1" y="261.6" class="st10" width="2" height="2"/>
			</g>
			<g>
				<rect x="464.1" y="247.6" class="st11" width="2" height="12"/>
			</g>
			<g>
				<rect x="464.1" y="261.6" class="st10" width="2" height="2"/>
			</g>
			<g>
				<polygon class="st11" points="462.1,257.6 446.1,257.6 446.1,255.6 460.1,255.6 460.1,247.6 462.1,247.6 				"/>
			</g>
			<g>
				<rect x="442.1" y="255.6" class="st10" width="2" height="2"/>
			</g>
			<g>
				<polygon class="st11" points="458.1,253.6 440.1,253.6 440.1,251.6 456.1,251.6 456.1,247.6 458.1,247.6 				"/>
			</g>
			<g>
				<rect x="436.1" y="251.6" class="st10" width="2" height="2"/>
			</g>
			<g>
				<polygon class="st11" points="488.1,257.6 472.1,257.6 472.1,247.6 474.1,247.6 474.1,255.6 488.1,255.6 				"/>
			</g>
			<g>
				<rect x="490.1" y="255.6" class="st10" width="2" height="2"/>
			</g>
			<g>
				<polygon class="st11" points="494.1,253.6 476.1,253.6 476.1,247.6 478.1,247.6 478.1,251.6 494.1,251.6 				"/>
			</g>
			<g>
				<rect x="496.1" y="251.6" class="st10" width="2" height="2"/>
			</g>
			<g>
				<rect x="464.1" y="203.6" class="st11" width="2" height="12"/>
			</g>
			<g>
				<rect x="464.1" y="199.6" class="st10" width="2" height="2"/>
			</g>
			<g>
				<rect x="468.1" y="203.6" class="st11" width="2" height="12"/>
			</g>
			<g>
				<rect x="468.1" y="199.6" class="st10" width="2" height="2"/>
			</g>
			<g>
				<polygon class="st11" points="474.1,215.6 472.1,215.6 472.1,205.6 488.1,205.6 488.1,207.6 474.1,207.6 				"/>
			</g>
			<g>
				<rect x="490.1" y="205.6" class="st10" width="2" height="2"/>
			</g>
			<g>
				<polygon class="st11" points="478.1,215.6 476.1,215.6 476.1,209.6 494.1,209.6 494.1,211.6 478.1,211.6 				"/>
			</g>
			<g>
				<rect x="496.1" y="209.6" class="st10" width="2" height="2"/>
			</g>
			<g>
				<polygon class="st11" points="462.1,215.6 460.1,215.6 460.1,207.6 446.1,207.6 446.1,205.6 462.1,205.6 				"/>
			</g>
			<g>
				<rect x="442.1" y="205.6" class="st10" width="2" height="2"/>
			</g>
			<g>
				<polygon class="st11" points="458.1,215.6 456.1,215.6 456.1,211.6 440.1,211.6 440.1,209.6 458.1,209.6 				"/>
			</g>
			<g>
				<rect x="436.1" y="209.6" class="st10" width="2" height="2"/>
			</g>
		</g>
		<g>
			<path class="st12" d="M444.7,276.8c-1-0.3-1.7-0.6-2.1-1s-0.7-0.9-0.7-1.5c0-0.7,0.3-1.2,0.8-1.7s1.2-0.7,2.1-0.7
				c0.6,0,1.1,0.1,1.6,0.3s0.8,0.5,1.1,0.9s0.4,0.8,0.4,1.3h-1.1c0-0.5-0.2-0.9-0.5-1.2s-0.8-0.4-1.4-0.4s-1,0.1-1.3,0.4
				c-0.3,0.2-0.5,0.6-0.5,1c0,0.3,0.1,0.6,0.4,0.9c0.3,0.2,0.8,0.5,1.5,0.7s1.3,0.4,1.7,0.7s0.7,0.5,0.9,0.8s0.3,0.7,0.3,1.1
				c0,0.7-0.3,1.2-0.8,1.7s-1.3,0.6-2.2,0.6c-0.6,0-1.1-0.1-1.6-0.3s-0.9-0.5-1.2-0.9s-0.4-0.8-0.4-1.3h1.1c0,0.5,0.2,0.9,0.6,1.2
				s0.9,0.4,1.5,0.4s1-0.1,1.4-0.4s0.5-0.6,0.5-1s-0.1-0.7-0.4-1S445.5,277,444.7,276.8z"/>
			<path class="st12" d="M449.2,272.6c0-0.2,0.1-0.3,0.2-0.4s0.3-0.2,0.5-0.2s0.4,0.1,0.5,0.2s0.2,0.3,0.2,0.4s-0.1,0.3-0.2,0.4
				s-0.3,0.2-0.5,0.2s-0.4-0.1-0.5-0.2S449.2,272.8,449.2,272.6z M450.3,280.6h-1.1v-6.3h1.1V280.6z"/>
			<path class="st12" d="M455.8,278.9c0-0.3-0.1-0.5-0.3-0.7s-0.6-0.3-1.2-0.4s-1-0.3-1.3-0.4s-0.6-0.4-0.7-0.6s-0.2-0.5-0.2-0.8
				c0-0.5,0.2-1,0.7-1.3s1-0.5,1.7-0.5s1.3,0.2,1.7,0.6s0.7,0.8,0.7,1.4h-1.1c0-0.3-0.1-0.6-0.4-0.8s-0.6-0.3-1-0.3
				s-0.7,0.1-0.9,0.3s-0.3,0.4-0.3,0.7c0,0.3,0.1,0.5,0.3,0.6s0.6,0.3,1.1,0.4s1,0.3,1.3,0.4s0.6,0.4,0.7,0.6s0.2,0.5,0.2,0.9
				c0,0.6-0.2,1-0.7,1.4s-1,0.5-1.8,0.5c-0.5,0-1-0.1-1.3-0.3s-0.7-0.4-0.9-0.8s-0.3-0.7-0.3-1h1.1c0,0.4,0.2,0.7,0.4,0.9
				s0.6,0.3,1.1,0.3c0.4,0,0.7-0.1,1-0.2S455.8,279.2,455.8,278.9z"/>
			<path class="st12" d="M459.7,272.7v1.5h1.2v0.8h-1.2v3.9c0,0.3,0.1,0.4,0.2,0.6c0.1,0.1,0.3,0.2,0.5,0.2c0.1,0,0.3,0,0.5-0.1v0.9
				c-0.3,0.1-0.6,0.1-0.8,0.1c-0.5,0-0.8-0.1-1.1-0.4s-0.4-0.7-0.4-1.2v-3.9h-1.2v-0.8h1.2v-1.5h1.1V272.7z"/>
			<path class="st12" d="M464.8,280.7c-0.9,0-1.6-0.3-2.1-0.8s-0.8-1.3-0.8-2.3v-0.2c0-0.6,0.1-1.2,0.4-1.7s0.6-0.9,1-1.2
				s0.9-0.4,1.4-0.4c0.8,0,1.5,0.3,1.9,0.8s0.7,1.3,0.7,2.3v0.5H463c0,0.6,0.2,1.1,0.5,1.5s0.8,0.6,1.3,0.6c0.4,0,0.7-0.1,1-0.2
				s0.5-0.4,0.7-0.6l0.7,0.5C466.7,280.3,465.9,280.7,464.8,280.7z M464.7,275.1c-0.4,0-0.8,0.2-1.1,0.5s-0.5,0.8-0.6,1.3h3.2v-0.1
				c0-0.6-0.2-1-0.4-1.3S465.1,275.1,464.7,275.1z"/>
			<path class="st12" d="M469.6,274.3v0.7c0.5-0.5,1.1-0.8,1.9-0.8c0.9,0,1.5,0.3,1.8,1c0.2-0.3,0.5-0.6,0.8-0.7s0.7-0.3,1.2-0.3
				c1.4,0,2.1,0.7,2.1,2.2v4.2h-1.1v-4.2c0-0.5-0.1-0.8-0.3-1s-0.6-0.3-1-0.3s-0.7,0.1-1,0.4s-0.4,0.6-0.5,1v4.2h-1.1v-4.2
				c0-0.9-0.5-1.4-1.4-1.4c-0.7,0-1.2,0.3-1.5,0.9v4.6h-1.1v-6.3L469.6,274.3L469.6,274.3z"/>
			<path class="st12" d="M483,280.6c-0.1-0.1-0.1-0.3-0.2-0.7c-0.5,0.5-1.1,0.8-1.8,0.8c-0.6,0-1.1-0.2-1.5-0.5s-0.6-0.8-0.6-1.3
				c0-0.7,0.2-1.2,0.8-1.5s1.2-0.5,2.1-0.5h1.1v-0.5c0-0.4-0.1-0.7-0.3-0.9s-0.6-0.3-1-0.3s-0.7,0.1-1,0.3s-0.4,0.4-0.4,0.7H479
				c0-0.3,0.1-0.6,0.3-0.9s0.5-0.5,0.9-0.7s0.8-0.3,1.3-0.3c0.7,0,1.3,0.2,1.7,0.5s0.6,0.9,0.6,1.5v2.9c0,0.6,0.1,1,0.2,1.4v0.1h-1
				V280.6z M481.2,279.8c0.3,0,0.7-0.1,1-0.3s0.5-0.4,0.7-0.7v-1.3h-0.8c-1.3,0-2,0.4-2,1.2c0,0.3,0.1,0.6,0.3,0.8
				S480.8,279.8,481.2,279.8z"/>
			<path class="st12" d="M489.3,278.9c0-0.3-0.1-0.5-0.3-0.7s-0.6-0.3-1.2-0.4s-1-0.3-1.3-0.4s-0.6-0.4-0.7-0.6s-0.2-0.5-0.2-0.8
				c0-0.5,0.2-1,0.7-1.3s1-0.5,1.7-0.5s1.3,0.2,1.7,0.6s0.7,0.8,0.7,1.4h-1.1c0-0.3-0.1-0.6-0.4-0.8s-0.6-0.3-1-0.3
				s-0.7,0.1-0.9,0.3s-0.3,0.4-0.3,0.7c0,0.3,0.1,0.5,0.3,0.6s0.6,0.3,1.1,0.4s1,0.3,1.3,0.4s0.6,0.4,0.7,0.6s0.2,0.5,0.2,0.9
				c0,0.6-0.2,1-0.7,1.4s-1,0.5-1.8,0.5c-0.5,0-1-0.1-1.3-0.3s-0.7-0.4-0.9-0.8s-0.3-0.7-0.3-1h1.1c0,0.4,0.2,0.7,0.4,0.9
				s0.6,0.3,1.1,0.3c0.4,0,0.7-0.1,1-0.2S489.3,279.2,489.3,278.9z"/>
			<path class="st12" d="M438.3,291.1h-3.7v3h4.3v0.9h-5.4v-8.5h5.4v0.9h-4.2v2.7h3.7L438.3,291.1L438.3,291.1z"/>
			<path class="st12" d="M441.2,288.7v0.7c0.5-0.5,1.1-0.8,1.9-0.8c0.9,0,1.5,0.3,1.8,1c0.2-0.3,0.5-0.6,0.8-0.7s0.7-0.3,1.2-0.3
				c1.4,0,2.1,0.7,2.1,2.2v4.2h-1.1v-4.2c0-0.5-0.1-0.8-0.3-1s-0.6-0.3-1-0.3s-0.7,0.1-1,0.4s-0.4,0.6-0.5,1v4.2H444v-4.2
				c0-0.9-0.5-1.4-1.4-1.4c-0.7,0-1.2,0.3-1.5,0.9v4.6H440v-6.3L441.2,288.7L441.2,288.7z"/>
			<path class="st12" d="M456,291.9c0,1-0.2,1.7-0.7,2.3s-1,0.9-1.8,0.9s-1.4-0.3-1.9-0.8l-0.1,0.7h-1v-9h1.1v3.4
				c0.4-0.5,1-0.8,1.8-0.8s1.4,0.3,1.8,0.9S456,290.8,456,291.9L456,291.9z M454.9,291.8c0-0.7-0.1-1.3-0.4-1.7s-0.7-0.6-1.2-0.6
				c-0.7,0-1.2,0.3-1.5,1v2.7c0.3,0.7,0.8,1,1.6,1c0.5,0,0.9-0.2,1.2-0.6S454.9,292.6,454.9,291.8z"/>
			<path class="st12" d="M461.3,295c-0.1-0.1-0.1-0.3-0.2-0.7c-0.5,0.5-1.1,0.8-1.8,0.8c-0.6,0-1.1-0.2-1.5-0.5s-0.6-0.8-0.6-1.3
				c0-0.7,0.2-1.2,0.8-1.5s1.2-0.5,2.1-0.5h1.1v-0.5c0-0.4-0.1-0.7-0.3-0.9s-0.6-0.3-1-0.3s-0.7,0.1-1,0.3s-0.4,0.4-0.4,0.7h-1.1
				c0-0.3,0.1-0.6,0.3-0.9s0.5-0.5,0.9-0.7s0.8-0.3,1.3-0.3c0.7,0,1.3,0.2,1.7,0.5s0.6,0.9,0.6,1.5v2.9c0,0.6,0.1,1,0.2,1.4v0.1
				h-1.1V295z M459.5,294.2c0.3,0,0.7-0.1,1-0.3s0.5-0.4,0.7-0.7v-1.3h-0.8c-1.3,0-2,0.4-2,1.2c0,0.3,0.1,0.6,0.3,0.8
				S459.2,294.2,459.5,294.2z"/>
			<path class="st12" d="M467,289.6c-0.2,0-0.3,0-0.5,0c-0.7,0-1.2,0.3-1.4,0.9v4.5H464v-6.3h1.1v0.7c0.4-0.6,0.9-0.8,1.5-0.8
				c0.2,0,0.4,0,0.5,0.1v0.9H467z"/>
			<path class="st12" d="M470.4,294.2c0.4,0,0.7-0.1,1-0.4s0.4-0.5,0.5-0.9h1c0,0.4-0.1,0.7-0.4,1s-0.5,0.6-0.9,0.8
				s-0.8,0.3-1.2,0.3c-0.9,0-1.6-0.3-2.1-0.9s-0.8-1.4-0.8-2.4v-0.2c0-0.6,0.1-1.2,0.3-1.6s0.6-0.9,1-1.1s0.9-0.4,1.5-0.4
				c0.7,0,1.3,0.2,1.8,0.6s0.7,1,0.8,1.7h-1c0-0.4-0.2-0.7-0.5-1s-0.6-0.4-1-0.4c-0.6,0-1,0.2-1.3,0.6s-0.5,1-0.5,1.7v0.2
				c0,0.7,0.2,1.3,0.5,1.7S469.9,294.2,470.4,294.2z"/>
			<path class="st12" d="M478.1,295c-0.1-0.1-0.1-0.3-0.2-0.7c-0.5,0.5-1.1,0.8-1.8,0.8c-0.6,0-1.1-0.2-1.5-0.5s-0.6-0.8-0.6-1.3
				c0-0.7,0.2-1.2,0.8-1.5s1.2-0.5,2.1-0.5h1.1v-0.5c0-0.4-0.1-0.7-0.3-0.9s-0.6-0.3-1-0.3s-0.7,0.1-1,0.3s-0.4,0.4-0.4,0.7h-1.1
				c0-0.3,0.1-0.6,0.3-0.9s0.5-0.5,0.9-0.7s0.8-0.3,1.3-0.3c0.7,0,1.3,0.2,1.7,0.5s0.6,0.9,0.6,1.5v2.9c0,0.6,0.1,1,0.2,1.4v0.1
				h-1.1V295z M476.3,294.2c0.3,0,0.7-0.1,1-0.3s0.5-0.4,0.7-0.7v-1.3h-0.8c-1.3,0-2,0.4-2,1.2c0,0.3,0.1,0.6,0.3,0.8
				S475.9,294.2,476.3,294.2z"/>
			<path class="st12" d="M480.4,291.8c0-1,0.2-1.8,0.7-2.3s1.1-0.9,1.8-0.9c0.7,0,1.3,0.3,1.8,0.8V286h1.1v9h-1l-0.1-0.7
				c-0.4,0.5-1,0.8-1.8,0.8c-0.7,0-1.3-0.3-1.8-0.9S480.4,292.8,480.4,291.8L480.4,291.8z M481.5,291.9c0,0.7,0.1,1.3,0.4,1.7
				s0.7,0.6,1.2,0.6c0.7,0,1.2-0.3,1.5-0.9v-2.9c-0.3-0.6-0.8-0.9-1.5-0.9c-0.5,0-0.9,0.2-1.2,0.6S481.5,291.1,481.5,291.9z"/>
			<path class="st12" d="M487.2,291.8c0-0.6,0.1-1.2,0.4-1.7s0.6-0.9,1-1.1s0.9-0.4,1.5-0.4c0.9,0,1.6,0.3,2.1,0.9s0.8,1.4,0.8,2.4
				v0.1c0,0.6-0.1,1.2-0.4,1.7s-0.6,0.9-1,1.1s-0.9,0.4-1.5,0.4c-0.9,0-1.6-0.3-2.1-0.9S487.2,292.8,487.2,291.8L487.2,291.8z
				 M488.3,291.9c0,0.7,0.2,1.3,0.5,1.7s0.8,0.6,1.3,0.6c0.6,0,1-0.2,1.3-0.6s0.5-1,0.5-1.8c0-0.7-0.2-1.3-0.5-1.7s-0.8-0.6-1.3-0.6
				s-1,0.2-1.3,0.6S488.3,291.1,488.3,291.9z"/>
			<path class="st12" d="M498,293.3c0-0.3-0.1-0.5-0.3-0.7s-0.6-0.3-1.2-0.4s-1-0.3-1.3-0.4s-0.6-0.4-0.7-0.6s-0.2-0.5-0.2-0.8
				c0-0.5,0.2-1,0.7-1.3s1-0.5,1.7-0.5s1.3,0.2,1.7,0.6s0.7,0.8,0.7,1.4H498c0-0.3-0.1-0.6-0.4-0.8s-0.6-0.3-1-0.3s-0.7,0.1-0.9,0.3
				s-0.3,0.4-0.3,0.7c0,0.3,0.1,0.5,0.3,0.6s0.6,0.3,1.1,0.4s1,0.3,1.3,0.4s0.6,0.4,0.7,0.6s0.2,0.5,0.2,0.9c0,0.6-0.2,1-0.7,1.4
				s-1,0.5-1.8,0.5c-0.5,0-1-0.1-1.3-0.3s-0.7-0.4-0.9-0.8s-0.3-0.7-0.3-1h1.1c0,0.4,0.2,0.7,0.4,0.9s0.6,0.3,1.1,0.3
				c0.4,0,0.7-0.1,1-0.2S498,293.6,498,293.3z"/>
		</g>
	</g>
	<g>
		<path class="st11" d="M75.2,252.2c0.5,0.3,4.6,2.3,4.8,2.4c1.1,0.6,0.3,0.9-0.7,1.3c-0.4,0.2-2.6,1-3.2,1.5
			c-0.1,0.1-0.5,0.9,0.5,1.3c0.9,0.4,17.8,8.1,18.1,8.3c0.3,0.1,1.8,0.7,1.4,1.6c-0.4,0.8-20.3,7.8-21.2,8.5c-0.7,0.5,1.7,1.5,2,1.7
			c0.8,0.6-0.4,0.7-1.2,0.7c-0.8,0-15.6,0-15.9,0c-1.2,0-1.2-0.3-0.8-1.1c0.3-0.6,3.8-7,3.9-7.2c0.4-0.7,0.9,0,1.2,0.2
			c0.6,0.4,1.2,1.1,2.4,1c0.5-0.1,7.3-2.5,9.5-3.6c1.7-0.9,2-1.5-1.2-3.4c-1.2-0.8-11.2-5.1-12.4-6.8c-0.7-1,1.9-2.2,2.1-2.4
			c0.3-0.2,8.8-4.1,9-4.2C74.5,251.8,74.5,251.9,75.2,252.2z"/>
		<g id="_9-Shipping">
			<polyline class="st13" points="86.8,231.2 94.8,231.2 102.8,239.2 102.8,249.2 98.8,249.2 			"/>
			<circle class="st13" cx="94.8" cy="249.2" r="4"/>
			<circle class="st13" cx="66.8" cy="249.2" r="4"/>
			<line class="st13" x1="90.8" y1="249.2" x2="70.8" y2="249.2"/>
			<line class="st13" x1="65.8" y1="249.2" x2="67.8" y2="249.2"/>
			<line class="st13" x1="93.8" y1="249.2" x2="95.8" y2="249.2"/>
			<line class="st13" x1="86.8" y1="245.2" x2="72.8" y2="245.2"/>
			<path class="st13" d="M86.8,236.2c0,0,1,3,3,3h13"/>
			<line class="st13" x1="58.8" y1="241.2" x2="86.8" y2="241.2"/>
			<path class="st13" d="M86.8,249.2v-24h-9v-2c0-0.6-0.4-1-1-1h-8c-0.6,0-1,0.4-1,1v2h-9v24h4"/>
			<line class="st13" x1="67.8" y1="225.2" x2="74.8" y2="225.2"/>
			<line class="st13" x1="55.8" y1="245.2" x2="47.8" y2="245.2"/>
			<line class="st13" x1="51.8" y1="240.2" x2="45.8" y2="240.2"/>
			<line class="st13" x1="55.8" y1="235.2" x2="51.8" y2="235.2"/>
			<line class="st13" x1="55.8" y1="240.2" x2="53.8" y2="240.2"/>
			<line class="st13" x1="49.8" y1="235.2" x2="47.8" y2="235.2"/>
		</g>
		<rect x="59.5" y="225.8" class="st10" width="26.8" height="14.4"/>
		<path class="st10" d="M43.3,268c0-4.7,3.8-8.5,8.5-8.5s8.5,3.8,8.5,8.5c0,5.7-8.5,14.2-8.5,14.2S43.3,273.6,43.3,268 M48.3,268
			c0,2,1.6,3.5,3.5,3.5s3.5-1.6,3.5-3.5c0-2-1.6-3.5-3.5-3.5S48.3,266,48.3,268z"/>
		<g>
			<path class="st12" d="M13.9,299.3h4v0.9h-5.2v-8.5h1.1L13.9,299.3L13.9,299.3z"/>
			<path class="st12" d="M18.8,296.9c0-0.6,0.1-1.2,0.4-1.7s0.6-0.9,1-1.1s0.9-0.4,1.5-0.4c0.9,0,1.6,0.3,2.1,0.9s0.8,1.4,0.8,2.4
				v0.1c0,0.6-0.1,1.2-0.4,1.7s-0.6,0.9-1,1.1s-0.9,0.4-1.5,0.4c-0.9,0-1.6-0.3-2.1-0.9S18.8,298,18.8,296.9L18.8,296.9z
				 M19.9,297.1c0,0.7,0.2,1.3,0.5,1.7s0.8,0.6,1.3,0.6c0.6,0,1-0.2,1.3-0.6s0.5-1,0.5-1.8c0-0.7-0.2-1.3-0.5-1.7s-0.8-0.6-1.3-0.6
				s-1,0.2-1.3,0.6S19.9,296.3,19.9,297.1z"/>
			<path class="st12" d="M25.7,297c0-1,0.2-1.8,0.7-2.4s1.1-0.9,1.8-0.9c0.8,0,1.4,0.3,1.8,0.8l0.1-0.7h1v6.2c0,0.8-0.2,1.5-0.7,1.9
				s-1.1,0.7-2,0.7c-0.5,0-0.9-0.1-1.3-0.3s-0.8-0.5-1-0.8l0.6-0.7c0.5,0.6,1,0.9,1.7,0.9c0.5,0,0.9-0.1,1.2-0.4s0.4-0.7,0.4-1.3
				v-0.5c-0.4,0.5-1,0.8-1.8,0.8c-0.7,0-1.3-0.3-1.8-0.9S25.7,298,25.7,297z M26.8,297.1c0,0.7,0.1,1.3,0.4,1.7s0.7,0.6,1.2,0.6
				c0.7,0,1.2-0.3,1.5-0.9v-2.9c-0.3-0.6-0.8-0.9-1.5-0.9c-0.5,0-0.9,0.2-1.2,0.6S26.8,296.3,26.8,297.1z"/>
			<path class="st12" d="M33.9,291.2h1.3l-1.6,1.7h-0.9L33.9,291.2z M33.9,300.2h-1.1v-6.3h1.1V300.2z"/>
			<path class="st12" d="M39.3,298.5c0-0.3-0.1-0.5-0.3-0.7s-0.6-0.3-1.2-0.4s-1-0.3-1.3-0.4s-0.6-0.4-0.7-0.6s-0.2-0.5-0.2-0.8
				c0-0.5,0.2-1,0.7-1.3s1-0.5,1.7-0.5s1.3,0.2,1.7,0.6s0.7,0.8,0.7,1.4h-1.1c0-0.3-0.1-0.6-0.4-0.8s-0.6-0.3-1-0.3
				s-0.7,0.1-0.9,0.3s-0.3,0.4-0.3,0.7c0,0.3,0.1,0.5,0.3,0.6s0.6,0.3,1.1,0.4s1,0.3,1.3,0.4s0.6,0.4,0.7,0.6s0.2,0.5,0.2,0.9
				c0,0.6-0.2,1-0.7,1.4s-1,0.5-1.8,0.5c-0.5,0-1-0.1-1.3-0.3s-0.7-0.4-0.9-0.8s-0.3-0.7-0.3-1h1.1c0,0.4,0.2,0.7,0.4,0.9
				s0.6,0.3,1.1,0.3c0.4,0,0.7-0.1,1-0.2S39.3,298.8,39.3,298.5z"/>
			<path class="st12" d="M43.3,292.3v1.5h1.2v0.8h-1.2v3.9c0,0.3,0.1,0.4,0.2,0.6c0.1,0.1,0.3,0.2,0.5,0.2c0.1,0,0.3,0,0.5-0.1v0.9
				c-0.3,0.1-0.6,0.1-0.8,0.1c-0.5,0-0.8-0.1-1.1-0.4s-0.4-0.7-0.4-1.2v-3.9H41v-0.8h1.2v-1.5h1.1V292.3z"/>
			<path class="st12" d="M45.8,292.2c0-0.2,0.1-0.3,0.2-0.4s0.3-0.2,0.5-0.2s0.4,0.1,0.5,0.2s0.2,0.3,0.2,0.4s-0.1,0.3-0.2,0.4
				s-0.3,0.2-0.5,0.2s-0.4-0.1-0.5-0.2S45.8,292.3,45.8,292.2z M46.9,300.2h-1.1v-6.3h1.1V300.2z"/>
			<path class="st12" d="M51.2,299.4c0.4,0,0.7-0.1,1-0.4s0.4-0.5,0.5-0.9h1c0,0.4-0.1,0.7-0.4,1s-0.5,0.6-0.9,0.8s-0.8,0.3-1.2,0.3
				c-0.9,0-1.5-0.3-2.1-0.9s-0.8-1.4-0.8-2.4v-0.2c0-0.6,0.1-1.2,0.3-1.6s0.6-0.9,1-1.1s0.9-0.4,1.5-0.4c0.7,0,1.3,0.2,1.8,0.6
				s0.7,1,0.8,1.7h-1c0-0.4-0.2-0.7-0.5-1s-0.6-0.4-1-0.4c-0.6,0-1,0.2-1.3,0.6s-0.5,1-0.5,1.7v0.2c0,0.7,0.2,1.3,0.5,1.7
				S50.6,299.4,51.2,299.4z"/>
			<path class="st12" d="M58.9,300.2c-0.1-0.1-0.1-0.3-0.2-0.7c-0.5,0.5-1.1,0.8-1.8,0.8c-0.6,0-1.1-0.2-1.5-0.5s-0.6-0.8-0.6-1.3
				c0-0.7,0.3-1.2,0.8-1.5s1.2-0.5,2.1-0.5h1.1V296c0-0.4-0.1-0.7-0.3-0.9s-0.6-0.3-1-0.3s-0.7,0.1-1,0.3s-0.4,0.4-0.4,0.7H55
				c0-0.3,0.1-0.6,0.3-0.9s0.5-0.5,0.9-0.7s0.8-0.3,1.3-0.3c0.7,0,1.3,0.2,1.7,0.5s0.6,0.9,0.6,1.5v2.9c0,0.6,0.1,1,0.2,1.4v0.1
				h-1.1V300.2z M57.1,299.4c0.3,0,0.7-0.1,1-0.3s0.5-0.4,0.7-0.7v-1.3H58c-1.3,0-2,0.4-2,1.2c0,0.3,0.1,0.6,0.3,0.8
				S56.7,299.4,57.1,299.4z"/>
			<path class="st12" d="M67.1,300.3c-0.9,0-1.6-0.3-2.1-0.8s-0.8-1.3-0.8-2.3V297c0-0.6,0.1-1.2,0.4-1.7s0.6-0.9,1-1.2
				s0.9-0.4,1.4-0.4c0.8,0,1.5,0.3,1.9,0.8s0.7,1.3,0.7,2.3v0.5h-4.3c0,0.6,0.2,1.1,0.5,1.5s0.8,0.6,1.3,0.6c0.4,0,0.7-0.1,1-0.2
				s0.5-0.4,0.7-0.6l0.7,0.5C68.9,299.9,68.1,300.3,67.1,300.3z M66.9,294.6c-0.4,0-0.8,0.2-1.1,0.5s-0.5,0.8-0.6,1.3h3.2v-0.1
				c0-0.6-0.2-1-0.4-1.3S67.4,294.6,66.9,294.6z"/>
			<path class="st12" d="M79.6,292.6h-2.7v7.6h-1.1v-7.6H73v-0.9h6.6V292.6z"/>
			<path class="st12" d="M83.3,294.8c-0.2,0-0.3,0-0.5,0c-0.7,0-1.2,0.3-1.4,0.9v4.5h-1.1v-6.3h1.1v0.7c0.4-0.6,0.9-0.8,1.5-0.8
				c0.2,0,0.4,0,0.5,0.1L83.3,294.8L83.3,294.8z"/>
			<path class="st12" d="M88,300.2c-0.1-0.1-0.1-0.3-0.2-0.7c-0.5,0.5-1.1,0.8-1.8,0.8c-0.6,0-1.1-0.2-1.5-0.5s-0.6-0.8-0.6-1.3
				c0-0.7,0.3-1.2,0.8-1.5s1.2-0.5,2.1-0.5h1.1V296c0-0.4-0.1-0.7-0.3-0.9s-0.6-0.3-1-0.3s-0.7,0.1-1,0.3s-0.4,0.4-0.4,0.7H84
				c0-0.3,0.1-0.6,0.3-0.9s0.5-0.5,0.9-0.7s0.8-0.3,1.3-0.3c0.7,0,1.3,0.2,1.7,0.5s0.6,0.9,0.6,1.5v2.9c0,0.6,0.1,1,0.2,1.4v0.1h-1
				V300.2z M86.2,299.4c0.3,0,0.7-0.1,1-0.3s0.5-0.4,0.7-0.7v-1.3H87c-1.3,0-2,0.4-2,1.2c0,0.3,0.1,0.6,0.3,0.8
				S85.8,299.4,86.2,299.4z"/>
			<path class="st12" d="M91.6,293.8v0.8c0.5-0.6,1.1-0.9,1.9-0.9c1.3,0,2,0.8,2,2.3v4.2h-1.1V296c0-0.5-0.1-0.8-0.3-1
				s-0.5-0.3-1-0.3c-0.4,0-0.7,0.1-0.9,0.3s-0.5,0.4-0.6,0.7v4.5h-1.1v-6.3h1.1V293.8z"/>
			<path class="st12" d="M100.9,298.5c0-0.3-0.1-0.5-0.3-0.7s-0.6-0.3-1.2-0.4s-1-0.3-1.3-0.4s-0.6-0.4-0.7-0.6s-0.2-0.5-0.2-0.8
				c0-0.5,0.2-1,0.7-1.3s1-0.5,1.7-0.5s1.3,0.2,1.7,0.6s0.7,0.8,0.7,1.4h-1.1c0-0.3-0.1-0.6-0.4-0.8s-0.6-0.3-1-0.3
				s-0.7,0.1-0.9,0.3s-0.3,0.4-0.3,0.7c0,0.3,0.1,0.5,0.3,0.6s0.6,0.3,1.1,0.4s1,0.3,1.3,0.4s0.6,0.4,0.7,0.6s0.2,0.5,0.2,0.9
				c0,0.6-0.2,1-0.7,1.4s-1,0.5-1.8,0.5c-0.5,0-1-0.1-1.3-0.3s-0.7-0.4-0.9-0.8s-0.3-0.7-0.3-1H98c0,0.4,0.2,0.7,0.4,0.9
				s0.6,0.3,1.1,0.3c0.4,0,0.7-0.1,1-0.2S100.9,298.8,100.9,298.5z"/>
			<path class="st12" d="M108.8,297.1c0,1-0.2,1.7-0.7,2.3s-1,0.9-1.8,0.9s-1.4-0.2-1.8-0.7v3.1h-1.1v-8.8h1l0.1,0.7
				c0.4-0.5,1.1-0.8,1.8-0.8c0.8,0,1.4,0.3,1.8,0.9S108.8,296,108.8,297.1L108.8,297.1z M107.7,297c0-0.7-0.2-1.3-0.5-1.7
				s-0.7-0.6-1.3-0.6c-0.7,0-1.1,0.3-1.5,0.9v3c0.3,0.6,0.8,0.9,1.5,0.9c0.5,0,0.9-0.2,1.2-0.6S107.7,297.8,107.7,297z"/>
			<path class="st12" d="M109.9,296.9c0-0.6,0.1-1.2,0.4-1.7s0.6-0.9,1-1.1s0.9-0.4,1.5-0.4c0.9,0,1.6,0.3,2.1,0.9s0.8,1.4,0.8,2.4
				v0.1c0,0.6-0.1,1.2-0.4,1.7s-0.6,0.9-1,1.1s-0.9,0.4-1.5,0.4c-0.9,0-1.6-0.3-2.1-0.9S109.9,298,109.9,296.9L109.9,296.9z
				 M110.9,297.1c0,0.7,0.2,1.3,0.5,1.7s0.8,0.6,1.3,0.6c0.6,0,1-0.2,1.3-0.6s0.5-1,0.5-1.8c0-0.7-0.2-1.3-0.5-1.7s-0.8-0.6-1.3-0.6
				s-1,0.2-1.3,0.6S110.9,296.3,110.9,297.1z"/>
			<path class="st12" d="M120.1,294.8c-0.2,0-0.3,0-0.5,0c-0.7,0-1.2,0.3-1.4,0.9v4.5H117v-6.3h1.1v0.7c0.4-0.6,0.9-0.8,1.5-0.8
				c0.2,0,0.4,0,0.5,0.1V294.8z"/>
			<path class="st12" d="M122.8,292.3v1.5h1.2v0.8h-1.2v3.9c0,0.3,0.1,0.4,0.2,0.6c0.1,0.1,0.3,0.2,0.5,0.2c0.1,0,0.3,0,0.5-0.1v0.9
				c-0.3,0.1-0.6,0.1-0.8,0.1c-0.5,0-0.8-0.1-1.1-0.4s-0.4-0.7-0.4-1.2v-3.9h-1.2v-0.8h1.2v-1.5h1.1V292.3z"/>
			<path class="st12" d="M127.9,300.3c-0.9,0-1.6-0.3-2.1-0.8s-0.8-1.3-0.8-2.3V297c0-0.6,0.1-1.2,0.4-1.7s0.6-0.9,1-1.2
				s0.9-0.4,1.4-0.4c0.8,0,1.5,0.3,1.9,0.8s0.7,1.3,0.7,2.3v0.5h-4.3c0,0.6,0.2,1.1,0.5,1.5s0.8,0.6,1.3,0.6c0.4,0,0.7-0.1,1-0.2
				s0.5-0.4,0.7-0.6l0.7,0.5C129.8,299.9,129,300.3,127.9,300.3z M127.8,294.6c-0.4,0-0.8,0.2-1.1,0.5s-0.5,0.8-0.6,1.3h3.2v-0.1
				c0-0.6-0.2-1-0.4-1.3S128.2,294.6,127.8,294.6z"/>
		</g>
	</g>
	<g>
		<line class="st14" x1="212.3" y1="172.4" x2="185.3" y2="161.4"/>
		<line class="st14" x1="183.2" y1="160.6" x2="175" y2="157.3"/>
	</g>
	<g>
		<line class="st14" x1="178.1" y1="213" x2="131.3" y2="222.6"/>
		<line class="st14" x1="185.3" y1="211.5" x2="180.2" y2="212.6"/>
		<line class="st14" x1="192.6" y1="210" x2="187.5" y2="211"/>
	</g>
	<g>
		<line class="st14" x1="172.1" y1="109.8" x2="161.3" y2="101.6"/>
		<line class="st14" x1="189" y1="122.4" x2="173.8" y2="111"/>
	</g>
	<g>
		<line class="st14" x1="160.3" y1="125.7" x2="155.9" y2="122.9"/>
		<line class="st14" x1="208.9" y1="156.5" x2="162.2" y2="126.9"/>
	</g>
	<g>
		<line class="st14" x1="203.9" y1="195.7" x2="198.7" y2="195.9"/>
		<line class="st14" x1="212.7" y1="195.4" x2="207.5" y2="195.6"/>
	</g>
	<g>
		<line class="st14" x1="246.7" y1="251.4" x2="228.9" y2="295.7"/>
		<line class="st14" x1="249.4" y1="244.6" x2="247.5" y2="249.4"/>
		<line class="st14" x1="252.2" y1="237.7" x2="250.3" y2="242.5"/>
	</g>
	<g>
		<line class="st14" x1="325.9" y1="115" x2="299.1" y2="154.5"/>
		<line class="st14" x1="330" y1="108.9" x2="327.1" y2="113.2"/>
		<line class="st14" x1="334.2" y1="102.7" x2="331.3" y2="107"/>
	</g>
	<g>
		<line class="st14" x1="238.1" y1="101.9" x2="232" y2="87"/>
		<line class="st14" x1="247.5" y1="125.1" x2="239" y2="104.2"/>
	</g>
	<g>
		<line class="st14" x1="219.4" y1="125.6" x2="215.9" y2="121.8"/>
		<line class="st14" x1="225.4" y1="132" x2="221.8" y2="128.2"/>
	</g>
	<g>
		<line class="st14" x1="183.1" y1="292.9" x2="202.3" y2="271"/>
		<line class="st14" x1="203.7" y1="269.3" x2="209.6" y2="262.6"/>
	</g>
	<g>
		<line class="st14" x1="354.8" y1="219.2" x2="327" y2="210.3"/>
		<line class="st14" x1="324.9" y1="209.6" x2="316.5" y2="206.9"/>
	</g>
	<g>
		<line class="st14" x1="325.7" y1="162.1" x2="321.3" y2="164.8"/>
		<line class="st14" x1="333.2" y1="157.6" x2="328.8" y2="160.3"/>
	</g>
	<g>
		<line class="st14" x1="304.1" y1="265.8" x2="301.5" y2="261.2"/>
		<line class="st14" x1="332.5" y1="315.8" x2="305.2" y2="267.7"/>
	</g>
	<g>
		<line class="st14" x1="348.8" y1="127.4" x2="385" y2="96.4"/>
		<line class="st14" x1="343.2" y1="132.2" x2="347.1" y2="128.8"/>
		<line class="st14" x1="337.5" y1="137.1" x2="341.5" y2="133.7"/>
	</g>
	<g>
		<line class="st14" x1="122.9" y1="198.2" x2="117.7" y2="198.4"/>
		<line class="st14" x1="131.6" y1="197.9" x2="126.4" y2="198.1"/>
	</g>
	<g>
		<line class="st14" x1="363.2" y1="211.9" x2="349.9" y2="209.1"/>
		<line class="st14" x1="383.8" y1="216.3" x2="365.2" y2="212.3"/>
	</g>
	<g>
		<line class="st14" x1="351.3" y1="234" x2="346.7" y2="231.6"/>
		<line class="st14" x1="402.3" y1="260.7" x2="353.3" y2="235"/>
	</g>
	<g>
		<line class="st14" x1="402.3" y1="236.7" x2="397.2" y2="235.5"/>
		<line class="st14" x1="410.9" y1="238.7" x2="405.8" y2="237.5"/>
	</g>
	<g>
		<line class="st14" x1="303.4" y1="91.5" x2="312.4" y2="63.8"/>
		<line class="st14" x1="313.1" y1="61.6" x2="315.8" y2="53.2"/>
	</g>
	<g>
		<line class="st14" x1="174.9" y1="54.8" x2="171.9" y2="50.6"/>
		<line class="st14" x1="208.2" y1="101.7" x2="176.2" y2="56.6"/>
	</g>
	<g>
		<line class="st14" x1="273.5" y1="122.7" x2="274.8" y2="109.3"/>
		<line class="st14" x1="271.6" y1="143.8" x2="273.4" y2="124.8"/>
	</g>
	<g>
		<line class="st14" x1="322.2" y1="248" x2="318.3" y2="244.6"/>
		<line class="st14" x1="328.8" y1="253.8" x2="324.8" y2="250.4"/>
	</g>
	<g>
		<line class="st14" x1="349.5" y1="179.9" x2="378.2" y2="175.1"/>
		<line class="st14" x1="380.4" y1="174.8" x2="389.1" y2="173.3"/>
	</g>
</g>
<g id="Logo_v2">
	<g id="layer1-3" transform="translate(49.109684,-141.95153)">
		<g id="flowRoot993">
		</g>
		<g id="g941-6-6-7" transform="translate(1153.7883,49.010859)">
			<g id="g876-0-2-4" transform="matrix(1.0651962,0,0,1.0651962,-294.92638,152.84156)">
				<path id="path870-8-6-5" class="st3" d="M-631.4,108.1c0.7,1.6,1.4,3.3,2.1,4.9c-8,16.1-1.1,33.1,2,38.7
					C-628.9,151.4-644.5,132.3-631.4,108.1z"/>
			</g>
			<g id="g880-3-1-2">
				<path id="path872-7-8-5" class="st4" d="M-967.5,268c-1.9,0.2-3.7,0.4-5.6,0.6c-16.7,38.6,17.6,62.7,37,61.4
					c-1-1.6-2.1-3.2-3.1-4.7C-955.9,324.3-984.9,303.5-967.5,268"/>
				<path id="path870-7-2-9-7" class="st15" d="M-902.1,269.6c-1.9-0.2-3.8-0.4-5.7-0.6c-10.6-15.9-30-18.7-36.8-18.8
					C-943.3,248.8-917.4,244.6-902.1,269.6z"/>
				<path id="path872-5-1-2-4" class="st4" d="M-902.1,269.6c0.8-1.7,1.5-3.4,2.3-5.1c-25.1-33.8-63.1-16.1-71.7,1.4
					c1.9-0.1,3.8-0.2,5.7-0.3C-956.6,251.6-924.1,236.8-902.1,269.6"/>
				<path id="path870-7-5-5-2-3" class="st15" d="M-936.4,325.3c1.1-1.5,2.3-3.1,3.4-4.6c19.1-1.2,31.2-16.6,34.7-22.4
					C-897.9,300-907.1,324.5-936.4,325.3z"/>
				<path id="path872-5-6-8-3-0" class="st4" d="M-936.4,325.3c1.1,1.5,2.2,3,3.3,4.5c41.8-4.8,45.5-46.6,34.7-62.7
					c-0.8,1.7-1.7,3.4-2.5,5.1C-893.6,287.1-897,322.6-936.4,325.3"/>
			</g>
			<g class="st16">
				<path class="st4" d="M-959.7,292.5h6l1.1,2.9h-10.7v-13.5h3.7L-959.7,292.5z"/>
				<path class="st4" d="M-952.2,295.3l4.9-13.6h3.9l4.6,13.6h-7.6v-2.9h3l-2-6.1l-3.2,9H-952.2z"/>
				<path class="st4" d="M-938.1,292.5l6.9,0l0-2.5h-5c-1.1,0-1.7-0.5-1.9-1.4c0-0.2,0-0.5,0-0.7c0-0.3,0-0.5,0-0.7h0v-3.7
					c0.1-0.6,0.3-1,0.6-1.2c0.3-0.2,0.7-0.4,1.3-0.4h8.8c-0.2,0.7-0.5,1.3-0.6,1.7s-0.3,0.9-0.4,1.2h-1.1l-4.7,0v2.4l5,0
					c0.5,0,1,0.1,1.3,0.4c0.3,0.2,0.5,0.6,0.6,1.2c0,0,0,0.1,0,0.1c0,0,0,0.1,0,0.1h0v5c-0.2,0.9-0.9,1.4-1.9,1.4l-2.8,0v0h-5
					L-938.1,292.5z"/>
				<path class="st4" d="M-926.7,281.9h10.7l-1.1,2.9h-6v2.5h6v2.8h-6v2.4l7,0l-1,2.9h-9.7V281.9z"/>
				<path class="st4" d="M-911.7,295.4h-3.7v-6.5l0,0l0,0v-7l8.8,0c0.5,0,1,0.1,1.3,0.4c0.3,0.2,0.5,0.6,0.6,1.2c0,0.9,0,1.7,0,2.2
					s0,1,0,1.3s0,0.5,0,0.7s0,0.3,0,0.4c-0.1,0.5-0.3,0.8-0.5,1.1c-0.2,0.2-0.6,0.4-0.9,0.5v0.1h-1.4l2.8,5.9h-3.8l-2.7-5.9v-2.3
					h2.7v-2.5h-3.3L-911.7,295.4z"/>
			</g>
		</g>
	</g>
</g>
<g id="Logo_v1" class="st0">
	<g id="layer1_1_" transform="translate(-795.98108,-250.34993)" class="st1">
		<g id="layer1-3_1_" transform="translate(49.109684,-141.95153)">
			<g id="flowRoot993_1_">
			</g>
			<g id="g941-6-6-7_1_" transform="translate(1153.7883,49.010859)">
				<g id="g876-0-2-4_1_" transform="matrix(1.0651962,0,0,1.0651962,-294.92638,152.84156)">
					<path id="path870-8-6-5_1_" class="st17" d="M232.3,346.8c0.7,1.6,1.4,3.3,2.1,4.9c-8,16.1-1.1,33.1,2,38.7
						C234.8,390,219.3,371,232.3,346.8z"/>
				</g>
				<g id="g880-3-1-2_1_">
					<path id="path872-7-8-5_1_" class="st18" d="M-47.4,522.2c-1.9,0.2-3.7,0.4-5.6,0.6c-16.7,38.6,17.6,62.7,37,61.4
						c-1-1.6-2.1-3.2-3.1-4.7C-35.8,578.5-64.8,557.7-47.4,522.2"/>
					<g id="g876-6-8-7-4_1_" transform="matrix(-0.5325981,0.92248697,-0.92248697,-0.5325981,-193.98627,545.33561)">
						<path id="path870-7-2-9-7_1_" class="st17" d="M-117.1-162.3c0.7,1.6,1.4,3.3,2.1,4.9c-8,16.1-1.1,33.1,2,38.7
							C-114.6-119-130.1-138.1-117.1-162.3z"/>
						<path id="path872-5-1-2-4_1_" class="st18" d="M-117.1-162.3c-1.7,0.2-3.5,0.4-5.2,0.5c-15.7,36.2,16.5,58.9,34.7,57.6
							c-1-1.5-2-3-2.9-4.4C-106.1-109.5-133.4-128.9-117.1-162.3"/>
					</g>
					<g id="g876-6-3-0-0-4_1_" transform="matrix(-0.5325981,-0.92248697,0.92248697,-0.5325981,-584.6132,436.36579)">
						<path id="path870-7-5-5-2-3_1_" class="st17" d="M-383.2,394.8c0.7,1.6,1.4,3.3,2.1,4.9c-8,16.1-1.1,33.1,2,38.7
							C-380.7,438.1-396.2,419-383.2,394.8z"/>
						<path id="path872-5-6-8-3-0_1_" class="st18" d="M-383.2,394.8c-1.7,0.2-3.5,0.4-5.2,0.5c-15.7,36.2,16.5,58.9,34.7,57.6
							c-1-1.5-2-3-2.9-4.4C-372.2,447.6-399.5,428.2-383.2,394.8"/>
					</g>
				</g>
				<text transform="matrix(1 0 0 1 -43.6739 549.5713)" class="st19 st5 st6">Laser</text>
			</g>
		</g>
	</g>
</g>
</svg>
